{
  "accessors": [
    {
      "bufferView": 2,
      "componentType": 5126,
      "count": 584,
      "max": [
        1.0140149593353271,
        1.0352829694747925,
        -0.11063899844884872
      ],
      "min": [
        0.48217201232910156,
        0.00043899999582208693,
        -0.5961599946022034
      ],
      "type": "VEC3"
    },
    {
      "bufferView": 2,
      "byteOffset": 7008,
      "componentType": 5126,
      "count": 584,
      "max": [
        0.9987942576408386,
        1.0,
        0.9984026551246643
      ],
      "min": [
        -0.9987953305244446,
        -1.0,
        -0.9984026551246643
      ],
      "type": "VEC3"
    },
    {
      "bufferView": 3,
      "componentType": 5126,
      "count": 584,
      "max": [
        0.9984336495399475,
        1.0,
        0.9999443292617798,
        1.0
      ],
      "min": [
        -0.9984031915664673,
        -1.0,
        -0.9999455213546753,
        -1.0
      ],
      "type": "VEC4"
    },
    {
      "bufferView": 1,
      "componentType": 5126,
      "count": 584,
      "max": [
        0.9978860020637512,
        0.9916260242462158
      ],
      "min": [
        0.0014750000555068254,
        0.0015699999639764428
      ],
      "type": "VEC2"
    },
    {
      "bufferView": 0,
      "componentType": 5125,
      "count": 1248,
      "type": "SCALAR"
    },
    {
      "bufferView": 2,
      "byteOffset": 14016,
      "componentType": 5126,
      "count": 584,
      "max": [
        0.9328839778900146,
        1.0352829694747925,
        0.5210769772529602
      ],
      "min": [
        0.4193919897079468,
        0.00043899999582208693,
        0.05137300118803978
      ],
      "type": "VEC3"
    },
    {
      "bufferView": 2,
      "byteOffset": 21024,
      "componentType": 5126,
      "count": 584,
      "max": [
        0.9999448657035828,
        1.0,
        0.9999459981918335
      ],
      "min": [
        -0.9999448657035828,
        -1.0,
        -0.9999459981918335
      ],
      "type": "VEC3"
    },
    {
      "bufferView": 3,
      "byteOffset": 9344,
      "componentType": 5126,
      "count": 584,
      "max": [
        0.9999516010284424,
        1.0,
        0.9999479055404663,
        1.0
      ],
      "min": [
        -0.9999470710754395,
        -1.0,
        -0.9999479651451111,
        -1.0
      ],
      "type": "VEC4"
    },
    {
      "bufferView": 1,
      "byteOffset": 4672,
      "componentType": 5126,
      "count": 584,
      "max": [
        0.9979770183563232,
        0.9975389838218689
      ],
      "min": [
        0.0014779999619349837,
        0.001475999946705997
      ],
      "type": "VEC2"
    },
    {
      "bufferView": 0,
      "byteOffset": 4992,
      "componentType": 5125,
      "count": 1248,
      "type": "SCALAR"
    },
    {
      "bufferView": 2,
      "byteOffset": 28032,
      "componentType": 5126,
      "count": 584,
      "max": [
        0.44443100690841675,
        1.0352829694747925,
        -0.6473580002784729
      ],
      "min": [
        -0.2280530035495758,
        0.00043899999582208693,
        -1.3196450471878052
      ],
      "type": "VEC3"
    },
    {
      "bufferView": 2,
      "byteOffset": 35040,
      "componentType": 5126,
      "count": 584,
      "max": [
        0.997539758682251,
        1.0,
        0.9801630973815918
      ],
      "min": [
        -0.9812972545623779,
        -1.0,
        -0.9979304671287537
      ],
      "type": "VEC3"
    },
    {
      "bufferView": 3,
      "byteOffset": 18688,
      "componentType": 5126,
      "count": 584,
      "max": [
        0.7680494785308838,
        1.0,
        0.8013740181922913,
        1.0
      ],
      "min": [
        -0.9799140095710754,
        -1.0,
        -0.9810534119606018,
        -1.0
      ],
      "type": "VEC4"
    },
    {
      "bufferView": 1,
      "byteOffset": 9344,
      "componentType": 5126,
      "count": 584,
      "max": [
        0.9966239929199219,
        0.99754798412323
      ],
      "min": [
        0.001475999946705997,
        0.0014809999847784638
      ],
      "type": "VEC2"
    },
    {
      "bufferView": 0,
      "byteOffset": 9984,
      "componentType": 5125,
      "count": 1248,
      "type": "SCALAR"
    },
    {
      "bufferView": 2,
      "byteOffset": 42048,
      "componentType": 5126,
      "count": 248,
      "max": [
        -0.4816559851169586,
        0.48823899030685425,
        0.4251199960708618
      ],
      "min": [
        -0.861536979675293,
        0.00043899999582208693,
        -0.6630550026893616
      ],
      "type": "VEC3"
    },
    {
      "bufferView": 2,
      "byteOffset": 45024,
      "componentType": 5126,
      "count": 248,
      "max": [
        1.0,
        1.0,
        1.0
      ],
      "min": [
        -1.0,
        -1.0,
        -1.0
      ],
      "type": "VEC3"
    },
    {
      "bufferView": 3,
      "byteOffset": 28032,
      "componentType": 5126,
      "count": 248,
      "max": [
        1.0,
        1.0,
        1.0,
        1.0
      ],
      "min": [
        -1.0,
        -1.0,
        -1.0,
        -1.0
      ],
      "type": "VEC4"
    },
    {
      "bufferView": 1,
      "byteOffset": 14016,
      "componentType": 5126,
      "count": 248,
      "max": [
        0.9982749819755554,
        0.9462609887123108
      ],
      "min": [
        0.0014750000555068254,
        0.0014750000555068254
      ],
      "type": "VEC2"
    },
    {
      "bufferView": 0,
      "byteOffset": 14976,
      "componentType": 5125,
      "count": 420,
      "type": "SCALAR"
    },
    {
      "bufferView": 2,
      "byteOffset": 48000,
      "componentType": 5126,
      "count": 584,
      "max": [
        0.318215012550354,
        1.0352829694747925,
        1.1034990549087524
      ],
      "min": [
        -0.1515139937400818,
        0.00043899999582208693,
        0.5943319797515869
      ],
      "type": "VEC3"
    },
    {
      "bufferView": 2,
      "byteOffset": 55008,
      "componentType": 5126,
      "count": 584,
      "max": [
        1.0,
        1.0,
        1.0
      ],
      "min": [
        -1.0,
        -1.0,
        -1.0
      ],
      "type": "VEC3"
    },
    {
      "bufferView": 3,
      "byteOffset": 32000,
      "componentType": 5126,
      "count": 584,
      "max": [
        1.0,
        1.0,
        1.0,
        1.0
      ],
      "min": [
        -1.0,
        -1.0,
        -1.0,
        -1.0
      ],
      "type": "VEC4"
    },
    {
      "bufferView": 1,
      "byteOffset": 16000,
      "componentType": 5126,
      "count": 584,
      "max": [
        0.9973070025444031,
        0.995576024055481
      ],
      "min": [
        0.0014769999543204904,
        0.0014779999619349837
      ],
      "type": "VEC2"
    },
    {
      "bufferView": 0,
      "byteOffset": 16656,
      "componentType": 5125,
      "count": 1248,
      "type": "SCALAR"
    },
    {
      "bufferView": 2,
      "byteOffset": 62016,
      "componentType": 5126,
      "count": 248,
      "max": [
        0.4519079923629761,
        0.8268160223960876,
        0.749983012676239
      ],
      "min": [
        -0.4480920135974884,
        0.00043899999582208693,
        -0.750016987323761
      ],
      "type": "VEC3"
    },
    {
      "bufferView": 2,
      "byteOffset": 64992,
      "componentType": 5126,
      "count": 248,
      "max": [
        1.0,
        1.0,
        1.0
      ],
      "min": [
        -1.0,
        -1.0,
        -1.0
      ],
      "type": "VEC3"
    },
    {
      "bufferView": 3,
      "byteOffset": 41344,
      "componentType": 5126,
      "count": 248,
      "max": [
        1.0,
        1.0,
        1.0,
        1.0
      ],
      "min": [
        -1.0,
        -1.0,
        -1.0,
        1.0
      ],
      "type": "VEC4"
    },
    {
      "bufferView": 1,
      "byteOffset": 20672,
      "componentType": 5126,
      "count": 248,
      "max": [
        0.9658529758453369,
        0.9641450047492981
      ],
      "min": [
        0.0014779999619349837,
        0.0014779999619349837
      ],
      "type": "VEC2"
    },
    {
      "bufferView": 0,
      "byteOffset": 21648,
      "componentType": 5125,
      "count": 420,
      "type": "SCALAR"
    }
  ],
  "asset": {
    "extras": {
      "author": "Andrey 3D (https://sketchfab.com/Andrey3Ds)",
      "license": "CC-BY-4.0 (http://creativecommons.org/licenses/by/4.0/)",
      "source": "https://sketchfab.com/3d-models/kitchen-table-chairs-and-bench-low-poly-1128dbc593c440e9b513c689f496827c",
      "title": "Kitchen table chairs and bench (low poly)"
    },
    "generator": "Sketchfab-16.59.0",
    "version": "2.0"
  },
  "bufferViews": [
    {
      "buffer": 0,
      "byteLength": 23328,
      "name": "floatBufferViews",
      "target": 34963
    },
    {
      "buffer": 0,
      "byteLength": 22656,
      "byteOffset": 23328,
      "byteStride": 8,
      "name": "floatBufferViews",
      "target": 34962
    },
    {
      "buffer": 0,
      "byteLength": 67968,
      "byteOffset": 45984,
      "byteStride": 12,
      "name": "floatBufferViews",
      "target": 34962
    },
    {
      "buffer": 0,
      "byteLength": 45312,
      "byteOffset": 113952,
      "byteStride": 16,
      "name": "floatBufferViews",
      "target": 34962
    }
  ],
  "buffers": [
    {
      "byteLength": 159264,
      "uri": "scene.bin"
    }
  ],
  "images": [
    {
      "uri": "textures/DefaultMaterial_baseColor.jpeg"
    },
    {
      "uri": "textures/DefaultMaterial_metallicRoughness.png"
    },
    {
      "uri": "textures/DefaultMaterial_normal.png"
    }
  ],
  "materials": [
    {
      "doubleSided": true,
      "name": "DefaultMaterial",
      "normalTexture": {
        "index": 2
      },
      "occlusionTexture": {
        "index": 1
      },
      "pbrMetallicRoughness": {
        "baseColorTexture": {
          "index": 0
        },
        "metallicRoughnessTexture": {
          "index": 1
        }
      }
    }
  ],
  "meshes": [
    {
      "name": "defaultMaterial",
      "primitives": [
        {
          "attributes": {
            "NORMAL": 1,
            "POSITION": 0,
            "TANGENT": 2,
            "TEXCOORD_0": 3
          },
          "indices": 4,
          "material": 0,
          "mode": 4
        }
      ]
    },
    {
      "name": "defaultMaterial",
      "primitives": [
        {
          "attributes": {
            "NORMAL": 6,
            "POSITION": 5,
            "TANGENT": 7,
            "TEXCOORD_0": 8
          },
          "indices": 9,
          "material": 0,
          "mode": 4
        }
      ]
    },
    {
      "name": "defaultMaterial",
      "primitives": [
        {
          "attributes": {
            "NORMAL": 11,
            "POSITION": 10,
            "TANGENT": 12,
            "TEXCOORD_0": 13
          },
          "indices": 14,
          "material": 0,
          "mode": 4
        }
      ]
    },
    {
      "name": "defaultMaterial",
      "primitives": [
        {
          "attributes": {
            "NORMAL": 16,
            "POSITION": 15,
            "TANGENT": 17,
            "TEXCOORD_0": 18
          },
          "indices": 19,
          "material": 0,
          "mode": 4
        }
      ]
    },
    {
      "name": "defaultMaterial",
      "primitives": [
        {
          "attributes": {
            "NORMAL": 21,
            "POSITION": 20,
            "TANGENT": 22,
            "TEXCOORD_0": 23
          },
          "indices": 24,
          "material": 0,
          "mode": 4
        }
      ]
    },
    {
      "name": "defaultMaterial",
      "primitives": [
        {
          "attributes": {
            "NORMAL": 26,
            "POSITION": 25,
            "TANGENT": 27,
            "TEXCOORD_0": 28
          },
          "indices": 29,
          "material": 0,
          "mode": 4
        }
      ]
    }
  ],
  "nodes": [
    {
      "children": [
        1
      ],
      "matrix": [
        1.0,
        0.0,
        0.0,
        0.0,
        0.0,
        2.220446049250313e-16,
        -1.0,
        0.0,
        0.0,
        1.0,
        2.220446049250313e-16,
        0.0,
        0.0,
        0.0,
        0.0,
        1.0
      ],
      "name": "Sketchfab_model"
    },
    {
      "children": [
        2,
        4,
        6,
        8,
        10,
        12
      ],
      "matrix": [
        1.0,
        0.0,
        0.0,
        0.0,
        0.0,
        -4.371139006309477e-08,
        0.999999999999999,
        0.0,
        0.0,
        -0.999999999999999,
        -4.371139006309477e-08,
        0.0,
        0.0,
        0.0,
        0.0,
        1.0
      ],
      "name": "Collada visual scene group"
    },
    {
      "children": [
        3
      ],
      "name": "Chair3_low"
    },
    {
      "mesh": 0,
      "name": "defaultMaterial"
    },
    {
      "children": [
        5
      ],
      "name": "Chair4_low"
    },
    {
      "mesh": 1,
      "name": "defaultMaterial"
    },
    {
      "children": [
        7
      ],
      "name": "Chair2_low"
    },
    {
      "mesh": 2,
      "name": "defaultMaterial"
    },
    {
      "children": [
        9
      ],
      "name": "Bench_low"
    },
    {
      "mesh": 3,
      "name": "defaultMaterial"
    },
    {
      "children": [
        11
      ],
      "name": "Chair1_low"
    },
    {
      "mesh": 4,
      "name": "defaultMaterial"
    },
    {
      "children": [
        13
      ],
      "name": "Table_low"
    },
    {
      "mesh": 5,
      "name": "defaultMaterial"
    }
  ],
  "samplers": [
    {
      "magFilter": 9729,
      "minFilter": 9987,
      "wrapS": 10497,
      "wrapT": 10497
    }
  ],
  "scene": 0,
  "scenes": [
    {
      "name": "Sketchfab_Scene",
      "nodes": [
        0
      ]
    }
  ],
  "textures": [
    {
      "sampler": 0,
      "source": 0
    },
    {
      "sampler": 0,
      "source": 1
    },
    {
      "sampler": 0,
      "source": 2
    }
  ]
}
