{
	"asset":{
		"generator":"Khronos glTF Blender I/O v4.4.56",
		"version":"2.0"
	},
	"extensionsUsed":[
		"KHR_materials_specular"
	],
	"scene":0,
	"scenes":[
		{
			"name":"Scene",
			"nodes":[
				4
			]
		}
	],
	"nodes":[
		{
			"mesh":0,
			"name":"Object_53"
		},
		{
			"mesh":1,
			"name":"Object_54"
		},
		{
			"mesh":2,
			"name":"Object_55"
		},
		{
			"mesh":3,
			"name":"Object_56"
		},
		{
			"children":[
				0,
				1,
				2,
				3
			],
			"name":"Door_001.005_20",
			"rotation":[
				0.5,
				-0.5,
				-0.5,
				0.5
			]
		}
	],
	"materials":[
		{
			"doubleSided":true,
			"extensions":{
				"KHR_materials_specular":{
					"specularFactor":0.25
				}
			},
			"name":"Concrete",
			"normalTexture":{
				"index":0,
				"texCoord":2
			},
			"occlusionTexture":{
				"index":1
			},
			"pbrMetallicRoughness":{
				"baseColorTexture":{
					"index":2
				},
				"metallicFactor":0,
				"metallicRoughnessTexture":{
					"index":1,
					"texCoord":1
				}
			}
		},
		{
			"doubleSided":true,
			"extensions":{
				"KHR_materials_specular":{
					"specularFactor":0.25
				}
			},
			"name":"Bricks",
			"normalTexture":{
				"index":3
			},
			"occlusionTexture":{
				"index":4
			},
			"pbrMetallicRoughness":{
				"baseColorTexture":{
					"index":5
				},
				"metallicFactor":0,
				"metallicRoughnessTexture":{
					"index":4
				}
			}
		},
		{
			"doubleSided":true,
			"extensions":{
				"KHR_materials_specular":{
					"specularFactor":0.25
				}
			},
			"name":"Frame",
			"normalTexture":{
				"index":6,
				"texCoord":2
			},
			"occlusionTexture":{
				"index":7
			},
			"pbrMetallicRoughness":{
				"baseColorTexture":{
					"index":8
				},
				"metallicFactor":0,
				"metallicRoughnessTexture":{
					"index":7,
					"texCoord":1
				}
			}
		},
		{
			"doubleSided":true,
			"name":"Glass",
			"pbrMetallicRoughness":{
				"baseColorFactor":[
					0.009999999776482582,
					0.009999999776482582,
					0.009999999776482582,
					1
				],
				"metallicFactor":0,
				"metallicRoughnessTexture":{
					"index":9
				}
			}
		}
	],
	"meshes":[
		{
			"name":"Object_31",
			"primitives":[
				{
					"attributes":{
						"POSITION":0,
						"NORMAL":1,
						"TEXCOORD_0":2,
						"TEXCOORD_1":3,
						"TEXCOORD_2":4,
						"TEXCOORD_3":5,
						"TANGENT":6
					},
					"indices":7,
					"material":0
				}
			]
		},
		{
			"name":"Object_32",
			"primitives":[
				{
					"attributes":{
						"POSITION":8,
						"NORMAL":9,
						"TEXCOORD_0":10,
						"TEXCOORD_1":11,
						"TEXCOORD_2":12,
						"TEXCOORD_3":13,
						"TANGENT":14
					},
					"indices":15,
					"material":1
				}
			]
		},
		{
			"name":"Object_33",
			"primitives":[
				{
					"attributes":{
						"POSITION":16,
						"NORMAL":17,
						"TEXCOORD_0":18,
						"TEXCOORD_1":19,
						"TEXCOORD_2":20,
						"TEXCOORD_3":21,
						"TANGENT":22
					},
					"indices":23,
					"material":2
				}
			]
		},
		{
			"name":"Object_34",
			"primitives":[
				{
					"attributes":{
						"POSITION":24,
						"NORMAL":25,
						"TEXCOORD_0":26,
						"TEXCOORD_1":27,
						"TANGENT":28
					},
					"indices":29,
					"material":3
				}
			]
		}
	],
	"textures":[
		{
			"sampler":0,
			"source":0
		},
		{
			"sampler":0,
			"source":1
		},
		{
			"sampler":0,
			"source":2
		},
		{
			"sampler":0,
			"source":3
		},
		{
			"sampler":0,
			"source":4
		},
		{
			"sampler":0,
			"source":5
		},
		{
			"sampler":0,
			"source":6
		},
		{
			"sampler":0,
			"source":7
		},
		{
			"sampler":0,
			"source":8
		},
		{
			"sampler":0,
			"source":9
		}
	],
	"images":[
		{
			"mimeType":"image/jpeg",
			"name":"Concrete_normal",
			"uri":"textures/Concrete_normal.jpg"
		},
		{
			"mimeType":"image/png",
			"name":"Concrete_metallicRoughness",
			"uri":"textures/Concrete_metallicRoughness.png"
		},
		{
			"mimeType":"image/jpeg",
			"name":"Concrete_baseColor",
			"uri":"textures/Concrete_baseColor.jpg"
		},
		{
			"mimeType":"image/jpeg",
			"name":"Bricks_normal",
			"uri":"textures/Bricks_normal.jpg"
		},
		{
			"mimeType":"image/png",
			"name":"Bricks_metallicRoughness",
			"uri":"textures/Bricks_metallicRoughness.png"
		},
		{
			"mimeType":"image/jpeg",
			"name":"Bricks_baseColor",
			"uri":"textures/Bricks_baseColor.jpg"
		},
		{
			"mimeType":"image/jpeg",
			"name":"Frame_normal",
			"uri":"textures/Frame_normal.jpg"
		},
		{
			"mimeType":"image/png",
			"name":"Frame_metallicRoughness",
			"uri":"textures/Frame_metallicRoughness.png"
		},
		{
			"mimeType":"image/jpeg",
			"name":"Frame_baseColor",
			"uri":"textures/Frame_baseColor.jpg"
		},
		{
			"mimeType":"image/png",
			"name":"Glass_metallicRoughness",
			"uri":"textures/Glass_metallicRoughness.png"
		}
	],
	"accessors":[
		{
			"bufferView":0,
			"componentType":5126,
			"count":8,
			"max":[
				3.934023240503848e-08,
				3.934023240503848e-08,
				-0.20000016689300537
			],
			"min":[
				-0.10000008344650269,
				-0.20000001788139343,
				-1.0999996662139893
			],
			"type":"VEC3"
		},
		{
			"bufferView":1,
			"componentType":5126,
			"count":8,
			"type":"VEC3"
		},
		{
			"bufferView":2,
			"componentType":5126,
			"count":8,
			"type":"VEC2"
		},
		{
			"bufferView":3,
			"componentType":5126,
			"count":8,
			"type":"VEC2"
		},
		{
			"bufferView":4,
			"componentType":5126,
			"count":8,
			"type":"VEC2"
		},
		{
			"bufferView":5,
			"componentType":5126,
			"count":8,
			"type":"VEC2"
		},
		{
			"bufferView":6,
			"componentType":5126,
			"count":8,
			"type":"VEC4"
		},
		{
			"bufferView":7,
			"componentType":5123,
			"count":12,
			"type":"SCALAR"
		},
		{
			"bufferView":8,
			"componentType":5126,
			"count":40,
			"max":[
				3.934023240503848e-08,
				3.934023240503848e-08,
				1.5417840870668442e-07
			],
			"min":[
				-2.200000047683716,
				-0.20000004768371582,
				-2.1999998092651367
			],
			"type":"VEC3"
		},
		{
			"bufferView":9,
			"componentType":5126,
			"count":40,
			"type":"VEC3"
		},
		{
			"bufferView":10,
			"componentType":5126,
			"count":40,
			"type":"VEC2"
		},
		{
			"bufferView":11,
			"componentType":5126,
			"count":40,
			"type":"VEC2"
		},
		{
			"bufferView":12,
			"componentType":5126,
			"count":40,
			"type":"VEC2"
		},
		{
			"bufferView":13,
			"componentType":5126,
			"count":40,
			"type":"VEC2"
		},
		{
			"bufferView":14,
			"componentType":5126,
			"count":40,
			"type":"VEC4"
		},
		{
			"bufferView":15,
			"componentType":5123,
			"count":60,
			"type":"SCALAR"
		},
		{
			"bufferView":16,
			"componentType":5126,
			"count":94,
			"max":[
				-0.10000026226043701,
				-0.10000015050172806,
				-0.19128498435020447
			],
			"min":[
				-1.9000003337860107,
				-0.2780594825744629,
				-1.096575140953064
			],
			"type":"VEC3"
		},
		{
			"bufferView":17,
			"componentType":5126,
			"count":94,
			"type":"VEC3"
		},
		{
			"bufferView":18,
			"componentType":5126,
			"count":94,
			"type":"VEC2"
		},
		{
			"bufferView":19,
			"componentType":5126,
			"count":94,
			"type":"VEC2"
		},
		{
			"bufferView":20,
			"componentType":5126,
			"count":94,
			"type":"VEC2"
		},
		{
			"bufferView":21,
			"componentType":5126,
			"count":94,
			"type":"VEC2"
		},
		{
			"bufferView":22,
			"componentType":5126,
			"count":94,
			"type":"VEC4"
		},
		{
			"bufferView":23,
			"componentType":5123,
			"count":138,
			"type":"SCALAR"
		},
		{
			"bufferView":24,
			"componentType":5126,
			"count":4,
			"max":[
				-1.4500000476837158,
				-0.13424375653266907,
				-0.24719560146331787
			],
			"min":[
				-1.8500003814697266,
				-0.20396794378757477,
				-1.0441508293151855
			],
			"type":"VEC3"
		},
		{
			"bufferView":25,
			"componentType":5126,
			"count":4,
			"type":"VEC3"
		},
		{
			"bufferView":26,
			"componentType":5126,
			"count":4,
			"type":"VEC2"
		},
		{
			"bufferView":27,
			"componentType":5126,
			"count":4,
			"type":"VEC2"
		},
		{
			"bufferView":28,
			"componentType":5126,
			"count":4,
			"type":"VEC4"
		},
		{
			"bufferView":29,
			"componentType":5123,
			"count":6,
			"type":"SCALAR"
		}
	],
	"bufferViews":[
		{
			"buffer":0,
			"byteLength":96,
			"byteOffset":0,
			"target":34962
		},
		{
			"buffer":0,
			"byteLength":96,
			"byteOffset":96,
			"target":34962
		},
		{
			"buffer":0,
			"byteLength":64,
			"byteOffset":192,
			"target":34962
		},
		{
			"buffer":0,
			"byteLength":64,
			"byteOffset":256,
			"target":34962
		},
		{
			"buffer":0,
			"byteLength":64,
			"byteOffset":320,
			"target":34962
		},
		{
			"buffer":0,
			"byteLength":64,
			"byteOffset":384,
			"target":34962
		},
		{
			"buffer":0,
			"byteLength":128,
			"byteOffset":448,
			"target":34962
		},
		{
			"buffer":0,
			"byteLength":24,
			"byteOffset":576,
			"target":34963
		},
		{
			"buffer":0,
			"byteLength":480,
			"byteOffset":600,
			"target":34962
		},
		{
			"buffer":0,
			"byteLength":480,
			"byteOffset":1080,
			"target":34962
		},
		{
			"buffer":0,
			"byteLength":320,
			"byteOffset":1560,
			"target":34962
		},
		{
			"buffer":0,
			"byteLength":320,
			"byteOffset":1880,
			"target":34962
		},
		{
			"buffer":0,
			"byteLength":320,
			"byteOffset":2200,
			"target":34962
		},
		{
			"buffer":0,
			"byteLength":320,
			"byteOffset":2520,
			"target":34962
		},
		{
			"buffer":0,
			"byteLength":640,
			"byteOffset":2840,
			"target":34962
		},
		{
			"buffer":0,
			"byteLength":120,
			"byteOffset":3480,
			"target":34963
		},
		{
			"buffer":0,
			"byteLength":1128,
			"byteOffset":3600,
			"target":34962
		},
		{
			"buffer":0,
			"byteLength":1128,
			"byteOffset":4728,
			"target":34962
		},
		{
			"buffer":0,
			"byteLength":752,
			"byteOffset":5856,
			"target":34962
		},
		{
			"buffer":0,
			"byteLength":752,
			"byteOffset":6608,
			"target":34962
		},
		{
			"buffer":0,
			"byteLength":752,
			"byteOffset":7360,
			"target":34962
		},
		{
			"buffer":0,
			"byteLength":752,
			"byteOffset":8112,
			"target":34962
		},
		{
			"buffer":0,
			"byteLength":1504,
			"byteOffset":8864,
			"target":34962
		},
		{
			"buffer":0,
			"byteLength":276,
			"byteOffset":10368,
			"target":34963
		},
		{
			"buffer":0,
			"byteLength":48,
			"byteOffset":10644,
			"target":34962
		},
		{
			"buffer":0,
			"byteLength":48,
			"byteOffset":10692,
			"target":34962
		},
		{
			"buffer":0,
			"byteLength":32,
			"byteOffset":10740,
			"target":34962
		},
		{
			"buffer":0,
			"byteLength":32,
			"byteOffset":10772,
			"target":34962
		},
		{
			"buffer":0,
			"byteLength":64,
			"byteOffset":10804,
			"target":34962
		},
		{
			"buffer":0,
			"byteLength":12,
			"byteOffset":10868,
			"target":34963
		}
	],
	"samplers":[
		{
			"magFilter":9729,
			"minFilter":9987
		}
	],
	"buffers":[
		{
			"byteLength":10880,
			"uri":"door_001_005_20.bin"
		}
	]
}
