{
	"asset":{
		"generator":"Khronos glTF Blender I/O v4.4.56",
		"version":"2.0"
	},
	"extensionsUsed":[
		"KHR_materials_specular"
	],
	"scene":0,
	"scenes":[
		{
			"name":"Scene",
			"nodes":[
				2
			]
		}
	],
	"nodes":[
		{
			"mesh":0,
			"name":"Object_71"
		},
		{
			"mesh":1,
			"name":"Object_72"
		},
		{
			"children":[
				0,
				1
			],
			"name":"Window_001.001_26",
			"rotation":[
				0.5000002980232239,
				-0.4999999403953552,
				-0.49999988079071045,
				0.4999999403953552
			]
		}
	],
	"materials":[
		{
			"doubleSided":true,
			"extensions":{
				"KHR_materials_specular":{
					"specularFactor":0.25
				}
			},
			"name":"Frame",
			"normalTexture":{
				"index":0,
				"texCoord":2
			},
			"occlusionTexture":{
				"index":1
			},
			"pbrMetallicRoughness":{
				"baseColorTexture":{
					"index":2
				},
				"metallicFactor":0,
				"metallicRoughnessTexture":{
					"index":1,
					"texCoord":1
				}
			}
		},
		{
			"doubleSided":true,
			"name":"Glass",
			"pbrMetallicRoughness":{
				"baseColorFactor":[
					0.009999999776482582,
					0.009999999776482582,
					0.009999999776482582,
					1
				],
				"metallicFactor":0,
				"metallicRoughnessTexture":{
					"index":3
				}
			}
		}
	],
	"meshes":[
		{
			"name":"Object_43",
			"primitives":[
				{
					"attributes":{
						"POSITION":0,
						"NORMAL":1,
						"TEXCOORD_0":2,
						"TEXCOORD_1":3,
						"TEXCOORD_2":4,
						"TEXCOORD_3":5,
						"TANGENT":6
					},
					"indices":7,
					"material":0
				}
			]
		},
		{
			"name":"Object_44",
			"primitives":[
				{
					"attributes":{
						"POSITION":8,
						"NORMAL":9,
						"TEXCOORD_0":10,
						"TEXCOORD_1":11,
						"TANGENT":12
					},
					"indices":13,
					"material":1
				}
			]
		}
	],
	"textures":[
		{
			"sampler":0,
			"source":0
		},
		{
			"sampler":0,
			"source":1
		},
		{
			"sampler":0,
			"source":2
		},
		{
			"sampler":0,
			"source":3
		}
	],
	"images":[
		{
			"mimeType":"image/jpeg",
			"name":"Frame_normal",
			"uri":"textures/Frame_normal.jpg"
		},
		{
			"mimeType":"image/png",
			"name":"Frame_metallicRoughness",
			"uri":"textures/Frame_metallicRoughness.png"
		},
		{
			"mimeType":"image/jpeg",
			"name":"Frame_baseColor",
			"uri":"textures/Frame_baseColor.jpg"
		},
		{
			"mimeType":"image/png",
			"name":"Glass_metallicRoughness",
			"uri":"textures/Glass_metallicRoughness.png"
		}
	],
	"accessors":[
		{
			"bufferView":0,
			"componentType":5126,
			"count":240,
			"max":[
				0,
				0.10999976843595505,
				0
			],
			"min":[
				-0.9000000953674316,
				-0.03000006079673767,
				-0.6500000953674316
			],
			"type":"VEC3"
		},
		{
			"bufferView":1,
			"componentType":5126,
			"count":240,
			"type":"VEC3"
		},
		{
			"bufferView":2,
			"componentType":5126,
			"count":240,
			"type":"VEC2"
		},
		{
			"bufferView":3,
			"componentType":5126,
			"count":240,
			"type":"VEC2"
		},
		{
			"bufferView":4,
			"componentType":5126,
			"count":240,
			"type":"VEC2"
		},
		{
			"bufferView":5,
			"componentType":5126,
			"count":240,
			"type":"VEC2"
		},
		{
			"bufferView":6,
			"componentType":5126,
			"count":240,
			"type":"VEC4"
		},
		{
			"bufferView":7,
			"componentType":5123,
			"count":360,
			"type":"SCALAR"
		},
		{
			"bufferView":8,
			"componentType":5126,
			"count":12,
			"max":[
				-0.04499995708465576,
				0.08517931401729584,
				-0.04500007629394531
			],
			"min":[
				-0.850334882736206,
				-0.02999989688396454,
				-0.6050002574920654
			],
			"type":"VEC3"
		},
		{
			"bufferView":9,
			"componentType":5126,
			"count":12,
			"type":"VEC3"
		},
		{
			"bufferView":10,
			"componentType":5126,
			"count":12,
			"type":"VEC2"
		},
		{
			"bufferView":11,
			"componentType":5126,
			"count":12,
			"type":"VEC2"
		},
		{
			"bufferView":12,
			"componentType":5126,
			"count":12,
			"type":"VEC4"
		},
		{
			"bufferView":13,
			"componentType":5123,
			"count":18,
			"type":"SCALAR"
		}
	],
	"bufferViews":[
		{
			"buffer":0,
			"byteLength":2880,
			"byteOffset":0,
			"target":34962
		},
		{
			"buffer":0,
			"byteLength":2880,
			"byteOffset":2880,
			"target":34962
		},
		{
			"buffer":0,
			"byteLength":1920,
			"byteOffset":5760,
			"target":34962
		},
		{
			"buffer":0,
			"byteLength":1920,
			"byteOffset":7680,
			"target":34962
		},
		{
			"buffer":0,
			"byteLength":1920,
			"byteOffset":9600,
			"target":34962
		},
		{
			"buffer":0,
			"byteLength":1920,
			"byteOffset":11520,
			"target":34962
		},
		{
			"buffer":0,
			"byteLength":3840,
			"byteOffset":13440,
			"target":34962
		},
		{
			"buffer":0,
			"byteLength":720,
			"byteOffset":17280,
			"target":34963
		},
		{
			"buffer":0,
			"byteLength":144,
			"byteOffset":18000,
			"target":34962
		},
		{
			"buffer":0,
			"byteLength":144,
			"byteOffset":18144,
			"target":34962
		},
		{
			"buffer":0,
			"byteLength":96,
			"byteOffset":18288,
			"target":34962
		},
		{
			"buffer":0,
			"byteLength":96,
			"byteOffset":18384,
			"target":34962
		},
		{
			"buffer":0,
			"byteLength":192,
			"byteOffset":18480,
			"target":34962
		},
		{
			"buffer":0,
			"byteLength":36,
			"byteOffset":18672,
			"target":34963
		}
	],
	"samplers":[
		{
			"magFilter":9729,
			"minFilter":9987
		}
	],
	"buffers":[
		{
			"byteLength":18708,
			"uri":"window_001_001_26.bin"
		}
	]
}
