{
	"asset":{
		"generator":"Khronos glTF Blender I/O v4.4.56",
		"version":"2.0"
	},
	"extensionsUsed":[
		"KHR_materials_specular"
	],
	"scene":0,
	"scenes":[
		{
			"name":"Scene",
			"nodes":[
				1
			]
		}
	],
	"nodes":[
		{
			"mesh":0,
			"name":"Object_24"
		},
		{
			"children":[
				0
			],
			"name":"Window_002.001_7"
		}
	],
	"materials":[
		{
			"doubleSided":true,
			"extensions":{
				"KHR_materials_specular":{
					"specularFactor":0.25
				}
			},
			"name":"Concrete",
			"normalTexture":{
				"index":0,
				"texCoord":2
			},
			"occlusionTexture":{
				"index":1
			},
			"pbrMetallicRoughness":{
				"baseColorTexture":{
					"index":2
				},
				"metallicFactor":0,
				"metallicRoughnessTexture":{
					"index":1,
					"texCoord":1
				}
			}
		}
	],
	"meshes":[
		{
			"name":"Object_13",
			"primitives":[
				{
					"attributes":{
						"POSITION":0,
						"NORMAL":1,
						"TEXCOORD_0":2,
						"TEXCOORD_1":3,
						"TEXCOORD_2":4,
						"TEXCOORD_3":5,
						"TANGENT":6
					},
					"indices":7,
					"material":0
				}
			]
		}
	],
	"textures":[
		{
			"sampler":0,
			"source":0
		},
		{
			"sampler":0,
			"source":1
		},
		{
			"sampler":0,
			"source":2
		}
	],
	"images":[
		{
			"mimeType":"image/jpeg",
			"name":"Concrete_normal",
			"uri":"textures/Concrete_normal.jpg"
		},
		{
			"mimeType":"image/png",
			"name":"Concrete_metallicRoughness",
			"uri":"textures/Concrete_metallicRoughness.png"
		},
		{
			"mimeType":"image/jpeg",
			"name":"Concrete_baseColor",
			"uri":"textures/Concrete_baseColor.jpg"
		}
	],
	"accessors":[
		{
			"bufferView":0,
			"componentType":5126,
			"count":60,
			"max":[
				0.49999988079071045,
				2.200000047683716,
				0.09999998658895493
			],
			"min":[
				-0.10000045597553253,
				-8.742300217079446e-09,
				-0.5
			],
			"type":"VEC3"
		},
		{
			"bufferView":1,
			"componentType":5126,
			"count":60,
			"type":"VEC3"
		},
		{
			"bufferView":2,
			"componentType":5126,
			"count":60,
			"type":"VEC2"
		},
		{
			"bufferView":3,
			"componentType":5126,
			"count":60,
			"type":"VEC2"
		},
		{
			"bufferView":4,
			"componentType":5126,
			"count":60,
			"type":"VEC2"
		},
		{
			"bufferView":5,
			"componentType":5126,
			"count":60,
			"type":"VEC2"
		},
		{
			"bufferView":6,
			"componentType":5126,
			"count":60,
			"type":"VEC4"
		},
		{
			"bufferView":7,
			"componentType":5123,
			"count":96,
			"type":"SCALAR"
		}
	],
	"bufferViews":[
		{
			"buffer":0,
			"byteLength":720,
			"byteOffset":0,
			"target":34962
		},
		{
			"buffer":0,
			"byteLength":720,
			"byteOffset":720,
			"target":34962
		},
		{
			"buffer":0,
			"byteLength":480,
			"byteOffset":1440,
			"target":34962
		},
		{
			"buffer":0,
			"byteLength":480,
			"byteOffset":1920,
			"target":34962
		},
		{
			"buffer":0,
			"byteLength":480,
			"byteOffset":2400,
			"target":34962
		},
		{
			"buffer":0,
			"byteLength":480,
			"byteOffset":2880,
			"target":34962
		},
		{
			"buffer":0,
			"byteLength":960,
			"byteOffset":3360,
			"target":34962
		},
		{
			"buffer":0,
			"byteLength":192,
			"byteOffset":4320,
			"target":34963
		}
	],
	"samplers":[
		{
			"magFilter":9729,
			"minFilter":9987
		}
	],
	"buffers":[
		{
			"byteLength":4512,
			"uri":"window_002_001_7.bin"
		}
	]
}
