{
	"asset":{
		"generator":"Khronos glTF Blender I/O v4.4.56",
		"version":"2.0"
	},
	"extensionsUsed":[
		"KHR_materials_specular"
	],
	"scene":0,
	"scenes":[
		{
			"name":"Scene",
			"nodes":[
				1
			]
		}
	],
	"nodes":[
		{
			"mesh":0,
			"name":"Object_58"
		},
		{
			"children":[
				0
			],
			"name":"Window_002.011_21",
			"rotation":[
				0.49999988079071045,
				-0.4999999403953552,
				0.5000003576278687,
				0.49999988079071045
			]
		}
	],
	"materials":[
		{
			"doubleSided":true,
			"extensions":{
				"KHR_materials_specular":{
					"specularFactor":0.25
				}
			},
			"name":"Concrete",
			"normalTexture":{
				"index":0,
				"texCoord":2
			},
			"occlusionTexture":{
				"index":1
			},
			"pbrMetallicRoughness":{
				"baseColorTexture":{
					"index":2
				},
				"metallicFactor":0,
				"metallicRoughnessTexture":{
					"index":1,
					"texCoord":1
				}
			}
		}
	],
	"meshes":[
		{
			"name":"Object_35",
			"primitives":[
				{
					"attributes":{
						"POSITION":0,
						"NORMAL":1,
						"TEXCOORD_0":2,
						"TEXCOORD_1":3,
						"TEXCOORD_2":4,
						"TEXCOORD_3":5,
						"TANGENT":6
					},
					"indices":7,
					"material":0
				}
			]
		}
	],
	"textures":[
		{
			"sampler":0,
			"source":0
		},
		{
			"sampler":0,
			"source":1
		},
		{
			"sampler":0,
			"source":2
		}
	],
	"images":[
		{
			"mimeType":"image/jpeg",
			"name":"Concrete_normal",
			"uri":"textures/Concrete_normal.jpg"
		},
		{
			"mimeType":"image/png",
			"name":"Concrete_metallicRoughness",
			"uri":"textures/Concrete_metallicRoughness.png"
		},
		{
			"mimeType":"image/jpeg",
			"name":"Concrete_baseColor",
			"uri":"textures/Concrete_baseColor.jpg"
		}
	],
	"accessors":[
		{
			"bufferView":0,
			"componentType":5126,
			"count":12,
			"max":[
				0.10000007599592209,
				5.960464477539063e-08,
				7.54979545547485e-09
			],
			"min":[
				0,
				-0.39999985694885254,
				-2.200000047683716
			],
			"type":"VEC3"
		},
		{
			"bufferView":1,
			"componentType":5126,
			"count":12,
			"type":"VEC3"
		},
		{
			"bufferView":2,
			"componentType":5126,
			"count":12,
			"type":"VEC2"
		},
		{
			"bufferView":3,
			"componentType":5126,
			"count":12,
			"type":"VEC2"
		},
		{
			"bufferView":4,
			"componentType":5126,
			"count":12,
			"type":"VEC2"
		},
		{
			"bufferView":5,
			"componentType":5126,
			"count":12,
			"type":"VEC2"
		},
		{
			"bufferView":6,
			"componentType":5126,
			"count":12,
			"type":"VEC4"
		},
		{
			"bufferView":7,
			"componentType":5123,
			"count":18,
			"type":"SCALAR"
		}
	],
	"bufferViews":[
		{
			"buffer":0,
			"byteLength":144,
			"byteOffset":0,
			"target":34962
		},
		{
			"buffer":0,
			"byteLength":144,
			"byteOffset":144,
			"target":34962
		},
		{
			"buffer":0,
			"byteLength":96,
			"byteOffset":288,
			"target":34962
		},
		{
			"buffer":0,
			"byteLength":96,
			"byteOffset":384,
			"target":34962
		},
		{
			"buffer":0,
			"byteLength":96,
			"byteOffset":480,
			"target":34962
		},
		{
			"buffer":0,
			"byteLength":96,
			"byteOffset":576,
			"target":34962
		},
		{
			"buffer":0,
			"byteLength":192,
			"byteOffset":672,
			"target":34962
		},
		{
			"buffer":0,
			"byteLength":36,
			"byteOffset":864,
			"target":34963
		}
	],
	"samplers":[
		{
			"magFilter":9729,
			"minFilter":9987
		}
	],
	"buffers":[
		{
			"byteLength":900,
			"uri":"window_002_011_21.bin"
		}
	]
}
