{
	"asset":{
		"generator":"Khronos glTF Blender I/O v4.4.56",
		"version":"2.0"
	},
	"extensionsUsed":[
		"KHR_materials_specular"
	],
	"scene":0,
	"scenes":[
		{
			"name":"Scene",
			"nodes":[
				4
			]
		}
	],
	"nodes":[
		{
			"mesh":0,
			"name":"Object_39"
		},
		{
			"mesh":1,
			"name":"Object_40"
		},
		{
			"mesh":2,
			"name":"Object_41"
		},
		{
			"mesh":3,
			"name":"Object_42"
		},
		{
			"children":[
				0,
				1,
				2,
				3
			],
			"name":"Window_002.015_14"
		}
	],
	"materials":[
		{
			"doubleSided":true,
			"extensions":{
				"KHR_materials_specular":{
					"specularFactor":0.25
				}
			},
			"name":"Concrete",
			"normalTexture":{
				"index":0,
				"texCoord":2
			},
			"occlusionTexture":{
				"index":1
			},
			"pbrMetallicRoughness":{
				"baseColorTexture":{
					"index":2
				},
				"metallicFactor":0,
				"metallicRoughnessTexture":{
					"index":1,
					"texCoord":1
				}
			}
		},
		{
			"doubleSided":true,
			"extensions":{
				"KHR_materials_specular":{
					"specularFactor":0.25
				}
			},
			"name":"Bricks",
			"normalTexture":{
				"index":3
			},
			"occlusionTexture":{
				"index":4
			},
			"pbrMetallicRoughness":{
				"baseColorTexture":{
					"index":5
				},
				"metallicFactor":0,
				"metallicRoughnessTexture":{
					"index":4
				}
			}
		},
		{
			"doubleSided":true,
			"extensions":{
				"KHR_materials_specular":{
					"specularFactor":0.25
				}
			},
			"name":"Frame",
			"normalTexture":{
				"index":6,
				"texCoord":2
			},
			"occlusionTexture":{
				"index":7
			},
			"pbrMetallicRoughness":{
				"baseColorTexture":{
					"index":8
				},
				"metallicFactor":0,
				"metallicRoughnessTexture":{
					"index":7,
					"texCoord":1
				}
			}
		},
		{
			"doubleSided":true,
			"name":"Glass",
			"pbrMetallicRoughness":{
				"baseColorFactor":[
					0.009999999776482582,
					0.009999999776482582,
					0.009999999776482582,
					1
				],
				"metallicFactor":0,
				"metallicRoughnessTexture":{
					"index":9
				}
			}
		}
	],
	"meshes":[
		{
			"name":"Object_21",
			"primitives":[
				{
					"attributes":{
						"POSITION":0,
						"NORMAL":1,
						"TEXCOORD_0":2,
						"TEXCOORD_1":3,
						"TEXCOORD_2":4,
						"TEXCOORD_3":5,
						"TANGENT":6
					},
					"indices":7,
					"material":0
				}
			]
		},
		{
			"name":"Object_22",
			"primitives":[
				{
					"attributes":{
						"POSITION":8,
						"NORMAL":9,
						"TEXCOORD_0":10,
						"TEXCOORD_1":11,
						"TEXCOORD_2":12,
						"TEXCOORD_3":13,
						"TANGENT":14
					},
					"indices":15,
					"material":1
				}
			]
		},
		{
			"name":"Object_23",
			"primitives":[
				{
					"attributes":{
						"POSITION":16,
						"NORMAL":17,
						"TEXCOORD_0":18,
						"TEXCOORD_1":19,
						"TEXCOORD_2":20,
						"TEXCOORD_3":21,
						"TANGENT":22
					},
					"indices":23,
					"material":2
				}
			]
		},
		{
			"name":"Object_24",
			"primitives":[
				{
					"attributes":{
						"POSITION":24,
						"NORMAL":25,
						"TEXCOORD_0":26,
						"TEXCOORD_1":27,
						"TANGENT":28
					},
					"indices":29,
					"material":3
				}
			]
		}
	],
	"textures":[
		{
			"sampler":0,
			"source":0
		},
		{
			"sampler":0,
			"source":1
		},
		{
			"sampler":0,
			"source":2
		},
		{
			"sampler":0,
			"source":3
		},
		{
			"sampler":0,
			"source":4
		},
		{
			"sampler":0,
			"source":5
		},
		{
			"sampler":0,
			"source":6
		},
		{
			"sampler":0,
			"source":7
		},
		{
			"sampler":0,
			"source":8
		},
		{
			"sampler":0,
			"source":9
		}
	],
	"images":[
		{
			"mimeType":"image/jpeg",
			"name":"Concrete_normal",
			"uri":"textures/Concrete_normal.jpg"
		},
		{
			"mimeType":"image/png",
			"name":"Concrete_metallicRoughness",
			"uri":"textures/Concrete_metallicRoughness.png"
		},
		{
			"mimeType":"image/jpeg",
			"name":"Concrete_baseColor",
			"uri":"textures/Concrete_baseColor.jpg"
		},
		{
			"mimeType":"image/jpeg",
			"name":"Bricks_normal",
			"uri":"textures/Bricks_normal.jpg"
		},
		{
			"mimeType":"image/png",
			"name":"Bricks_metallicRoughness",
			"uri":"textures/Bricks_metallicRoughness.png"
		},
		{
			"mimeType":"image/jpeg",
			"name":"Bricks_baseColor",
			"uri":"textures/Bricks_baseColor.jpg"
		},
		{
			"mimeType":"image/jpeg",
			"name":"Frame_normal",
			"uri":"textures/Frame_normal.jpg"
		},
		{
			"mimeType":"image/png",
			"name":"Frame_metallicRoughness",
			"uri":"textures/Frame_metallicRoughness.png"
		},
		{
			"mimeType":"image/jpeg",
			"name":"Frame_baseColor",
			"uri":"textures/Frame_baseColor.jpg"
		},
		{
			"mimeType":"image/png",
			"name":"Glass_metallicRoughness",
			"uri":"textures/Glass_metallicRoughness.png"
		}
	],
	"accessors":[
		{
			"bufferView":0,
			"componentType":5126,
			"count":20,
			"max":[
				1.7000000476837158,
				0.9000000357627869,
				0.07499996572732925
			],
			"min":[
				0.5,
				0.800000011920929,
				-6.794811469035267e-08
			],
			"type":"VEC3"
		},
		{
			"bufferView":1,
			"componentType":5126,
			"count":20,
			"type":"VEC3"
		},
		{
			"bufferView":2,
			"componentType":5126,
			"count":20,
			"type":"VEC2"
		},
		{
			"bufferView":3,
			"componentType":5126,
			"count":20,
			"type":"VEC2"
		},
		{
			"bufferView":4,
			"componentType":5126,
			"count":20,
			"type":"VEC2"
		},
		{
			"bufferView":5,
			"componentType":5126,
			"count":20,
			"type":"VEC2"
		},
		{
			"bufferView":6,
			"componentType":5126,
			"count":20,
			"type":"VEC4"
		},
		{
			"bufferView":7,
			"componentType":5123,
			"count":30,
			"type":"SCALAR"
		},
		{
			"bufferView":8,
			"componentType":5126,
			"count":54,
			"max":[
				2.200000047683716,
				2.200000047683716,
				0
			],
			"min":[
				0,
				0,
				-0.10000012069940567
			],
			"type":"VEC3"
		},
		{
			"bufferView":9,
			"componentType":5126,
			"count":54,
			"type":"VEC3"
		},
		{
			"bufferView":10,
			"componentType":5126,
			"count":54,
			"type":"VEC2"
		},
		{
			"bufferView":11,
			"componentType":5126,
			"count":54,
			"type":"VEC2"
		},
		{
			"bufferView":12,
			"componentType":5126,
			"count":54,
			"type":"VEC2"
		},
		{
			"bufferView":13,
			"componentType":5126,
			"count":54,
			"type":"VEC2"
		},
		{
			"bufferView":14,
			"componentType":5126,
			"count":54,
			"type":"VEC4"
		},
		{
			"bufferView":15,
			"componentType":5123,
			"count":84,
			"type":"SCALAR"
		},
		{
			"bufferView":16,
			"componentType":5126,
			"count":320,
			"max":[
				1.7000000476837158,
				1.8000003099441528,
				-0.02423403412103653
			],
			"min":[
				0.49999985098838806,
				0.9000000953674316,
				-0.14999999105930328
			],
			"type":"VEC3"
		},
		{
			"bufferView":17,
			"componentType":5126,
			"count":320,
			"type":"VEC3"
		},
		{
			"bufferView":18,
			"componentType":5126,
			"count":320,
			"type":"VEC2"
		},
		{
			"bufferView":19,
			"componentType":5126,
			"count":320,
			"type":"VEC2"
		},
		{
			"bufferView":20,
			"componentType":5126,
			"count":320,
			"type":"VEC2"
		},
		{
			"bufferView":21,
			"componentType":5126,
			"count":320,
			"type":"VEC2"
		},
		{
			"bufferView":22,
			"componentType":5126,
			"count":320,
			"type":"VEC4"
		},
		{
			"bufferView":23,
			"componentType":5123,
			"count":480,
			"type":"SCALAR"
		},
		{
			"bufferView":24,
			"componentType":5126,
			"count":16,
			"max":[
				1.6450001001358032,
				1.737917423248291,
				-0.0592651404440403
			],
			"min":[
				0.5549997687339783,
				0.955000102519989,
				-0.14999999105930328
			],
			"type":"VEC3"
		},
		{
			"bufferView":25,
			"componentType":5126,
			"count":16,
			"type":"VEC3"
		},
		{
			"bufferView":26,
			"componentType":5126,
			"count":16,
			"type":"VEC2"
		},
		{
			"bufferView":27,
			"componentType":5126,
			"count":16,
			"type":"VEC2"
		},
		{
			"bufferView":28,
			"componentType":5126,
			"count":16,
			"type":"VEC4"
		},
		{
			"bufferView":29,
			"componentType":5123,
			"count":24,
			"type":"SCALAR"
		}
	],
	"bufferViews":[
		{
			"buffer":0,
			"byteLength":240,
			"byteOffset":0,
			"target":34962
		},
		{
			"buffer":0,
			"byteLength":240,
			"byteOffset":240,
			"target":34962
		},
		{
			"buffer":0,
			"byteLength":160,
			"byteOffset":480,
			"target":34962
		},
		{
			"buffer":0,
			"byteLength":160,
			"byteOffset":640,
			"target":34962
		},
		{
			"buffer":0,
			"byteLength":160,
			"byteOffset":800,
			"target":34962
		},
		{
			"buffer":0,
			"byteLength":160,
			"byteOffset":960,
			"target":34962
		},
		{
			"buffer":0,
			"byteLength":320,
			"byteOffset":1120,
			"target":34962
		},
		{
			"buffer":0,
			"byteLength":60,
			"byteOffset":1440,
			"target":34963
		},
		{
			"buffer":0,
			"byteLength":648,
			"byteOffset":1500,
			"target":34962
		},
		{
			"buffer":0,
			"byteLength":648,
			"byteOffset":2148,
			"target":34962
		},
		{
			"buffer":0,
			"byteLength":432,
			"byteOffset":2796,
			"target":34962
		},
		{
			"buffer":0,
			"byteLength":432,
			"byteOffset":3228,
			"target":34962
		},
		{
			"buffer":0,
			"byteLength":432,
			"byteOffset":3660,
			"target":34962
		},
		{
			"buffer":0,
			"byteLength":432,
			"byteOffset":4092,
			"target":34962
		},
		{
			"buffer":0,
			"byteLength":864,
			"byteOffset":4524,
			"target":34962
		},
		{
			"buffer":0,
			"byteLength":168,
			"byteOffset":5388,
			"target":34963
		},
		{
			"buffer":0,
			"byteLength":3840,
			"byteOffset":5556,
			"target":34962
		},
		{
			"buffer":0,
			"byteLength":3840,
			"byteOffset":9396,
			"target":34962
		},
		{
			"buffer":0,
			"byteLength":2560,
			"byteOffset":13236,
			"target":34962
		},
		{
			"buffer":0,
			"byteLength":2560,
			"byteOffset":15796,
			"target":34962
		},
		{
			"buffer":0,
			"byteLength":2560,
			"byteOffset":18356,
			"target":34962
		},
		{
			"buffer":0,
			"byteLength":2560,
			"byteOffset":20916,
			"target":34962
		},
		{
			"buffer":0,
			"byteLength":5120,
			"byteOffset":23476,
			"target":34962
		},
		{
			"buffer":0,
			"byteLength":960,
			"byteOffset":28596,
			"target":34963
		},
		{
			"buffer":0,
			"byteLength":192,
			"byteOffset":29556,
			"target":34962
		},
		{
			"buffer":0,
			"byteLength":192,
			"byteOffset":29748,
			"target":34962
		},
		{
			"buffer":0,
			"byteLength":128,
			"byteOffset":29940,
			"target":34962
		},
		{
			"buffer":0,
			"byteLength":128,
			"byteOffset":30068,
			"target":34962
		},
		{
			"buffer":0,
			"byteLength":256,
			"byteOffset":30196,
			"target":34962
		},
		{
			"buffer":0,
			"byteLength":48,
			"byteOffset":30452,
			"target":34963
		}
	],
	"samplers":[
		{
			"magFilter":9729,
			"minFilter":9987
		}
	],
	"buffers":[
		{
			"byteLength":30500,
			"uri":"window_002_015_14.bin"
		}
	]
}
