{
	"asset":{
		"generator":"Khronos glTF Blender I/O v4.4.56",
		"version":"2.0"
	},
	"extensionsUsed":[
		"KHR_materials_specular"
	],
	"scene":0,
	"scenes":[
		{
			"name":"Scene",
			"nodes":[
				4
			]
		}
	],
	"nodes":[
		{
			"mesh":0,
			"name":"Object_4"
		},
		{
			"mesh":1,
			"name":"Object_5"
		},
		{
			"mesh":2,
			"name":"Object_6"
		},
		{
			"mesh":3,
			"name":"Object_7"
		},
		{
			"children":[
				0,
				1,
				2,
				3
			],
			"name":"Window_002_0"
		}
	],
	"materials":[
		{
			"doubleSided":true,
			"extensions":{
				"KHR_materials_specular":{
					"specularFactor":0.25
				}
			},
			"name":"Bricks",
			"normalTexture":{
				"index":0
			},
			"occlusionTexture":{
				"index":1
			},
			"pbrMetallicRoughness":{
				"baseColorTexture":{
					"index":2
				},
				"metallicFactor":0,
				"metallicRoughnessTexture":{
					"index":1
				}
			}
		},
		{
			"doubleSided":true,
			"extensions":{
				"KHR_materials_specular":{
					"specularFactor":0.25
				}
			},
			"name":"Concrete",
			"normalTexture":{
				"index":3,
				"texCoord":2
			},
			"occlusionTexture":{
				"index":4
			},
			"pbrMetallicRoughness":{
				"baseColorTexture":{
					"index":5
				},
				"metallicFactor":0,
				"metallicRoughnessTexture":{
					"index":4,
					"texCoord":1
				}
			}
		},
		{
			"doubleSided":true,
			"extensions":{
				"KHR_materials_specular":{
					"specularFactor":0.25
				}
			},
			"name":"Frame",
			"normalTexture":{
				"index":6,
				"texCoord":2
			},
			"occlusionTexture":{
				"index":7
			},
			"pbrMetallicRoughness":{
				"baseColorTexture":{
					"index":8
				},
				"metallicFactor":0,
				"metallicRoughnessTexture":{
					"index":7,
					"texCoord":1
				}
			}
		},
		{
			"doubleSided":true,
			"name":"Glass",
			"pbrMetallicRoughness":{
				"baseColorFactor":[
					0.009999999776482582,
					0.009999999776482582,
					0.009999999776482582,
					1
				],
				"metallicFactor":0,
				"metallicRoughnessTexture":{
					"index":9
				}
			}
		}
	],
	"meshes":[
		{
			"name":"Object_0",
			"primitives":[
				{
					"attributes":{
						"POSITION":0,
						"NORMAL":1,
						"TEXCOORD_0":2,
						"TEXCOORD_1":3,
						"TEXCOORD_2":4,
						"TEXCOORD_3":5,
						"TANGENT":6
					},
					"indices":7,
					"material":0
				}
			]
		},
		{
			"name":"Object_1",
			"primitives":[
				{
					"attributes":{
						"POSITION":8,
						"NORMAL":9,
						"TEXCOORD_0":10,
						"TEXCOORD_1":11,
						"TEXCOORD_2":12,
						"TEXCOORD_3":13,
						"TANGENT":14
					},
					"indices":15,
					"material":1
				}
			]
		},
		{
			"name":"Object_2",
			"primitives":[
				{
					"attributes":{
						"POSITION":16,
						"NORMAL":17,
						"TEXCOORD_0":18,
						"TEXCOORD_1":19,
						"TEXCOORD_2":20,
						"TEXCOORD_3":21,
						"TANGENT":22
					},
					"indices":23,
					"material":2
				}
			]
		},
		{
			"name":"Object_3",
			"primitives":[
				{
					"attributes":{
						"POSITION":24,
						"NORMAL":25,
						"TEXCOORD_0":26,
						"TEXCOORD_1":27,
						"TANGENT":28
					},
					"indices":29,
					"material":3
				}
			]
		}
	],
	"textures":[
		{
			"sampler":0,
			"source":0
		},
		{
			"sampler":0,
			"source":1
		},
		{
			"sampler":0,
			"source":2
		},
		{
			"sampler":0,
			"source":3
		},
		{
			"sampler":0,
			"source":4
		},
		{
			"sampler":0,
			"source":5
		},
		{
			"sampler":0,
			"source":6
		},
		{
			"sampler":0,
			"source":7
		},
		{
			"sampler":0,
			"source":8
		},
		{
			"sampler":0,
			"source":9
		}
	],
	"images":[
		{
			"mimeType":"image/jpeg",
			"name":"Bricks_normal",
			"uri":"textures/Bricks_normal.jpg"
		},
		{
			"mimeType":"image/png",
			"name":"Bricks_metallicRoughness",
			"uri":"textures/Bricks_metallicRoughness.png"
		},
		{
			"mimeType":"image/jpeg",
			"name":"Bricks_baseColor",
			"uri":"textures/Bricks_baseColor.jpg"
		},
		{
			"mimeType":"image/jpeg",
			"name":"Concrete_normal",
			"uri":"textures/Concrete_normal.jpg"
		},
		{
			"mimeType":"image/png",
			"name":"Concrete_metallicRoughness",
			"uri":"textures/Concrete_metallicRoughness.png"
		},
		{
			"mimeType":"image/jpeg",
			"name":"Concrete_baseColor",
			"uri":"textures/Concrete_baseColor.jpg"
		},
		{
			"mimeType":"image/jpeg",
			"name":"Frame_normal",
			"uri":"textures/Frame_normal.jpg"
		},
		{
			"mimeType":"image/png",
			"name":"Frame_metallicRoughness",
			"uri":"textures/Frame_metallicRoughness.png"
		},
		{
			"mimeType":"image/jpeg",
			"name":"Frame_baseColor",
			"uri":"textures/Frame_baseColor.jpg"
		},
		{
			"mimeType":"image/png",
			"name":"Glass_metallicRoughness",
			"uri":"textures/Glass_metallicRoughness.png"
		}
	],
	"accessors":[
		{
			"bufferView":0,
			"componentType":5126,
			"count":74,
			"max":[
				2.200000047683716,
				2.200000047683716,
				1.0418712292903365e-07
			],
			"min":[
				0,
				0,
				-0.10000012069940567
			],
			"type":"VEC3"
		},
		{
			"bufferView":1,
			"componentType":5126,
			"count":74,
			"type":"VEC3"
		},
		{
			"bufferView":2,
			"componentType":5126,
			"count":74,
			"type":"VEC2"
		},
		{
			"bufferView":3,
			"componentType":5126,
			"count":74,
			"type":"VEC2"
		},
		{
			"bufferView":4,
			"componentType":5126,
			"count":74,
			"type":"VEC2"
		},
		{
			"bufferView":5,
			"componentType":5126,
			"count":74,
			"type":"VEC2"
		},
		{
			"bufferView":6,
			"componentType":5126,
			"count":74,
			"type":"VEC4"
		},
		{
			"bufferView":7,
			"componentType":5123,
			"count":120,
			"type":"SCALAR"
		},
		{
			"bufferView":8,
			"componentType":5126,
			"count":42,
			"max":[
				1.7999999523162842,
				1.899999976158142,
				0.10000000894069672
			],
			"min":[
				0.40000009536743164,
				1.8000000715255737,
				-1.5099581673894136e-07
			],
			"type":"VEC3"
		},
		{
			"bufferView":9,
			"componentType":5126,
			"count":42,
			"type":"VEC3"
		},
		{
			"bufferView":10,
			"componentType":5126,
			"count":42,
			"type":"VEC2"
		},
		{
			"bufferView":11,
			"componentType":5126,
			"count":42,
			"type":"VEC2"
		},
		{
			"bufferView":12,
			"componentType":5126,
			"count":42,
			"type":"VEC2"
		},
		{
			"bufferView":13,
			"componentType":5126,
			"count":42,
			"type":"VEC2"
		},
		{
			"bufferView":14,
			"componentType":5126,
			"count":42,
			"type":"VEC4"
		},
		{
			"bufferView":15,
			"componentType":5123,
			"count":66,
			"type":"SCALAR"
		},
		{
			"bufferView":16,
			"componentType":5126,
			"count":248,
			"max":[
				1.7142856121063232,
				1.8000001907348633,
				0.015604838728904724
			],
			"min":[
				0.5142855048179626,
				0.9000000953674316,
				-0.1500001847743988
			],
			"type":"VEC3"
		},
		{
			"bufferView":17,
			"componentType":5126,
			"count":248,
			"type":"VEC3"
		},
		{
			"bufferView":18,
			"componentType":5126,
			"count":248,
			"type":"VEC2"
		},
		{
			"bufferView":19,
			"componentType":5126,
			"count":248,
			"type":"VEC2"
		},
		{
			"bufferView":20,
			"componentType":5126,
			"count":248,
			"type":"VEC2"
		},
		{
			"bufferView":21,
			"componentType":5126,
			"count":248,
			"type":"VEC2"
		},
		{
			"bufferView":22,
			"componentType":5126,
			"count":248,
			"type":"VEC4"
		},
		{
			"bufferView":23,
			"componentType":5123,
			"count":372,
			"type":"SCALAR"
		},
		{
			"bufferView":24,
			"componentType":5126,
			"count":12,
			"max":[
				1.6697968244552612,
				1.7550004720687866,
				-0.008860588073730469
			],
			"min":[
				0.558774471282959,
				0.9449998736381531,
				-0.14611788094043732
			],
			"type":"VEC3"
		},
		{
			"bufferView":25,
			"componentType":5126,
			"count":12,
			"type":"VEC3"
		},
		{
			"bufferView":26,
			"componentType":5126,
			"count":12,
			"type":"VEC2"
		},
		{
			"bufferView":27,
			"componentType":5126,
			"count":12,
			"type":"VEC2"
		},
		{
			"bufferView":28,
			"componentType":5126,
			"count":12,
			"type":"VEC4"
		},
		{
			"bufferView":29,
			"componentType":5123,
			"count":18,
			"type":"SCALAR"
		}
	],
	"bufferViews":[
		{
			"buffer":0,
			"byteLength":888,
			"byteOffset":0,
			"target":34962
		},
		{
			"buffer":0,
			"byteLength":888,
			"byteOffset":888,
			"target":34962
		},
		{
			"buffer":0,
			"byteLength":592,
			"byteOffset":1776,
			"target":34962
		},
		{
			"buffer":0,
			"byteLength":592,
			"byteOffset":2368,
			"target":34962
		},
		{
			"buffer":0,
			"byteLength":592,
			"byteOffset":2960,
			"target":34962
		},
		{
			"buffer":0,
			"byteLength":592,
			"byteOffset":3552,
			"target":34962
		},
		{
			"buffer":0,
			"byteLength":1184,
			"byteOffset":4144,
			"target":34962
		},
		{
			"buffer":0,
			"byteLength":240,
			"byteOffset":5328,
			"target":34963
		},
		{
			"buffer":0,
			"byteLength":504,
			"byteOffset":5568,
			"target":34962
		},
		{
			"buffer":0,
			"byteLength":504,
			"byteOffset":6072,
			"target":34962
		},
		{
			"buffer":0,
			"byteLength":336,
			"byteOffset":6576,
			"target":34962
		},
		{
			"buffer":0,
			"byteLength":336,
			"byteOffset":6912,
			"target":34962
		},
		{
			"buffer":0,
			"byteLength":336,
			"byteOffset":7248,
			"target":34962
		},
		{
			"buffer":0,
			"byteLength":336,
			"byteOffset":7584,
			"target":34962
		},
		{
			"buffer":0,
			"byteLength":672,
			"byteOffset":7920,
			"target":34962
		},
		{
			"buffer":0,
			"byteLength":132,
			"byteOffset":8592,
			"target":34963
		},
		{
			"buffer":0,
			"byteLength":2976,
			"byteOffset":8724,
			"target":34962
		},
		{
			"buffer":0,
			"byteLength":2976,
			"byteOffset":11700,
			"target":34962
		},
		{
			"buffer":0,
			"byteLength":1984,
			"byteOffset":14676,
			"target":34962
		},
		{
			"buffer":0,
			"byteLength":1984,
			"byteOffset":16660,
			"target":34962
		},
		{
			"buffer":0,
			"byteLength":1984,
			"byteOffset":18644,
			"target":34962
		},
		{
			"buffer":0,
			"byteLength":1984,
			"byteOffset":20628,
			"target":34962
		},
		{
			"buffer":0,
			"byteLength":3968,
			"byteOffset":22612,
			"target":34962
		},
		{
			"buffer":0,
			"byteLength":744,
			"byteOffset":26580,
			"target":34963
		},
		{
			"buffer":0,
			"byteLength":144,
			"byteOffset":27324,
			"target":34962
		},
		{
			"buffer":0,
			"byteLength":144,
			"byteOffset":27468,
			"target":34962
		},
		{
			"buffer":0,
			"byteLength":96,
			"byteOffset":27612,
			"target":34962
		},
		{
			"buffer":0,
			"byteLength":96,
			"byteOffset":27708,
			"target":34962
		},
		{
			"buffer":0,
			"byteLength":192,
			"byteOffset":27804,
			"target":34962
		},
		{
			"buffer":0,
			"byteLength":36,
			"byteOffset":27996,
			"target":34963
		}
	],
	"samplers":[
		{
			"magFilter":9729,
			"minFilter":9987
		}
	],
	"buffers":[
		{
			"byteLength":28032,
			"uri":"window_002_0.bin"
		}
	]
}
