{
	"asset":{
		"generator":"Khronos glTF Blender I/O v4.4.56",
		"version":"2.0"
	},
	"extensionsUsed":[
		"KHR_materials_specular"
	],
	"scene":0,
	"scenes":[
		{
			"name":"Scene",
			"nodes":[
				2
			]
		}
	],
	"nodes":[
		{
			"mesh":0,
			"name":"Object_34"
		},
		{
			"mesh":1,
			"name":"Object_35"
		},
		{
			"children":[
				0,
				1
			],
			"name":"Window_002.007_12"
		}
	],
	"materials":[
		{
			"doubleSided":true,
			"extensions":{
				"KHR_materials_specular":{
					"specularFactor":0.25
				}
			},
			"name":"Bricks",
			"normalTexture":{
				"index":0
			},
			"occlusionTexture":{
				"index":1
			},
			"pbrMetallicRoughness":{
				"baseColorTexture":{
					"index":2
				},
				"metallicFactor":0,
				"metallicRoughnessTexture":{
					"index":1
				}
			}
		},
		{
			"doubleSided":true,
			"extensions":{
				"KHR_materials_specular":{
					"specularFactor":0.25
				}
			},
			"name":"Concrete",
			"normalTexture":{
				"index":3,
				"texCoord":2
			},
			"occlusionTexture":{
				"index":4
			},
			"pbrMetallicRoughness":{
				"baseColorTexture":{
					"index":5
				},
				"metallicFactor":0,
				"metallicRoughnessTexture":{
					"index":4,
					"texCoord":1
				}
			}
		}
	],
	"meshes":[
		{
			"name":"Object_18",
			"primitives":[
				{
					"attributes":{
						"POSITION":0,
						"NORMAL":1,
						"TEXCOORD_0":2,
						"TEXCOORD_1":3,
						"TEXCOORD_2":4,
						"TEXCOORD_3":5,
						"TANGENT":6
					},
					"indices":7,
					"material":0
				}
			]
		},
		{
			"name":"Object_19",
			"primitives":[
				{
					"attributes":{
						"POSITION":8,
						"NORMAL":9,
						"TEXCOORD_0":10,
						"TEXCOORD_1":11,
						"TEXCOORD_2":12,
						"TEXCOORD_3":13,
						"TANGENT":14
					},
					"indices":15,
					"material":1
				}
			]
		}
	],
	"textures":[
		{
			"sampler":0,
			"source":0
		},
		{
			"sampler":0,
			"source":1
		},
		{
			"sampler":0,
			"source":2
		},
		{
			"sampler":0,
			"source":3
		},
		{
			"sampler":0,
			"source":4
		},
		{
			"sampler":0,
			"source":5
		}
	],
	"images":[
		{
			"mimeType":"image/jpeg",
			"name":"Bricks_normal",
			"uri":"textures/Bricks_normal.jpg"
		},
		{
			"mimeType":"image/png",
			"name":"Bricks_metallicRoughness",
			"uri":"textures/Bricks_metallicRoughness.png"
		},
		{
			"mimeType":"image/jpeg",
			"name":"Bricks_baseColor",
			"uri":"textures/Bricks_baseColor.jpg"
		},
		{
			"mimeType":"image/jpeg",
			"name":"Concrete_normal",
			"uri":"textures/Concrete_normal.jpg"
		},
		{
			"mimeType":"image/png",
			"name":"Concrete_metallicRoughness",
			"uri":"textures/Concrete_metallicRoughness.png"
		},
		{
			"mimeType":"image/jpeg",
			"name":"Concrete_baseColor",
			"uri":"textures/Concrete_baseColor.jpg"
		}
	],
	"accessors":[
		{
			"bufferView":0,
			"componentType":5126,
			"count":8,
			"max":[
				2.200000047683716,
				2.200000047683716,
				0
			],
			"min":[
				0,
				0,
				-1.6609538988632266e-07
			],
			"type":"VEC3"
		},
		{
			"bufferView":1,
			"componentType":5126,
			"count":8,
			"type":"VEC3"
		},
		{
			"bufferView":2,
			"componentType":5126,
			"count":8,
			"type":"VEC2"
		},
		{
			"bufferView":3,
			"componentType":5126,
			"count":8,
			"type":"VEC2"
		},
		{
			"bufferView":4,
			"componentType":5126,
			"count":8,
			"type":"VEC2"
		},
		{
			"bufferView":5,
			"componentType":5126,
			"count":8,
			"type":"VEC2"
		},
		{
			"bufferView":6,
			"componentType":5126,
			"count":8,
			"type":"VEC4"
		},
		{
			"bufferView":7,
			"componentType":5123,
			"count":12,
			"type":"SCALAR"
		},
		{
			"bufferView":8,
			"componentType":5126,
			"count":12,
			"max":[
				1.2999999523162842,
				2.200000047683716,
				0.10000007599592209
			],
			"min":[
				0.9000000357627869,
				0,
				-1.6609538988632266e-07
			],
			"type":"VEC3"
		},
		{
			"bufferView":9,
			"componentType":5126,
			"count":12,
			"type":"VEC3"
		},
		{
			"bufferView":10,
			"componentType":5126,
			"count":12,
			"type":"VEC2"
		},
		{
			"bufferView":11,
			"componentType":5126,
			"count":12,
			"type":"VEC2"
		},
		{
			"bufferView":12,
			"componentType":5126,
			"count":12,
			"type":"VEC2"
		},
		{
			"bufferView":13,
			"componentType":5126,
			"count":12,
			"type":"VEC2"
		},
		{
			"bufferView":14,
			"componentType":5126,
			"count":12,
			"type":"VEC4"
		},
		{
			"bufferView":15,
			"componentType":5123,
			"count":18,
			"type":"SCALAR"
		}
	],
	"bufferViews":[
		{
			"buffer":0,
			"byteLength":96,
			"byteOffset":0,
			"target":34962
		},
		{
			"buffer":0,
			"byteLength":96,
			"byteOffset":96,
			"target":34962
		},
		{
			"buffer":0,
			"byteLength":64,
			"byteOffset":192,
			"target":34962
		},
		{
			"buffer":0,
			"byteLength":64,
			"byteOffset":256,
			"target":34962
		},
		{
			"buffer":0,
			"byteLength":64,
			"byteOffset":320,
			"target":34962
		},
		{
			"buffer":0,
			"byteLength":64,
			"byteOffset":384,
			"target":34962
		},
		{
			"buffer":0,
			"byteLength":128,
			"byteOffset":448,
			"target":34962
		},
		{
			"buffer":0,
			"byteLength":24,
			"byteOffset":576,
			"target":34963
		},
		{
			"buffer":0,
			"byteLength":144,
			"byteOffset":600,
			"target":34962
		},
		{
			"buffer":0,
			"byteLength":144,
			"byteOffset":744,
			"target":34962
		},
		{
			"buffer":0,
			"byteLength":96,
			"byteOffset":888,
			"target":34962
		},
		{
			"buffer":0,
			"byteLength":96,
			"byteOffset":984,
			"target":34962
		},
		{
			"buffer":0,
			"byteLength":96,
			"byteOffset":1080,
			"target":34962
		},
		{
			"buffer":0,
			"byteLength":96,
			"byteOffset":1176,
			"target":34962
		},
		{
			"buffer":0,
			"byteLength":192,
			"byteOffset":1272,
			"target":34962
		},
		{
			"buffer":0,
			"byteLength":36,
			"byteOffset":1464,
			"target":34963
		}
	],
	"samplers":[
		{
			"magFilter":9729,
			"minFilter":9987
		}
	],
	"buffers":[
		{
			"byteLength":1500,
			"uri":"window_002_007_12.bin"
		}
	]
}
