{
	"asset":{
		"generator":"Khronos glTF Blender I/O v4.4.56",
		"version":"2.0"
	},
	"extensionsUsed":[
		"KHR_materials_specular"
	],
	"scene":0,
	"scenes":[
		{
			"name":"Scene",
			"nodes":[
				4
			]
		}
	],
	"nodes":[
		{
			"mesh":0,
			"name":"Object_10"
		},
		{
			"mesh":1,
			"name":"Object_11"
		},
		{
			"mesh":2,
			"name":"Object_12"
		},
		{
			"mesh":3,
			"name":"Object_9"
		},
		{
			"children":[
				0,
				1,
				2,
				3
			],
			"name":"Window_001_1"
		}
	],
	"materials":[
		{
			"doubleSided":true,
			"extensions":{
				"KHR_materials_specular":{
					"specularFactor":0.25
				}
			},
			"name":"Concrete",
			"normalTexture":{
				"index":0,
				"texCoord":2
			},
			"occlusionTexture":{
				"index":1
			},
			"pbrMetallicRoughness":{
				"baseColorTexture":{
					"index":2
				},
				"metallicFactor":0,
				"metallicRoughnessTexture":{
					"index":1,
					"texCoord":1
				}
			}
		},
		{
			"doubleSided":true,
			"extensions":{
				"KHR_materials_specular":{
					"specularFactor":0.25
				}
			},
			"name":"Frame",
			"normalTexture":{
				"index":3,
				"texCoord":2
			},
			"occlusionTexture":{
				"index":4
			},
			"pbrMetallicRoughness":{
				"baseColorTexture":{
					"index":5
				},
				"metallicFactor":0,
				"metallicRoughnessTexture":{
					"index":4,
					"texCoord":1
				}
			}
		},
		{
			"doubleSided":true,
			"name":"Glass",
			"pbrMetallicRoughness":{
				"baseColorFactor":[
					0.009999999776482582,
					0.009999999776482582,
					0.009999999776482582,
					1
				],
				"metallicFactor":0,
				"metallicRoughnessTexture":{
					"index":6
				}
			}
		},
		{
			"doubleSided":true,
			"extensions":{
				"KHR_materials_specular":{
					"specularFactor":0.25
				}
			},
			"name":"Bricks",
			"normalTexture":{
				"index":7
			},
			"occlusionTexture":{
				"index":8
			},
			"pbrMetallicRoughness":{
				"baseColorTexture":{
					"index":9
				},
				"metallicFactor":0,
				"metallicRoughnessTexture":{
					"index":8
				}
			}
		}
	],
	"meshes":[
		{
			"name":"Object_5",
			"primitives":[
				{
					"attributes":{
						"POSITION":0,
						"NORMAL":1,
						"TEXCOORD_0":2,
						"TEXCOORD_1":3,
						"TEXCOORD_2":4,
						"TEXCOORD_3":5,
						"TANGENT":6
					},
					"indices":7,
					"material":0
				}
			]
		},
		{
			"name":"Object_6",
			"primitives":[
				{
					"attributes":{
						"POSITION":8,
						"NORMAL":9,
						"TEXCOORD_0":10,
						"TEXCOORD_1":11,
						"TEXCOORD_2":12,
						"TEXCOORD_3":13,
						"TANGENT":14
					},
					"indices":15,
					"material":1
				}
			]
		},
		{
			"name":"Object_7",
			"primitives":[
				{
					"attributes":{
						"POSITION":16,
						"NORMAL":17,
						"TEXCOORD_0":18,
						"TEXCOORD_1":19,
						"TANGENT":20
					},
					"indices":21,
					"material":2
				}
			]
		},
		{
			"name":"Object_4",
			"primitives":[
				{
					"attributes":{
						"POSITION":22,
						"NORMAL":23,
						"TEXCOORD_0":24,
						"TEXCOORD_1":25,
						"TEXCOORD_2":26,
						"TEXCOORD_3":27,
						"TANGENT":28
					},
					"indices":29,
					"material":3
				}
			]
		}
	],
	"textures":[
		{
			"sampler":0,
			"source":0
		},
		{
			"sampler":0,
			"source":1
		},
		{
			"sampler":0,
			"source":2
		},
		{
			"sampler":0,
			"source":3
		},
		{
			"sampler":0,
			"source":4
		},
		{
			"sampler":0,
			"source":5
		},
		{
			"sampler":0,
			"source":6
		},
		{
			"sampler":0,
			"source":7
		},
		{
			"sampler":0,
			"source":8
		},
		{
			"sampler":0,
			"source":9
		}
	],
	"images":[
		{
			"mimeType":"image/jpeg",
			"name":"Concrete_normal",
			"uri":"textures/Concrete_normal.jpg"
		},
		{
			"mimeType":"image/png",
			"name":"Concrete_metallicRoughness",
			"uri":"textures/Concrete_metallicRoughness.png"
		},
		{
			"mimeType":"image/jpeg",
			"name":"Concrete_baseColor",
			"uri":"textures/Concrete_baseColor.jpg"
		},
		{
			"mimeType":"image/jpeg",
			"name":"Frame_normal",
			"uri":"textures/Frame_normal.jpg"
		},
		{
			"mimeType":"image/png",
			"name":"Frame_metallicRoughness",
			"uri":"textures/Frame_metallicRoughness.png"
		},
		{
			"mimeType":"image/jpeg",
			"name":"Frame_baseColor",
			"uri":"textures/Frame_baseColor.jpg"
		},
		{
			"mimeType":"image/png",
			"name":"Glass_metallicRoughness",
			"uri":"textures/Glass_metallicRoughness.png"
		},
		{
			"mimeType":"image/jpeg",
			"name":"Bricks_normal",
			"uri":"textures/Bricks_normal.jpg"
		},
		{
			"mimeType":"image/png",
			"name":"Bricks_metallicRoughness",
			"uri":"textures/Bricks_metallicRoughness.png"
		},
		{
			"mimeType":"image/jpeg",
			"name":"Bricks_baseColor",
			"uri":"textures/Bricks_baseColor.jpg"
		}
	],
	"accessors":[
		{
			"bufferView":0,
			"componentType":5126,
			"count":40,
			"max":[
				1.9000002145767212,
				1.850000023841858,
				0.050000082701444626
			],
			"min":[
				1.25,
				0.7999998927116394,
				5.463923713477925e-08
			],
			"type":"VEC3"
		},
		{
			"bufferView":1,
			"componentType":5126,
			"count":40,
			"type":"VEC3"
		},
		{
			"bufferView":2,
			"componentType":5126,
			"count":40,
			"type":"VEC2"
		},
		{
			"bufferView":3,
			"componentType":5126,
			"count":40,
			"type":"VEC2"
		},
		{
			"bufferView":4,
			"componentType":5126,
			"count":40,
			"type":"VEC2"
		},
		{
			"bufferView":5,
			"componentType":5126,
			"count":40,
			"type":"VEC2"
		},
		{
			"bufferView":6,
			"componentType":5126,
			"count":40,
			"type":"VEC4"
		},
		{
			"bufferView":7,
			"componentType":5123,
			"count":60,
			"type":"SCALAR"
		},
		{
			"bufferView":8,
			"componentType":5126,
			"count":240,
			"max":[
				1.9000003337860107,
				1.8000001907348633,
				0.009999863803386688
			],
			"min":[
				1.250000238418579,
				0.9000000953674316,
				-0.1300000101327896
			],
			"type":"VEC3"
		},
		{
			"bufferView":9,
			"componentType":5126,
			"count":240,
			"type":"VEC3"
		},
		{
			"bufferView":10,
			"componentType":5126,
			"count":240,
			"type":"VEC2"
		},
		{
			"bufferView":11,
			"componentType":5126,
			"count":240,
			"type":"VEC2"
		},
		{
			"bufferView":12,
			"componentType":5126,
			"count":240,
			"type":"VEC2"
		},
		{
			"bufferView":13,
			"componentType":5126,
			"count":240,
			"type":"VEC2"
		},
		{
			"bufferView":14,
			"componentType":5126,
			"count":240,
			"type":"VEC4"
		},
		{
			"bufferView":15,
			"componentType":5123,
			"count":360,
			"type":"SCALAR"
		},
		{
			"bufferView":16,
			"componentType":5126,
			"count":12,
			"max":[
				1.8550004959106445,
				1.7503349781036377,
				-0.014820590615272522
			],
			"min":[
				1.2950003147125244,
				0.9450000524520874,
				-0.12999986112117767
			],
			"type":"VEC3"
		},
		{
			"bufferView":17,
			"componentType":5126,
			"count":12,
			"type":"VEC3"
		},
		{
			"bufferView":18,
			"componentType":5126,
			"count":12,
			"type":"VEC2"
		},
		{
			"bufferView":19,
			"componentType":5126,
			"count":12,
			"type":"VEC2"
		},
		{
			"bufferView":20,
			"componentType":5126,
			"count":12,
			"type":"VEC4"
		},
		{
			"bufferView":21,
			"componentType":5123,
			"count":18,
			"type":"SCALAR"
		},
		{
			"bufferView":22,
			"componentType":5126,
			"count":64,
			"max":[
				2.200000047683716,
				2.200000047683716,
				9.616505280973797e-08
			],
			"min":[
				0,
				-9.616505280973797e-08,
				-0.09999993443489075
			],
			"type":"VEC3"
		},
		{
			"bufferView":23,
			"componentType":5126,
			"count":64,
			"type":"VEC3"
		},
		{
			"bufferView":24,
			"componentType":5126,
			"count":64,
			"type":"VEC2"
		},
		{
			"bufferView":25,
			"componentType":5126,
			"count":64,
			"type":"VEC2"
		},
		{
			"bufferView":26,
			"componentType":5126,
			"count":64,
			"type":"VEC2"
		},
		{
			"bufferView":27,
			"componentType":5126,
			"count":64,
			"type":"VEC2"
		},
		{
			"bufferView":28,
			"componentType":5126,
			"count":64,
			"type":"VEC4"
		},
		{
			"bufferView":29,
			"componentType":5123,
			"count":96,
			"type":"SCALAR"
		}
	],
	"bufferViews":[
		{
			"buffer":0,
			"byteLength":480,
			"byteOffset":0,
			"target":34962
		},
		{
			"buffer":0,
			"byteLength":480,
			"byteOffset":480,
			"target":34962
		},
		{
			"buffer":0,
			"byteLength":320,
			"byteOffset":960,
			"target":34962
		},
		{
			"buffer":0,
			"byteLength":320,
			"byteOffset":1280,
			"target":34962
		},
		{
			"buffer":0,
			"byteLength":320,
			"byteOffset":1600,
			"target":34962
		},
		{
			"buffer":0,
			"byteLength":320,
			"byteOffset":1920,
			"target":34962
		},
		{
			"buffer":0,
			"byteLength":640,
			"byteOffset":2240,
			"target":34962
		},
		{
			"buffer":0,
			"byteLength":120,
			"byteOffset":2880,
			"target":34963
		},
		{
			"buffer":0,
			"byteLength":2880,
			"byteOffset":3000,
			"target":34962
		},
		{
			"buffer":0,
			"byteLength":2880,
			"byteOffset":5880,
			"target":34962
		},
		{
			"buffer":0,
			"byteLength":1920,
			"byteOffset":8760,
			"target":34962
		},
		{
			"buffer":0,
			"byteLength":1920,
			"byteOffset":10680,
			"target":34962
		},
		{
			"buffer":0,
			"byteLength":1920,
			"byteOffset":12600,
			"target":34962
		},
		{
			"buffer":0,
			"byteLength":1920,
			"byteOffset":14520,
			"target":34962
		},
		{
			"buffer":0,
			"byteLength":3840,
			"byteOffset":16440,
			"target":34962
		},
		{
			"buffer":0,
			"byteLength":720,
			"byteOffset":20280,
			"target":34963
		},
		{
			"buffer":0,
			"byteLength":144,
			"byteOffset":21000,
			"target":34962
		},
		{
			"buffer":0,
			"byteLength":144,
			"byteOffset":21144,
			"target":34962
		},
		{
			"buffer":0,
			"byteLength":96,
			"byteOffset":21288,
			"target":34962
		},
		{
			"buffer":0,
			"byteLength":96,
			"byteOffset":21384,
			"target":34962
		},
		{
			"buffer":0,
			"byteLength":192,
			"byteOffset":21480,
			"target":34962
		},
		{
			"buffer":0,
			"byteLength":36,
			"byteOffset":21672,
			"target":34963
		},
		{
			"buffer":0,
			"byteLength":768,
			"byteOffset":21708,
			"target":34962
		},
		{
			"buffer":0,
			"byteLength":768,
			"byteOffset":22476,
			"target":34962
		},
		{
			"buffer":0,
			"byteLength":512,
			"byteOffset":23244,
			"target":34962
		},
		{
			"buffer":0,
			"byteLength":512,
			"byteOffset":23756,
			"target":34962
		},
		{
			"buffer":0,
			"byteLength":512,
			"byteOffset":24268,
			"target":34962
		},
		{
			"buffer":0,
			"byteLength":512,
			"byteOffset":24780,
			"target":34962
		},
		{
			"buffer":0,
			"byteLength":1024,
			"byteOffset":25292,
			"target":34962
		},
		{
			"buffer":0,
			"byteLength":192,
			"byteOffset":26316,
			"target":34963
		}
	],
	"samplers":[
		{
			"magFilter":9729,
			"minFilter":9987
		}
	],
	"buffers":[
		{
			"byteLength":26508,
			"uri":"window_001_1.bin"
		}
	]
}
