{
	"asset":{
		"generator":"Khronos glTF Blender I/O v4.4.56",
		"version":"2.0"
	},
	"extensionsUsed":[
		"KHR_materials_specular"
	],
	"scene":0,
	"scenes":[
		{
			"name":"Scene",
			"nodes":[
				2
			]
		}
	],
	"nodes":[
		{
			"mesh":0,
			"name":"Object_62"
		},
		{
			"mesh":1,
			"name":"Object_63"
		},
		{
			"children":[
				0,
				1
			],
			"name":"Window_002.004_23",
			"rotation":[
				0.70710688829422,
				0,
				0,
				0.7071066498756409
			]
		}
	],
	"materials":[
		{
			"doubleSided":true,
			"extensions":{
				"KHR_materials_specular":{
					"specularFactor":0.25
				}
			},
			"name":"Frame",
			"normalTexture":{
				"index":0,
				"texCoord":2
			},
			"occlusionTexture":{
				"index":1
			},
			"pbrMetallicRoughness":{
				"baseColorTexture":{
					"index":2
				},
				"metallicFactor":0,
				"metallicRoughnessTexture":{
					"index":1,
					"texCoord":1
				}
			}
		},
		{
			"doubleSided":true,
			"name":"Glass",
			"pbrMetallicRoughness":{
				"baseColorFactor":[
					0.009999999776482582,
					0.009999999776482582,
					0.009999999776482582,
					1
				],
				"metallicFactor":0,
				"metallicRoughnessTexture":{
					"index":3
				}
			}
		}
	],
	"meshes":[
		{
			"name":"Object_37",
			"primitives":[
				{
					"attributes":{
						"POSITION":0,
						"NORMAL":1,
						"TEXCOORD_0":2,
						"TEXCOORD_1":3,
						"TEXCOORD_2":4,
						"TEXCOORD_3":5,
						"TANGENT":6
					},
					"indices":7,
					"material":0
				}
			]
		},
		{
			"name":"Object_38",
			"primitives":[
				{
					"attributes":{
						"POSITION":8,
						"NORMAL":9,
						"TEXCOORD_0":10,
						"TEXCOORD_1":11,
						"TANGENT":12
					},
					"indices":13,
					"material":1
				}
			]
		}
	],
	"textures":[
		{
			"sampler":0,
			"source":0
		},
		{
			"sampler":0,
			"source":1
		},
		{
			"sampler":0,
			"source":2
		},
		{
			"sampler":0,
			"source":3
		}
	],
	"images":[
		{
			"mimeType":"image/jpeg",
			"name":"Frame_normal",
			"uri":"textures/Frame_normal.jpg"
		},
		{
			"mimeType":"image/png",
			"name":"Frame_metallicRoughness",
			"uri":"textures/Frame_metallicRoughness.png"
		},
		{
			"mimeType":"image/jpeg",
			"name":"Frame_baseColor",
			"uri":"textures/Frame_baseColor.jpg"
		},
		{
			"mimeType":"image/png",
			"name":"Glass_metallicRoughness",
			"uri":"textures/Glass_metallicRoughness.png"
		}
	],
	"accessors":[
		{
			"bufferView":0,
			"componentType":5126,
			"count":248,
			"max":[
				1.1999999284744263,
				0.11560480296611786,
				0
			],
			"min":[
				-1.1920928955078125e-07,
				-0.05000022053718567,
				-0.8999996185302734
			],
			"type":"VEC3"
		},
		{
			"bufferView":1,
			"componentType":5126,
			"count":248,
			"type":"VEC3"
		},
		{
			"bufferView":2,
			"componentType":5126,
			"count":248,
			"type":"VEC2"
		},
		{
			"bufferView":3,
			"componentType":5126,
			"count":248,
			"type":"VEC2"
		},
		{
			"bufferView":4,
			"componentType":5126,
			"count":248,
			"type":"VEC2"
		},
		{
			"bufferView":5,
			"componentType":5126,
			"count":248,
			"type":"VEC2"
		},
		{
			"bufferView":6,
			"componentType":5126,
			"count":248,
			"type":"VEC4"
		},
		{
			"bufferView":7,
			"componentType":5123,
			"count":372,
			"type":"SCALAR"
		},
		{
			"bufferView":8,
			"componentType":5126,
			"count":12,
			"max":[
				1.1555111408233643,
				0.09113936871290207,
				-0.04499959945678711
			],
			"min":[
				0.04448878765106201,
				-0.046117931604385376,
				-0.8550004959106445
			],
			"type":"VEC3"
		},
		{
			"bufferView":9,
			"componentType":5126,
			"count":12,
			"type":"VEC3"
		},
		{
			"bufferView":10,
			"componentType":5126,
			"count":12,
			"type":"VEC2"
		},
		{
			"bufferView":11,
			"componentType":5126,
			"count":12,
			"type":"VEC2"
		},
		{
			"bufferView":12,
			"componentType":5126,
			"count":12,
			"type":"VEC4"
		},
		{
			"bufferView":13,
			"componentType":5123,
			"count":18,
			"type":"SCALAR"
		}
	],
	"bufferViews":[
		{
			"buffer":0,
			"byteLength":2976,
			"byteOffset":0,
			"target":34962
		},
		{
			"buffer":0,
			"byteLength":2976,
			"byteOffset":2976,
			"target":34962
		},
		{
			"buffer":0,
			"byteLength":1984,
			"byteOffset":5952,
			"target":34962
		},
		{
			"buffer":0,
			"byteLength":1984,
			"byteOffset":7936,
			"target":34962
		},
		{
			"buffer":0,
			"byteLength":1984,
			"byteOffset":9920,
			"target":34962
		},
		{
			"buffer":0,
			"byteLength":1984,
			"byteOffset":11904,
			"target":34962
		},
		{
			"buffer":0,
			"byteLength":3968,
			"byteOffset":13888,
			"target":34962
		},
		{
			"buffer":0,
			"byteLength":744,
			"byteOffset":17856,
			"target":34963
		},
		{
			"buffer":0,
			"byteLength":144,
			"byteOffset":18600,
			"target":34962
		},
		{
			"buffer":0,
			"byteLength":144,
			"byteOffset":18744,
			"target":34962
		},
		{
			"buffer":0,
			"byteLength":96,
			"byteOffset":18888,
			"target":34962
		},
		{
			"buffer":0,
			"byteLength":96,
			"byteOffset":18984,
			"target":34962
		},
		{
			"buffer":0,
			"byteLength":192,
			"byteOffset":19080,
			"target":34962
		},
		{
			"buffer":0,
			"byteLength":36,
			"byteOffset":19272,
			"target":34963
		}
	],
	"samplers":[
		{
			"magFilter":9729,
			"minFilter":9987
		}
	],
	"buffers":[
		{
			"byteLength":19308,
			"uri":"window_002_004_23.bin"
		}
	]
}
