{
	"asset":{
		"generator":"Khronos glTF Blender I/O v4.4.56",
		"version":"2.0"
	},
	"extensionsUsed":[
		"KHR_materials_specular"
	],
	"scene":0,
	"scenes":[
		{
			"name":"Scene",
			"nodes":[
				2
			]
		}
	],
	"nodes":[
		{
			"mesh":0,
			"name":"Object_65"
		},
		{
			"mesh":1,
			"name":"Object_66"
		},
		{
			"children":[
				0,
				1
			],
			"name":"Window_002.005_24",
			"rotation":[
				0.5000000596046448,
				-0.5000000596046448,
				-0.4999999403953552,
				0.4999999403953552
			]
		}
	],
	"materials":[
		{
			"doubleSided":true,
			"extensions":{
				"KHR_materials_specular":{
					"specularFactor":0.25
				}
			},
			"name":"Frame",
			"normalTexture":{
				"index":0,
				"texCoord":2
			},
			"occlusionTexture":{
				"index":1
			},
			"pbrMetallicRoughness":{
				"baseColorTexture":{
					"index":2
				},
				"metallicFactor":0,
				"metallicRoughnessTexture":{
					"index":1,
					"texCoord":1
				}
			}
		},
		{
			"doubleSided":true,
			"name":"Glass",
			"pbrMetallicRoughness":{
				"baseColorFactor":[
					0.009999999776482582,
					0.009999999776482582,
					0.009999999776482582,
					1
				],
				"metallicFactor":0,
				"metallicRoughnessTexture":{
					"index":3
				}
			}
		}
	],
	"meshes":[
		{
			"name":"Object_39",
			"primitives":[
				{
					"attributes":{
						"POSITION":0,
						"NORMAL":1,
						"TEXCOORD_0":2,
						"TEXCOORD_1":3,
						"TEXCOORD_2":4,
						"TEXCOORD_3":5,
						"TANGENT":6
					},
					"indices":7,
					"material":0
				}
			]
		},
		{
			"name":"Object_40",
			"primitives":[
				{
					"attributes":{
						"POSITION":8,
						"NORMAL":9,
						"TEXCOORD_0":10,
						"TEXCOORD_1":11,
						"TANGENT":12
					},
					"indices":13,
					"material":1
				}
			]
		}
	],
	"textures":[
		{
			"sampler":0,
			"source":0
		},
		{
			"sampler":0,
			"source":1
		},
		{
			"sampler":0,
			"source":2
		},
		{
			"sampler":0,
			"source":3
		}
	],
	"images":[
		{
			"mimeType":"image/jpeg",
			"name":"Frame_normal",
			"uri":"textures/Frame_normal.jpg"
		},
		{
			"mimeType":"image/png",
			"name":"Frame_metallicRoughness",
			"uri":"textures/Frame_metallicRoughness.png"
		},
		{
			"mimeType":"image/jpeg",
			"name":"Frame_baseColor",
			"uri":"textures/Frame_baseColor.jpg"
		},
		{
			"mimeType":"image/png",
			"name":"Glass_metallicRoughness",
			"uri":"textures/Glass_metallicRoughness.png"
		}
	],
	"accessors":[
		{
			"bufferView":0,
			"componentType":5126,
			"count":320,
			"max":[
				0,
				0.07576574385166168,
				-8.940696716308594e-08
			],
			"min":[
				-0.9000001549720764,
				-0.050000034272670746,
				-1.200000286102295
			],
			"type":"VEC3"
		},
		{
			"bufferView":1,
			"componentType":5126,
			"count":320,
			"type":"VEC3"
		},
		{
			"bufferView":2,
			"componentType":5126,
			"count":320,
			"type":"VEC2"
		},
		{
			"bufferView":3,
			"componentType":5126,
			"count":320,
			"type":"VEC2"
		},
		{
			"bufferView":4,
			"componentType":5126,
			"count":320,
			"type":"VEC2"
		},
		{
			"bufferView":5,
			"componentType":5126,
			"count":320,
			"type":"VEC2"
		},
		{
			"bufferView":6,
			"componentType":5126,
			"count":320,
			"type":"VEC4"
		},
		{
			"bufferView":7,
			"componentType":5123,
			"count":480,
			"type":"SCALAR"
		},
		{
			"bufferView":8,
			"componentType":5126,
			"count":16,
			"max":[
				-0.0549999475479126,
				0.04073464125394821,
				-0.05500003695487976
			],
			"min":[
				-0.8379172682762146,
				-0.050000034272670746,
				-1.1450003385543823
			],
			"type":"VEC3"
		},
		{
			"bufferView":9,
			"componentType":5126,
			"count":16,
			"type":"VEC3"
		},
		{
			"bufferView":10,
			"componentType":5126,
			"count":16,
			"type":"VEC2"
		},
		{
			"bufferView":11,
			"componentType":5126,
			"count":16,
			"type":"VEC2"
		},
		{
			"bufferView":12,
			"componentType":5126,
			"count":16,
			"type":"VEC4"
		},
		{
			"bufferView":13,
			"componentType":5123,
			"count":24,
			"type":"SCALAR"
		}
	],
	"bufferViews":[
		{
			"buffer":0,
			"byteLength":3840,
			"byteOffset":0,
			"target":34962
		},
		{
			"buffer":0,
			"byteLength":3840,
			"byteOffset":3840,
			"target":34962
		},
		{
			"buffer":0,
			"byteLength":2560,
			"byteOffset":7680,
			"target":34962
		},
		{
			"buffer":0,
			"byteLength":2560,
			"byteOffset":10240,
			"target":34962
		},
		{
			"buffer":0,
			"byteLength":2560,
			"byteOffset":12800,
			"target":34962
		},
		{
			"buffer":0,
			"byteLength":2560,
			"byteOffset":15360,
			"target":34962
		},
		{
			"buffer":0,
			"byteLength":5120,
			"byteOffset":17920,
			"target":34962
		},
		{
			"buffer":0,
			"byteLength":960,
			"byteOffset":23040,
			"target":34963
		},
		{
			"buffer":0,
			"byteLength":192,
			"byteOffset":24000,
			"target":34962
		},
		{
			"buffer":0,
			"byteLength":192,
			"byteOffset":24192,
			"target":34962
		},
		{
			"buffer":0,
			"byteLength":128,
			"byteOffset":24384,
			"target":34962
		},
		{
			"buffer":0,
			"byteLength":128,
			"byteOffset":24512,
			"target":34962
		},
		{
			"buffer":0,
			"byteLength":256,
			"byteOffset":24640,
			"target":34962
		},
		{
			"buffer":0,
			"byteLength":48,
			"byteOffset":24896,
			"target":34963
		}
	],
	"samplers":[
		{
			"magFilter":9729,
			"minFilter":9987
		}
	],
	"buffers":[
		{
			"byteLength":24944,
			"uri":"window_002_005_24.bin"
		}
	]
}
