{
	"asset":{
		"generator":"Khronos glTF Blender I/O v4.4.56",
		"version":"2.0"
	},
	"scene":0,
	"scenes":[
		{
			"name":"Scene",
			"nodes":[
				0
			]
		}
	],
	"nodes":[
		{
			"mesh":0,
			"name":"Cube"
		}
	],
	"meshes":[
		{
			"name":"Cube.001",
			"primitives":[
				{
					"attributes":{
						"POSITION":0,
						"NORMAL":1,
						"TEXCOORD_0":2
					},
					"indices":3
				}
			]
		}
	],
	"accessors":[
		{
			"bufferView":0,
			"componentType":5126,
			"count":93,
			"max":[
				2.6754298210144043,
				7.854158401489258,
				1
			],
			"min":[
				-1,
				-1,
				-1
			],
			"type":"VEC3"
		},
		{
			"bufferView":1,
			"componentType":5126,
			"count":93,
			"type":"VEC3"
		},
		{
			"bufferView":2,
			"componentType":5126,
			"count":93,
			"type":"VEC2"
		},
		{
			"bufferView":3,
			"componentType":5123,
			"count":288,
			"type":"SCALAR"
		}
	],
	"bufferViews":[
		{
			"buffer":0,
			"byteLength":1116,
			"byteOffset":0,
			"target":34962
		},
		{
			"buffer":0,
			"byteLength":1116,
			"byteOffset":1116,
			"target":34962
		},
		{
			"buffer":0,
			"byteLength":744,
			"byteOffset":2232,
			"target":34962
		},
		{
			"buffer":0,
			"byteLength":576,
			"byteOffset":2976,
			"target":34963
		}
	],
	"buffers":[
		{
			"byteLength":3552,
			"uri":"Flag.bin"
		}
	]
}
