{
  "accessors": [
    {
      "bufferView": 2,
      "componentType": 5126,
      "count": 770,
      "max": [
        4.599999904632568,
        6.376710891723633,
        12.100000381469727
      ],
      "min": [
        -4.599999904632568,
        5.967452049255371,
        -12.100001335144043
      ],
      "type": "VEC3"
    },
    {
      "bufferView": 2,
      "byteOffset": 9240,
      "componentType": 5126,
      "count": 770,
      "type": "VEC3"
    },
    {
      "bufferView": 3,
      "componentType": 5126,
      "count": 770,
      "type": "VEC4"
    },
    {
      "bufferView": 1,
      "componentType": 5126,
      "count": 770,
      "type": "VEC2"
    },
    {
      "bufferView": 0,
      "componentType": 5125,
      "count": 3264,
      "type": "SCALAR"
    },
    {
      "bufferView": 2,
      "byteOffset": 18480,
      "componentType": 5126,
      "count": 2838,
      "max": [
        4.35452127456665,
        6.130685806274414,
        11.74639892578125
      ],
      "min": [
        -4.35452127456665,
        -0.0020895004272460938,
        -11.59639835357666
      ],
      "type": "VEC3"
    },
    {
      "bufferView": 2,
      "byteOffset": 52536,
      "componentType": 5126,
      "count": 2838,
      "type": "VEC3"
    },
    {
      "bufferView": 3,
      "byteOffset": 12320,
      "componentType": 5126,
      "count": 2838,
      "type": "VEC4"
    },
    {
      "bufferView": 1,
      "byteOffset": 6160,
      "componentType": 5126,
      "count": 2838,
      "type": "VEC2"
    },
    {
      "bufferView": 0,
      "byteOffset": 13056,
      "componentType": 5125,
      "count": 14064,
      "type": "SCALAR"
    },
    {
      "bufferView": 2,
      "byteOffset": 86592,
      "componentType": 5126,
      "count": 2985,
      "max": [
        4.35452127456665,
        6.016544342041016,
        11.74639892578125
      ],
      "min": [
        -4.35452127456665,
        0.25864219665527344,
        -11.74639892578125
      ],
      "type": "VEC3"
    },
    {
      "bufferView": 2,
      "byteOffset": 122412,
      "componentType": 5126,
      "count": 2985,
      "type": "VEC3"
    },
    {
      "bufferView": 3,
      "byteOffset": 57728,
      "componentType": 5126,
      "count": 2985,
      "type": "VEC4"
    },
    {
      "bufferView": 1,
      "byteOffset": 28864,
      "componentType": 5126,
      "count": 2985,
      "type": "VEC2"
    },
    {
      "bufferView": 0,
      "byteOffset": 69312,
      "componentType": 5125,
      "count": 10560,
      "type": "SCALAR"
    }
  ],
  "asset": {
    "generator": "fab-model-conversion",
    "version": "2.0"
  },
  "bufferViews": [
    {
      "buffer": 0,
      "byteLength": 111552,
      "target": 34963
    },
    {
      "buffer": 0,
      "byteLength": 52744,
      "byteOffset": 111552,
      "byteStride": 8,
      "target": 34962
    },
    {
      "buffer": 0,
      "byteLength": 158232,
      "byteOffset": 164296,
      "byteStride": 12,
      "target": 34962
    },
    {
      "buffer": 0,
      "byteLength": 105488,
      "byteOffset": 322528,
      "byteStride": 16,
      "target": 34962
    }
  ],
  "buffers": [
    {
      "byteLength": 428016,
      "uri": "scene.bin"
    }
  ],
  "extensionsUsed": [
    "KHR_materials_specular"
  ],
  "images": [
    {
      "uri": "textures/Mesa_03_Mat_baseColor.png"
    },
    {
      "uri": "textures/Mesa_03_Mat_metallicRoughness.png"
    },
    {
      "uri": "textures/Mesa_03_Mat_normal.png"
    },
    {
      "uri": "textures/Mesa_03_Mat_specular_f0.png"
    },
    {
      "uri": "textures/Mesa_02_Mat_baseColor.png"
    },
    {
      "uri": "textures/Mesa_02_Mat_metallicRoughness.png"
    },
    {
      "uri": "textures/Mesa_02_Mat_normal.png"
    },
    {
      "uri": "textures/Mesa_02_Mat_specular_f0.png"
    },
    {
      "uri": "textures/Mesa_Mat_baseColor.png"
    },
    {
      "uri": "textures/Mesa_Mat_metallicRoughness.png"
    },
    {
      "uri": "textures/Mesa_Mat_normal.png"
    },
    {
      "uri": "textures/Mesa_Mat_specular_f0.png"
    }
  ],
  "materials": [
    {
      "doubleSided": true,
      "extensions": {
        "KHR_materials_specular": {
          "specularColorFactor": [
            1.0,
            1.0,
            1.0
          ],
          "specularFactor": 1.0,
          "specularTexture": {
            "index": 3
          }
        }
      },
      "name": "Mesa_03_Mat",
      "normalTexture": {
        "index": 2
      },
      "pbrMetallicRoughness": {
        "baseColorTexture": {
          "index": 0
        },
        "metallicFactor": 0.5958113396155111,
        "metallicRoughnessTexture": {
          "index": 1
        },
        "roughnessFactor": 0.5226682595604101
      }
    },
    {
      "doubleSided": true,
      "extensions": {
        "KHR_materials_specular": {
          "specularColorFactor": [
            1.0,
            1.0,
            1.0
          ],
          "specularFactor": 0.5897160829442527,
          "specularTexture": {
            "index": 7
          }
        }
      },
      "name": "Mesa_02_Mat",
      "normalTexture": {
        "index": 6
      },
      "pbrMetallicRoughness": {
        "baseColorTexture": {
          "index": 4
        },
        "metallicFactor": 0.6628591629993539,
        "metallicRoughnessTexture": {
          "index": 5
        },
        "roughnessFactor": 0.8030500664382977
      }
    },
    {
      "doubleSided": true,
      "extensions": {
        "KHR_materials_specular": {
          "specularColorFactor": [
            1.0,
            1.0,
            1.0
          ],
          "specularFactor": 0.9920030232473088,
          "specularTexture": {
            "index": 11
          }
        }
      },
      "name": "Mesa_Mat",
      "normalTexture": {
        "index": 10
      },
      "pbrMetallicRoughness": {
        "baseColorTexture": {
          "index": 8
        },
        "metallicFactor": 0.7847642964245224,
        "metallicRoughnessTexture": {
          "index": 9
        },
        "roughnessFactor": 0.9737172532335336
      }
    }
  ],
  "meshes": [
    {
      "name": "Mesa_Obj_Mesa_03_Mat_0",
      "primitives": [
        {
          "attributes": {
            "NORMAL": 1,
            "POSITION": 0,
            "TANGENT": 2,
            "TEXCOORD_0": 3
          },
          "indices": 4,
          "material": 0,
          "mode": 4
        }
      ]
    },
    {
      "name": "Mesa_Obj_Mesa_02_Mat_0",
      "primitives": [
        {
          "attributes": {
            "NORMAL": 6,
            "POSITION": 5,
            "TANGENT": 7,
            "TEXCOORD_0": 8
          },
          "indices": 9,
          "material": 1,
          "mode": 4
        }
      ]
    },
    {
      "name": "Mesa_Obj_Mesa_Mat_0",
      "primitives": [
        {
          "attributes": {
            "NORMAL": 11,
            "POSITION": 10,
            "TANGENT": 12,
            "TEXCOORD_0": 13
          },
          "indices": 14,
          "material": 2,
          "mode": 4
        }
      ]
    }
  ],
  "nodes": [
    {
      "children": [
        1
      ],
      "matrix": [
        1.0,
        0.0,
        0.0,
        0.0,
        0.0,
        2.220446049250313e-16,
        -1.0,
        0.0,
        0.0,
        1.0,
        2.220446049250313e-16,
        0.0,
        0.0,
        0.0,
        0.0,
        1.0
      ],
      "name": "Sketchfab_model"
    },
    {
      "children": [
        2
      ],
      "matrix": [
        0.009999999776482582,
        0.0,
        0.0,
        0.0,
        0.0,
        0.0,
        0.009999999776482582,
        0.0,
        0.0,
        -0.009999999776482582,
        0.0,
        0.0,
        0.0,
        0.0,
        0.0,
        1.0
      ],
      "name": "864ac76b38e0488f84759e9b0c9ef442.fbx"
    },
    {
      "children": [
        3
      ],
      "name": "RootNode"
    },
    {
      "children": [
        4,
        5,
        6
      ],
      "name": "Mesa_Obj"
    },
    {
      "mesh": 0,
      "name": "Mesa_Obj_Mesa_03_Mat_0"
    },
    {
      "mesh": 1,
      "name": "Mesa_Obj_Mesa_02_Mat_0"
    },
    {
      "mesh": 2,
      "name": "Mesa_Obj_Mesa_Mat_0"
    }
  ],
  "samplers": [
    {
      "magFilter": 9729,
      "minFilter": 9987,
      "wrapS": 10497,
      "wrapT": 10497
    }
  ],
  "scene": 0,
  "scenes": [
    {
      "name": "Sketchfab_Scene",
      "nodes": [
        0
      ]
    }
  ],
  "textures": [
    {
      "sampler": 0,
      "source": 0
    },
    {
      "sampler": 0,
      "source": 1
    },
    {
      "sampler": 0,
      "source": 2
    },
    {
      "sampler": 0,
      "source": 3
    },
    {
      "sampler": 0,
      "source": 4
    },
    {
      "sampler": 0,
      "source": 5
    },
    {
      "sampler": 0,
      "source": 6
    },
    {
      "sampler": 0,
      "source": 7
    },
    {
      "sampler": 0,
      "source": 8
    },
    {
      "sampler": 0,
      "source": 9
    },
    {
      "sampler": 0,
      "source": 10
    },
    {
      "sampler": 0,
      "source": 11
    }
  ]
}
