{
  "asset": {
    "version": "2.0",
    "generator": "Osiris asphalt material preview"
  },
  "scene": 0,
  "scenes": [
    {
      "name": "Asphalt Material Preview",
      "nodes": [0, 1]
    }
  ],
  "nodes": [
    {
      "name": "Asphalt Ground",
      "mesh": 0,
      "scale": [5.0, 1.0, 5.0]
    },
    {
      "name": "Asphalt Closeup Panel",
      "mesh": 0,
      "translation": [0.0, 1.6, -3.2],
      "rotation": [0.4617486, 0.0, 0.0, 0.8870108],
      "scale": [1.8, 1.0, 1.8]
    }
  ],
  "meshes": [
    {
      "name": "Tiled Asphalt Plane",
      "primitives": [
        {
          "attributes": {
            "POSITION": 0,
            "NORMAL": 1,
            "TEXCOORD_0": 2,
            "TANGENT": 3
          },
          "indices": 4,
          "material": 0,
          "mode": 4
        }
      ]
    }
  ],
  "materials": [
    {
      "name": "Asphalt 04",
      "pbrMetallicRoughness": {
        "baseColorTexture": {
          "index": 0
        },
        "metallicRoughnessTexture": {
          "index": 1
        },
        "metallicFactor": 1.0,
        "roughnessFactor": 1.0
      },
      "normalTexture": {
        "index": 2
      },
      "occlusionTexture": {
        "index": 1
      }
    }
  ],
  "samplers": [
    {
      "magFilter": 9729,
      "minFilter": 9987,
      "wrapS": 10497,
      "wrapT": 10497
    }
  ],
  "textures": [
    {
      "sampler": 0,
      "source": 0
    },
    {
      "sampler": 0,
      "source": 1
    },
    {
      "sampler": 0,
      "source": 2
    }
  ],
  "images": [
    {
      "name": "Asphalt Albedo",
      "uri": "../../textures/asphalt/asphalt_04_diff_2k.jpg"
    },
    {
      "name": "Asphalt ARM",
      "uri": "../../textures/asphalt/asphalt_04_arm_2k.jpg"
    },
    {
      "name": "Asphalt Normal",
      "uri": "../../textures/asphalt/asphalt_04_nor_gl_2k.jpg"
    }
  ],
  "buffers": [
    {
      "byteLength": 204,
      "uri": "data:application/octet-stream;base64,"
    }
  ],
  "bufferViews": [
    {
      "buffer": 0,
      "byteOffset": 0,
      "byteLength": 48,
      "target": 34962
    },
    {
      "buffer": 0,
      "byteOffset": 48,
      "byteLength": 48,
      "target": 34962
    },
    {
      "buffer": 0,
      "byteOffset": 96,
      "byteLength": 32,
      "target": 34962
    },
    {
      "buffer": 0,
      "byteOffset": 128,
      "byteLength": 64,
      "target": 34962
    },
    {
      "buffer": 0,
      "byteOffset": 192,
      "byteLength": 12,
      "target": 34963
    }
  ],
  "accessors": [
    {
      "bufferView": 0,
      "componentType": 5126,
      "count": 4,
      "type": "VEC3",
      "min": [-1.0, 0.0, -1.0],
      "max": [1.0, 0.0, 1.0]
    },
    {
      "bufferView": 1,
      "componentType": 5126,
      "count": 4,
      "type": "VEC3"
    },
    {
      "bufferView": 2,
      "componentType": 5126,
      "count": 4,
      "type": "VEC2",
      "min": [0.0, 0.0],
      "max": [4.0, 4.0]
    },
    {
      "bufferView": 3,
      "componentType": 5126,
      "count": 4,
      "type": "VEC4"
    },
    {
      "bufferView": 4,
      "componentType": 5123,
      "count": 6,
      "type": "SCALAR",
      "min": [0],
      "max": [3]
    }
  ]
}
