{
	"asset":{
		"generator":"Khronos glTF Blender I/O v4.4.56",
		"version":"2.0"
	},
	"scene":0,
	"scenes":[
		{
			"name":"Scene",
			"nodes":[
				0,
				1,
				2,
				3,
				4,
				5,
				6,
				7,
				9
			]
		}
	],
	"nodes":[
		{
			"mesh":0,
			"name":"Cube",
			"scale":[
				1.6841644048690796,
				0.12036943435668945,
				1.6841644048690796
			],
			"translation":[
				0.0003775656223297119,
				3.0445194244384766,
				-0.10846395790576935
			]
		},
		{
			"mesh":1,
			"name":"Cube.001",
			"scale":[
				0.1761932224035263,
				1.6086496114730835,
				0.1761932224035263
			],
			"translation":[
				1.3499969244003296,
				1.3178539276123047,
				1.124997854232788
			]
		},
		{
			"name":"Empty",
			"translation":[
				0.019285140559077263,
				3.1648573875427246,
				-0.11571363359689713
			]
		},
		{
			"mesh":2,
			"name":"Cube.002",
			"scale":[
				1.3431659936904907,
				0.18368969857692719,
				1.3431659936904907
			],
			"translation":[
				0.019285140559077263,
				1.0220057964324951,
				-0.11571363359689713
			]
		},
		{
			"mesh":3,
			"name":"Cube.003",
			"scale":[
				1.1801843643188477,
				0.3896406888961792,
				0.17468838393688202
			],
			"translation":[
				0.00465015834197402,
				2.5349721908569336,
				1.1220550537109375
			]
		},
		{
			"mesh":4,
			"name":"Cube.004",
			"scale":[
				1.1801843643188477,
				0.3896406888961792,
				0.1748802661895752
			],
			"translation":[
				0.00465015834197402,
				2.5349721908569336,
				-1.3479454517364502
			]
		},
		{
			"mesh":5,
			"name":"Cube.005",
			"rotation":[
				0,
				0.7071068286895752,
				0,
				0.7071068286895752
			],
			"scale":[
				1.1801843643188477,
				0.3896406888961792,
				0.17468838393688202
			],
			"translation":[
				-1.3020801544189453,
				2.5349721908569336,
				-0.13873839378356934
			]
		},
		{
			"mesh":6,
			"name":"Cube.006",
			"rotation":[
				0,
				0.7071068286895752,
				0,
				0.7071068286895752
			],
			"scale":[
				1.1801843643188477,
				0.10206726938486099,
				0.13524271547794342
			],
			"translation":[
				1.3537986278533936,
				2.079244375228882,
				-0.13873839378356934
			]
		},
		{
			"mesh":7,
			"name":"Icosphere",
			"scale":[
				0.06907866150140762,
				0.2601926922798157,
				0.08267012983560562
			],
			"translation":[
				1.0000134706497192,
				0.06406641006469727,
				-0.0013252943754196167
			]
		},
		{
			"children":[
				8
			],
			"mesh":8,
			"name":"Drawer",
			"scale":[
				1.2520989179611206,
				0.3324202299118042,
				1.0462461709976196
			],
			"translation":[
				1.453557014465332,
				2.5365257263183594,
				-0.12405973672866821
			]
		}
	],
	"materials":[
		{
			"doubleSided":true,
			"name":"wood_table_worn",
			"normalTexture":{
				"index":0
			},
			"pbrMetallicRoughness":{
				"baseColorTexture":{
					"index":1
				},
				"metallicFactor":0,
				"metallicRoughnessTexture":{
					"index":2
				}
			}
		},
		{
			"doubleSided":true,
			"name":"Material.001",
			"pbrMetallicRoughness":{
				"baseColorFactor":[
					0.8006623387336731,
					0.34381163120269775,
					0.016886858269572258,
					1
				],
				"metallicFactor":0,
				"roughnessFactor":0.5
			}
		}
	],
	"meshes":[
		{
			"name":"Cube",
			"primitives":[
				{
					"attributes":{
						"POSITION":0,
						"NORMAL":1,
						"TEXCOORD_0":2
					},
					"indices":3,
					"material":0
				}
			]
		},
		{
			"name":"Cube.001",
			"primitives":[
				{
					"attributes":{
						"POSITION":4,
						"NORMAL":5,
						"TEXCOORD_0":6
					},
					"indices":7,
					"material":0
				}
			]
		},
		{
			"name":"Cube.002",
			"primitives":[
				{
					"attributes":{
						"POSITION":8,
						"NORMAL":9,
						"TEXCOORD_0":10
					},
					"indices":11,
					"material":0
				}
			]
		},
		{
			"name":"Cube.003",
			"primitives":[
				{
					"attributes":{
						"POSITION":12,
						"NORMAL":13,
						"TEXCOORD_0":14
					},
					"indices":15,
					"material":0
				}
			]
		},
		{
			"name":"Cube.004",
			"primitives":[
				{
					"attributes":{
						"POSITION":16,
						"NORMAL":17,
						"TEXCOORD_0":18
					},
					"indices":15,
					"material":0
				}
			]
		},
		{
			"name":"Cube.005",
			"primitives":[
				{
					"attributes":{
						"POSITION":19,
						"NORMAL":20,
						"TEXCOORD_0":21
					},
					"indices":15,
					"material":0
				}
			]
		},
		{
			"name":"Cube.006",
			"primitives":[
				{
					"attributes":{
						"POSITION":22,
						"NORMAL":23,
						"TEXCOORD_0":24
					},
					"indices":15,
					"material":0
				}
			]
		},
		{
			"name":"Icosphere",
			"primitives":[
				{
					"attributes":{
						"POSITION":25,
						"NORMAL":26,
						"TEXCOORD_0":27
					},
					"indices":28,
					"material":1
				}
			]
		},
		{
			"name":"Cube.014",
			"primitives":[
				{
					"attributes":{
						"POSITION":29,
						"NORMAL":30,
						"TEXCOORD_0":31
					},
					"indices":32,
					"material":0
				}
			]
		}
	],
	"textures":[
		{
			"sampler":0,
			"source":0
		},
		{
			"sampler":0,
			"source":1
		},
		{
			"sampler":0,
			"source":2
		}
	],
	"images":[
		{
			"mimeType":"image/png",
			"name":"wood_table_worn_nor_gl_8k",
			"uri":"Textures/wood_table_worn_nor_gl_8k.png"
		},
		{
			"mimeType":"image/jpeg",
			"name":"wood_table_worn_diff_2k",
			"uri":"Textures/wood_table_worn_diff_2k.jpg"
		},
		{
			"mimeType":"image/png",
			"name":"wood_table_worn_rough_8k",
			"uri":"Textures/wood_table_worn_rough_8k.png"
		}
	],
	"accessors":[
		{
			"bufferView":0,
			"componentType":5126,
			"count":24,
			"max":[
				1,
				0.9999999403953552,
				1
			],
			"min":[
				-1,
				-0.9999999403953552,
				-1
			],
			"type":"VEC3"
		},
		{
			"bufferView":1,
			"componentType":5126,
			"count":24,
			"type":"VEC3"
		},
		{
			"bufferView":2,
			"componentType":5126,
			"count":24,
			"type":"VEC2"
		},
		{
			"bufferView":3,
			"componentType":5123,
			"count":36,
			"type":"SCALAR"
		},
		{
			"bufferView":4,
			"componentType":5126,
			"count":96,
			"max":[
				1.000001072883606,
				1,
				1.0000005960464478
			],
			"min":[
				-16.105144500732422,
				-1.000000238418579,
				-15.08353328704834
			],
			"type":"VEC3"
		},
		{
			"bufferView":5,
			"componentType":5126,
			"count":96,
			"type":"VEC3"
		},
		{
			"bufferView":6,
			"componentType":5126,
			"count":96,
			"type":"VEC2"
		},
		{
			"bufferView":7,
			"componentType":5123,
			"count":144,
			"type":"SCALAR"
		},
		{
			"bufferView":8,
			"componentType":5126,
			"count":184,
			"max":[
				1,
				1,
				1
			],
			"min":[
				-1,
				-1,
				-1
			],
			"type":"VEC3"
		},
		{
			"bufferView":9,
			"componentType":5126,
			"count":184,
			"type":"VEC3"
		},
		{
			"bufferView":10,
			"componentType":5126,
			"count":184,
			"type":"VEC2"
		},
		{
			"bufferView":11,
			"componentType":5123,
			"count":420,
			"type":"SCALAR"
		},
		{
			"bufferView":12,
			"componentType":5126,
			"count":24,
			"max":[
				1,
				1,
				1
			],
			"min":[
				-1,
				-1,
				-1
			],
			"type":"VEC3"
		},
		{
			"bufferView":13,
			"componentType":5126,
			"count":24,
			"type":"VEC3"
		},
		{
			"bufferView":14,
			"componentType":5126,
			"count":24,
			"type":"VEC2"
		},
		{
			"bufferView":15,
			"componentType":5123,
			"count":36,
			"type":"SCALAR"
		},
		{
			"bufferView":16,
			"componentType":5126,
			"count":24,
			"max":[
				1,
				1,
				1
			],
			"min":[
				-1,
				-1,
				-1
			],
			"type":"VEC3"
		},
		{
			"bufferView":17,
			"componentType":5126,
			"count":24,
			"type":"VEC3"
		},
		{
			"bufferView":18,
			"componentType":5126,
			"count":24,
			"type":"VEC2"
		},
		{
			"bufferView":19,
			"componentType":5126,
			"count":24,
			"max":[
				1,
				1,
				1
			],
			"min":[
				-1,
				-1,
				-1
			],
			"type":"VEC3"
		},
		{
			"bufferView":20,
			"componentType":5126,
			"count":24,
			"type":"VEC3"
		},
		{
			"bufferView":21,
			"componentType":5126,
			"count":24,
			"type":"VEC2"
		},
		{
			"bufferView":22,
			"componentType":5126,
			"count":24,
			"max":[
				1,
				1,
				1
			],
			"min":[
				-1,
				-1,
				-1
			],
			"type":"VEC3"
		},
		{
			"bufferView":23,
			"componentType":5126,
			"count":24,
			"type":"VEC3"
		},
		{
			"bufferView":24,
			"componentType":5126,
			"count":24,
			"type":"VEC2"
		},
		{
			"bufferView":25,
			"componentType":5126,
			"count":60,
			"max":[
				0.8944249749183655,
				1,
				0.8506399989128113
			],
			"min":[
				-0.8944249749183655,
				-1,
				-0.8506399989128113
			],
			"type":"VEC3"
		},
		{
			"bufferView":26,
			"componentType":5126,
			"count":60,
			"type":"VEC3"
		},
		{
			"bufferView":27,
			"componentType":5126,
			"count":60,
			"type":"VEC2"
		},
		{
			"bufferView":28,
			"componentType":5123,
			"count":60,
			"type":"SCALAR"
		},
		{
			"bufferView":29,
			"componentType":5126,
			"count":48,
			"max":[
				1,
				1,
				1
			],
			"min":[
				-1,
				-1,
				-1
			],
			"type":"VEC3"
		},
		{
			"bufferView":30,
			"componentType":5126,
			"count":48,
			"type":"VEC3"
		},
		{
			"bufferView":31,
			"componentType":5126,
			"count":48,
			"type":"VEC2"
		},
		{
			"bufferView":32,
			"componentType":5123,
			"count":84,
			"type":"SCALAR"
		}
	],
	"bufferViews":[
		{
			"buffer":0,
			"byteLength":288,
			"byteOffset":0,
			"target":34962
		},
		{
			"buffer":0,
			"byteLength":288,
			"byteOffset":288,
			"target":34962
		},
		{
			"buffer":0,
			"byteLength":192,
			"byteOffset":576,
			"target":34962
		},
		{
			"buffer":0,
			"byteLength":72,
			"byteOffset":768,
			"target":34963
		},
		{
			"buffer":0,
			"byteLength":1152,
			"byteOffset":840,
			"target":34962
		},
		{
			"buffer":0,
			"byteLength":1152,
			"byteOffset":1992,
			"target":34962
		},
		{
			"buffer":0,
			"byteLength":768,
			"byteOffset":3144,
			"target":34962
		},
		{
			"buffer":0,
			"byteLength":288,
			"byteOffset":3912,
			"target":34963
		},
		{
			"buffer":0,
			"byteLength":2208,
			"byteOffset":4200,
			"target":34962
		},
		{
			"buffer":0,
			"byteLength":2208,
			"byteOffset":6408,
			"target":34962
		},
		{
			"buffer":0,
			"byteLength":1472,
			"byteOffset":8616,
			"target":34962
		},
		{
			"buffer":0,
			"byteLength":840,
			"byteOffset":10088,
			"target":34963
		},
		{
			"buffer":0,
			"byteLength":288,
			"byteOffset":10928,
			"target":34962
		},
		{
			"buffer":0,
			"byteLength":288,
			"byteOffset":11216,
			"target":34962
		},
		{
			"buffer":0,
			"byteLength":192,
			"byteOffset":11504,
			"target":34962
		},
		{
			"buffer":0,
			"byteLength":72,
			"byteOffset":11696,
			"target":34963
		},
		{
			"buffer":0,
			"byteLength":288,
			"byteOffset":11768,
			"target":34962
		},
		{
			"buffer":0,
			"byteLength":288,
			"byteOffset":12056,
			"target":34962
		},
		{
			"buffer":0,
			"byteLength":192,
			"byteOffset":12344,
			"target":34962
		},
		{
			"buffer":0,
			"byteLength":288,
			"byteOffset":12536,
			"target":34962
		},
		{
			"buffer":0,
			"byteLength":288,
			"byteOffset":12824,
			"target":34962
		},
		{
			"buffer":0,
			"byteLength":192,
			"byteOffset":13112,
			"target":34962
		},
		{
			"buffer":0,
			"byteLength":288,
			"byteOffset":13304,
			"target":34962
		},
		{
			"buffer":0,
			"byteLength":288,
			"byteOffset":13592,
			"target":34962
		},
		{
			"buffer":0,
			"byteLength":192,
			"byteOffset":13880,
			"target":34962
		},
		{
			"buffer":0,
			"byteLength":720,
			"byteOffset":14072,
			"target":34962
		},
		{
			"buffer":0,
			"byteLength":720,
			"byteOffset":14792,
			"target":34962
		},
		{
			"buffer":0,
			"byteLength":480,
			"byteOffset":15512,
			"target":34962
		},
		{
			"buffer":0,
			"byteLength":120,
			"byteOffset":15992,
			"target":34963
		},
		{
			"buffer":0,
			"byteLength":576,
			"byteOffset":16112,
			"target":34962
		},
		{
			"buffer":0,
			"byteLength":576,
			"byteOffset":16688,
			"target":34962
		},
		{
			"buffer":0,
			"byteLength":384,
			"byteOffset":17264,
			"target":34962
		},
		{
			"buffer":0,
			"byteLength":168,
			"byteOffset":17648,
			"target":34963
		}
	],
	"samplers":[
		{
			"magFilter":9729,
			"minFilter":9987
		}
	],
	"buffers":[
		{
			"byteLength":17816,
			"uri":"nightstand.bin"
		}
	]
}
