{
  "accessors": [
    {
      "bufferView": 2,
      "componentType": 5126,
      "count": 132,
      "max": [
        0.06898088753223419,
        0.0689806267619133,
        4.7772603034973145
      ],
      "min": [
        -0.06898035854101181,
        -0.0689806267619133,
        0.5546760559082031
      ],
      "type": "VEC3"
    },
    {
      "bufferView": 2,
      "byteOffset": 1584,
      "componentType": 5126,
      "count": 132,
      "max": [
        1.0,
        1.0,
        1.0
      ],
      "min": [
        -1.0,
        -1.0,
        -0.5592445731163025
      ],
      "type": "VEC3"
    },
    {
      "bufferView": 1,
      "componentType": 5126,
      "count": 132,
      "max": [
        0.9570950865745544,
        0.9901960492134094
      ],
      "min": [
        0.000354793417500332,
        0.00653304485604167
      ],
      "type": "VEC2"
    },
    {
      "bufferView": 0,
      "componentType": 5125,
      "count": 360,
      "type": "SCALAR"
    },
    {
      "bufferView": 2,
      "byteOffset": 3168,
      "componentType": 5126,
      "count": 1074,
      "max": [
        0.3385419249534607,
        0.3334812819957733,
        0.4651704728603363
      ],
      "min": [
        -0.2988745868206024,
        -0.3203413784503937,
        -0.5901464223861694
      ],
      "type": "VEC3"
    },
    {
      "bufferView": 2,
      "byteOffset": 16056,
      "componentType": 5126,
      "count": 1074,
      "max": [
        0.9986966252326965,
        0.983058512210846,
        0.9403882026672363
      ],
      "min": [
        -0.9995558261871338,
        -0.9938501715660095,
        -0.9962179660797119
      ],
      "type": "VEC3"
    },
    {
      "bufferView": 1,
      "byteOffset": 1056,
      "componentType": 5126,
      "count": 1074,
      "max": [
        0.9998687505722046,
        0.6455376148223877
      ],
      "min": [
        0.16584257781505585,
        0.0018836631206795573
      ],
      "type": "VEC2"
    },
    {
      "bufferView": 0,
      "byteOffset": 1440,
      "componentType": 5125,
      "count": 3840,
      "type": "SCALAR"
    },
    {
      "bufferView": 2,
      "byteOffset": 28944,
      "componentType": 5126,
      "count": 962,
      "max": [
        0.26132574677467346,
        0.28392985463142395,
        0.26907455921173096
      ],
      "min": [
        -0.3004918098449707,
        -0.29536497592926025,
        -0.28181272745132446
      ],
      "type": "VEC3"
    },
    {
      "bufferView": 2,
      "byteOffset": 40488,
      "componentType": 5126,
      "count": 962,
      "max": [
        0.9924220442771912,
        1.0,
        0.9011151790618896
      ],
      "min": [
        -0.9918543100357056,
        -1.0,
        -0.887139618396759
      ],
      "type": "VEC3"
    },
    {
      "bufferView": 1,
      "byteOffset": 9648,
      "componentType": 5126,
      "count": 962,
      "max": [
        0.9949522018432617,
        0.6458651423454285
      ],
      "min": [
        0.22431117296218872,
        0.0012632502475753427
      ],
      "type": "VEC2"
    },
    {
      "bufferView": 0,
      "byteOffset": 16800,
      "componentType": 5125,
      "count": 2820,
      "type": "SCALAR"
    },
    {
      "bufferView": 2,
      "byteOffset": 52032,
      "componentType": 5126,
      "count": 169,
      "max": [
        0.23499999940395355,
        0.2291080504655838,
        0.012990380637347698
      ],
      "min": [
        -0.23499999940395355,
        -0.2291080504655838,
        -0.012990380637347698
      ],
      "type": "VEC3"
    },
    {
      "bufferView": 2,
      "byteOffset": 54060,
      "componentType": 5126,
      "count": 169,
      "max": [
        1.0,
        0.9749295711517334,
        0.8966671228408813
      ],
      "min": [
        -1.0,
        -0.9749295711517334,
        -0.8966671228408813
      ],
      "type": "VEC3"
    },
    {
      "bufferView": 1,
      "byteOffset": 17344,
      "componentType": 5126,
      "count": 169,
      "max": [
        0.9925154447555542,
        0.5944886803627014
      ],
      "min": [
        0.1659197062253952,
        0.0007585834828205407
      ],
      "type": "VEC2"
    },
    {
      "bufferView": 0,
      "byteOffset": 28080,
      "componentType": 5125,
      "count": 504,
      "type": "SCALAR"
    },
    {
      "bufferView": 2,
      "byteOffset": 56088,
      "componentType": 5126,
      "count": 169,
      "max": [
        0.23499999940395355,
        0.2291080504655838,
        0.012990380637347698
      ],
      "min": [
        -0.23499999940395355,
        -0.2291080504655838,
        -0.012990380637347698
      ],
      "type": "VEC3"
    },
    {
      "bufferView": 2,
      "byteOffset": 58116,
      "componentType": 5126,
      "count": 169,
      "max": [
        1.0,
        0.9749295711517334,
        0.8966671228408813
      ],
      "min": [
        -1.0,
        -0.9749295711517334,
        -0.8966671228408813
      ],
      "type": "VEC3"
    },
    {
      "bufferView": 1,
      "byteOffset": 18696,
      "componentType": 5126,
      "count": 169,
      "max": [
        0.9925154447555542,
        0.6377418637275696
      ],
      "min": [
        0.194722518324852,
        0.0008905009599402547
      ],
      "type": "VEC2"
    },
    {
      "bufferView": 0,
      "byteOffset": 30096,
      "componentType": 5125,
      "count": 504,
      "type": "SCALAR"
    }
  ],
  "asset": {
    "extras": {
      "author": "anita.kotlarska (https://sketchfab.com/anita.kotlarska)",
      "license": "CC-BY-NC-4.0 (http://creativecommons.org/licenses/by-nc/4.0/)",
      "source": "https://sketchfab.com/3d-models/coat-hanger-39c2f99ec5fd41809febd39531c1fe07",
      "title": "Coat Hanger"
    },
    "generator": "Sketchfab-12.66.0",
    "version": "2.0"
  },
  "bufferViews": [
    {
      "buffer": 0,
      "byteLength": 32112,
      "name": "floatBufferViews",
      "target": 34963
    },
    {
      "buffer": 0,
      "byteLength": 20048,
      "byteOffset": 32112,
      "byteStride": 8,
      "name": "floatBufferViews",
      "target": 34962
    },
    {
      "buffer": 0,
      "byteLength": 60144,
      "byteOffset": 52160,
      "byteStride": 12,
      "name": "floatBufferViews",
      "target": 34962
    }
  ],
  "buffers": [
    {
      "byteLength": 112304,
      "uri": "scene.bin"
    }
  ],
  "images": [
    {
      "uri": "textures/Scene_-_Root_baseColor.png"
    },
    {
      "uri": "textures/Scene_-_Root_metallicRoughness.png"
    }
  ],
  "materials": [
    {
      "name": "Scene_-_Root",
      "occlusionTexture": {
        "index": 1
      },
      "pbrMetallicRoughness": {
        "baseColorTexture": {
          "index": 0
        },
        "metallicFactor": 0.0,
        "metallicRoughnessTexture": {
          "index": 1
        },
        "roughnessFactor": 0.28441272259935535
      }
    }
  ],
  "meshes": [
    {
      "name": "main__0",
      "primitives": [
        {
          "attributes": {
            "NORMAL": 1,
            "POSITION": 0,
            "TEXCOORD_0": 2
          },
          "indices": 3,
          "material": 0,
          "mode": 4
        }
      ]
    },
    {
      "name": "dol__0",
      "primitives": [
        {
          "attributes": {
            "NORMAL": 5,
            "POSITION": 4,
            "TEXCOORD_0": 6
          },
          "indices": 7,
          "material": 0,
          "mode": 4
        }
      ]
    },
    {
      "name": "BezierCurve__0",
      "primitives": [
        {
          "attributes": {
            "NORMAL": 9,
            "POSITION": 8,
            "TEXCOORD_0": 10
          },
          "indices": 11,
          "material": 0,
          "mode": 4
        }
      ]
    },
    {
      "name": "Torus.001__0",
      "primitives": [
        {
          "attributes": {
            "NORMAL": 13,
            "POSITION": 12,
            "TEXCOORD_0": 14
          },
          "indices": 15,
          "material": 0,
          "mode": 4
        }
      ]
    },
    {
      "name": "Torus.000__0",
      "primitives": [
        {
          "attributes": {
            "NORMAL": 17,
            "POSITION": 16,
            "TEXCOORD_0": 18
          },
          "indices": 19,
          "material": 0,
          "mode": 4
        }
      ]
    }
  ],
  "nodes": [
    {
      "children": [
        1
      ],
      "matrix": [
        1.0,
        0.0,
        0.0,
        0.0,
        0.0,
        2.220446049250313e-16,
        -1.0,
        0.0,
        0.0,
        1.0,
        2.220446049250313e-16,
        0.0,
        0.0,
        0.0,
        0.0,
        1.0
      ],
      "name": "Sketchfab_model"
    },
    {
      "children": [
        2
      ],
      "matrix": [
        1.0,
        0.0,
        0.0,
        0.0,
        0.0,
        0.0,
        1.0,
        0.0,
        0.0,
        -1.0,
        0.0,
        0.0,
        0.0,
        0.0,
        0.0,
        1.0
      ],
      "name": "42ebf846f34441b79948f0bfa7e18f54.fbx"
    },
    {
      "children": [
        3,
        5,
        7,
        9,
        11
      ],
      "name": "RootNode"
    },
    {
      "children": [
        4
      ],
      "matrix": [
        65.25653839111328,
        0.0,
        0.0,
        0.0,
        0.0,
        -1.0631639569439305e-05,
        -65.25653839111241,
        0.0,
        0.0,
        65.25653839111241,
        -1.0631639569439305e-05,
        0.0,
        0.0,
        0.0,
        0.0,
        1.0
      ],
      "name": "main"
    },
    {
      "mesh": 0,
      "name": "main__0"
    },
    {
      "children": [
        6
      ],
      "matrix": [
        34.20201487182659,
        5.551115123125783e-15,
        -93.96926188231633,
        0.0,
        -93.96926188231625,
        -4.371138984105016e-06,
        -34.202014871826556,
        0.0,
        -4.107527046270931e-06,
        99.9999999999999,
        -1.4950175986072622e-06,
        0.0,
        0.0,
        58.94289016723633,
        5.401670932769775e-06,
        1.0
      ],
      "name": "dol"
    },
    {
      "mesh": 1,
      "name": "dol__0"
    },
    {
      "children": [
        8
      ],
      "matrix": [
        100.0,
        0.0,
        0.0,
        0.0,
        0.0,
        -1.629206793918314e-05,
        -99.99999999999868,
        0.0,
        0.0,
        99.99999999999868,
        -1.629206793918314e-05,
        0.0,
        0.0,
        270.1969909667969,
        0.0,
        1.0
      ],
      "name": "BezierCurve"
    },
    {
      "mesh": 2,
      "name": "BezierCurve__0"
    },
    {
      "children": [
        10
      ],
      "matrix": [
        96.61544036865234,
        0.0,
        0.0,
        0.0,
        0.0,
        -1.5740653184601813e-05,
        -96.61544036865106,
        0.0,
        0.0,
        96.61544036865106,
        -1.5740653184601813e-05,
        0.0,
        0.0,
        282.2839050292969,
        0.0,
        1.0
      ],
      "name": "Torus.001"
    },
    {
      "mesh": 3,
      "name": "Torus.001__0"
    },
    {
      "children": [
        12
      ],
      "matrix": [
        132.61109924316406,
        0.0,
        0.0,
        0.0,
        0.0,
        -2.160509038359387e-05,
        -132.6110992431623,
        0.0,
        0.0,
        132.6110992431623,
        -2.160509038359387e-05,
        0.0,
        0.0,
        107.11845397949219,
        0.0,
        1.0
      ],
      "name": "Torus.000"
    },
    {
      "mesh": 4,
      "name": "Torus.000__0"
    }
  ],
  "samplers": [
    {
      "magFilter": 9729,
      "minFilter": 9987,
      "wrapS": 10497,
      "wrapT": 10497
    }
  ],
  "scene": 0,
  "scenes": [
    {
      "name": "Sketchfab_Scene",
      "nodes": [
        0
      ]
    }
  ],
  "textures": [
    {
      "sampler": 0,
      "source": 0
    },
    {
      "sampler": 0,
      "source": 1
    }
  ]
}
