{
	"asset": {
		"generator": "Khronos glTF Blender I/O v4.4.56",
		"version": "2.0"
	},
	"scene": 0,
	"scenes": [
		{
			"name": "Scene",
			"nodes": [
				0,
				1,
				2,
				3,
				4
			]
		}
	],
	"nodes": [
		{
			"name": "Empty",
			"scale": [
				5,
				5,
				5
			]
		},
		{
			"mesh": 0,
			"name": "WestSideWalls",
			"rotation": [
				0,
				0.7071068286895752,
				0,
				0.7071068286895752
			],
			"scale": [
				9.4016752243042,
				0.75,
				0.38381683826446533
			],
			"translation": [
				-5.330374717712402,
				0,
				1.555893898010254
			]
		},
		{
			"mesh": 1,
			"name": "EastSideWalls",
			"scale": [
				2.920523166656494,
				0.75,
				0.5
			],
			"translation": [
				3.0610458850860596,
				0,
				-0.7227358818054199
			]
		},
		{
			"mesh": 2,
			"name": "Floor",
			"translation": [
				-1.9640873670578003,
				0,
				-1.2190887928009033
			]
		},
		{
			"mesh": 3,
			"name": "Ceiling",
			"translation": [
				-1.9640873670578003,
				3.75,
				-1.2190887928009033
			]
		}
	],
	"materials": [
		{
			"doubleSided": true,
			"name": "painted_plaster_wall",
			"normalTexture": {
				"index": 0,
				"scale": 0.3
			},
			"pbrMetallicRoughness": {
				"baseColorTexture": {
					"index": 1
				},
				"metallicFactor": 0,
				"metallicRoughnessTexture": {
					"index": 2
				},
				"baseColorFactor": [
					0.89,
					0.93,
					0.9,
					1
				]
			}
		},
		{
			"doubleSided": true,
			"name": "wood_floor_worn",
			"normalTexture": {
				"index": 3,
				"scale": 0.5
			},
			"pbrMetallicRoughness": {
				"baseColorTexture": {
					"index": 4
				},
				"metallicFactor": 0,
				"metallicRoughnessTexture": {
					"index": 5
				},
				"baseColorFactor": [
					0.68,
					0.78,
					0.88,
					1
				]
			}
		},
		{
			"doubleSided": true,
			"name": "ceiling_interior",
			"normalTexture": {
				"index": 6,
				"scale": 0.18
			},
			"pbrMetallicRoughness": {
				"baseColorTexture": {
					"index": 7
				},
				"metallicFactor": 0,
				"metallicRoughnessTexture": {
					"index": 8
				},
				"baseColorFactor": [
					0.96,
					0.97,
					1,
					1
				]
			}
		}
	],
	"meshes": [
		{
			"name": "Plane.001",
			"primitives": [
				{
					"attributes": {
						"POSITION": 0,
						"NORMAL": 1,
						"TEXCOORD_0": 2
					},
					"indices": 3,
					"material": 0
				}
			]
		},
		{
			"name": "Plane.005",
			"primitives": [
				{
					"attributes": {
						"POSITION": 4,
						"NORMAL": 5,
						"TEXCOORD_0": 6
					},
					"indices": 7,
					"material": 0
				}
			]
		},
		{
			"name": "Plane",
			"primitives": [
				{
					"attributes": {
						"POSITION": 8,
						"NORMAL": 9,
						"TEXCOORD_0": 10
					},
					"indices": 11,
					"material": 1
				}
			]
		},
		{
			"name": "Plane.002",
			"primitives": [
				{
					"attributes": {
						"POSITION": 12,
						"NORMAL": 13,
						"TEXCOORD_0": 14
					},
					"indices": 15,
					"material": 2
				}
			]
		}
	],
	"textures": [
		{
			"sampler": 0,
			"source": 0
		},
		{
			"sampler": 0,
			"source": 1
		},
		{
			"sampler": 0,
			"source": 2
		},
		{
			"sampler": 0,
			"source": 3
		},
		{
			"sampler": 0,
			"source": 4
		},
		{
			"sampler": 0,
			"source": 5
		},
		{
			"sampler": 0,
			"source": 6
		},
		{
			"sampler": 0,
			"source": 7
		},
		{
			"sampler": 0,
			"source": 8
		}
	],
	"images": [
		{
			"mimeType": "image/png",
			"name": "painted_plaster_wall_nor_gl",
			"uri": "painted_plaster_wall_nor_gl.png"
		},
		{
			"mimeType": "image/jpeg",
			"name": "painted_plaster_wall_diff_2k",
			"uri": "painted_plaster_wall_diff_2k.jpg"
		},
		{
			"mimeType": "image/png",
			"name": "painted_plaster_wall_rough",
			"uri": "painted_plaster_wall_rough.png"
		},
		{
			"mimeType": "image/png",
			"name": "wood_floor_worn_nor_gl",
			"uri": "wood_floor_worn_nor_gl.png"
		},
		{
			"mimeType": "image/jpeg",
			"name": "wood_floor_worn_diff_2k",
			"uri": "wood_floor_worn_diff_2k.jpg"
		},
		{
			"mimeType": "image/png",
			"name": "wood_floor_worn_rough",
			"uri": "wood_floor_worn_rough.png"
		},
		{
			"mimeType": "image/png",
			"name": "ceiling_interior_nor_gl",
			"uri": "ceiling_interior_nor_gl.png"
		},
		{
			"mimeType": "image/jpeg",
			"name": "ceiling_interior_diff_2k",
			"uri": "ceiling_interior_diff_2k.jpg"
		},
		{
			"mimeType": "image/png",
			"name": "ceiling_interior_rough",
			"uri": "ceiling_interior_rough.png"
		}
	],
	"accessors": [
		{
			"bufferView": 0,
			"componentType": 5126,
			"count": 322,
			"max": [
				1.0090047121047974,
				5,
				31.002281188964844
			],
			"min": [
				-0.9159565567970276,
				0,
				-1.1470472812652588
			],
			"type": "VEC3"
		},
		{
			"bufferView": 1,
			"componentType": 5126,
			"count": 322,
			"type": "VEC3"
		},
		{
			"bufferView": 16,
			"componentType": 5126,
			"count": 322,
			"type": "VEC2",
			"byteOffset": 0
		},
		{
			"bufferView": 3,
			"componentType": 5123,
			"count": 708,
			"type": "SCALAR"
		},
		{
			"bufferView": 4,
			"componentType": 5126,
			"count": 254,
			"max": [
				1.1990480422973633,
				4.999999523162842,
				3.4268877506256104
			],
			"min": [
				-1.618094801902771,
				0,
				-14.488981246948242
			],
			"type": "VEC3"
		},
		{
			"bufferView": 5,
			"componentType": 5126,
			"count": 254,
			"type": "VEC3"
		},
		{
			"bufferView": 17,
			"componentType": 5126,
			"count": 254,
			"type": "VEC2",
			"byteOffset": 0
		},
		{
			"bufferView": 7,
			"componentType": 5123,
			"count": 672,
			"type": "SCALAR"
		},
		{
			"bufferView": 8,
			"componentType": 5126,
			"count": 12,
			"max": [
				8.483850479125977,
				0,
				10.820438385009766
			],
			"min": [
				-3.065678119659424,
				0,
				-6.079537391662598
			],
			"type": "VEC3"
		},
		{
			"bufferView": 9,
			"componentType": 5126,
			"count": 12,
			"type": "VEC3"
		},
		{
			"bufferView": 18,
			"componentType": 5126,
			"count": 12,
			"type": "VEC2",
			"byteOffset": 0
		},
		{
			"bufferView": 11,
			"componentType": 5123,
			"count": 30,
			"type": "SCALAR"
		},
		{
			"bufferView": 12,
			"componentType": 5126,
			"count": 12,
			"max": [
				8.483850479125977,
				0,
				10.820438385009766
			],
			"min": [
				-3.065678119659424,
				0,
				-6.079537391662598
			],
			"type": "VEC3"
		},
		{
			"bufferView": 13,
			"componentType": 5126,
			"count": 12,
			"type": "VEC3"
		},
		{
			"bufferView": 19,
			"componentType": 5126,
			"count": 12,
			"type": "VEC2",
			"byteOffset": 0
		},
		{
			"bufferView": 15,
			"componentType": 5123,
			"count": 30,
			"type": "SCALAR"
		}
	],
	"bufferViews": [
		{
			"buffer": 0,
			"byteLength": 3864,
			"byteOffset": 0,
			"target": 34962
		},
		{
			"buffer": 0,
			"byteLength": 3864,
			"byteOffset": 3864,
			"target": 34962
		},
		{
			"buffer": 0,
			"byteLength": 2576,
			"byteOffset": 7728,
			"target": 34962
		},
		{
			"buffer": 0,
			"byteLength": 1416,
			"byteOffset": 10304,
			"target": 34963
		},
		{
			"buffer": 0,
			"byteLength": 3048,
			"byteOffset": 11720,
			"target": 34962
		},
		{
			"buffer": 0,
			"byteLength": 3048,
			"byteOffset": 14768,
			"target": 34962
		},
		{
			"buffer": 0,
			"byteLength": 2032,
			"byteOffset": 17816,
			"target": 34962
		},
		{
			"buffer": 0,
			"byteLength": 1344,
			"byteOffset": 19848,
			"target": 34963
		},
		{
			"buffer": 0,
			"byteLength": 144,
			"byteOffset": 21192,
			"target": 34962
		},
		{
			"buffer": 0,
			"byteLength": 144,
			"byteOffset": 21336,
			"target": 34962
		},
		{
			"buffer": 0,
			"byteLength": 96,
			"byteOffset": 21480,
			"target": 34962
		},
		{
			"buffer": 0,
			"byteLength": 60,
			"byteOffset": 21576,
			"target": 34963
		},
		{
			"buffer": 0,
			"byteLength": 144,
			"byteOffset": 21636,
			"target": 34962
		},
		{
			"buffer": 0,
			"byteLength": 144,
			"byteOffset": 21780,
			"target": 34962
		},
		{
			"buffer": 0,
			"byteLength": 96,
			"byteOffset": 21924,
			"target": 34962
		},
		{
			"buffer": 0,
			"byteLength": 60,
			"byteOffset": 22020,
			"target": 34963
		},
		{
			"buffer": 1,
			"byteOffset": 0,
			"byteLength": 2576,
			"target": 34962
		},
		{
			"buffer": 1,
			"byteOffset": 2576,
			"byteLength": 2032,
			"target": 34962
		},
		{
			"buffer": 1,
			"byteOffset": 4608,
			"byteLength": 96,
			"target": 34962
		},
		{
			"buffer": 1,
			"byteOffset": 4704,
			"byteLength": 96,
			"target": 34962
		}
	],
	"samplers": [
		{
			"magFilter": 9729,
			"minFilter": 9987
		}
	],
	"buffers": [
		{
			"byteLength": 22080,
			"uri": "apartment_shell.bin"
		},
		{
			"uri": "data:application/octet-stream;base64,",
			"byteLength": 4800
		}
	]
}
