{
  "accessors": [
    {
      "bufferView": 2,
      "componentType": 5126,
      "count": 74,
      "max": [
        2.200000047683716,
        2.200000047683716,
        1.0418712292903365e-07
      ],
      "min": [
        0.0,
        0.0,
        -0.10000012069940567
      ],
      "type": "VEC3"
    },
    {
      "bufferView": 2,
      "byteOffset": 888,
      "componentType": 5126,
      "count": 74,
      "type": "VEC3"
    },
    {
      "bufferView": 3,
      "componentType": 5126,
      "count": 74,
      "type": "VEC4"
    },
    {
      "bufferView": 1,
      "componentType": 5126,
      "count": 74,
      "type": "VEC2"
    },
    {
      "bufferView": 1,
      "byteOffset": 592,
      "componentType": 5126,
      "count": 74,
      "type": "VEC2"
    },
    {
      "bufferView": 1,
      "byteOffset": 1184,
      "componentType": 5126,
      "count": 74,
      "type": "VEC2"
    },
    {
      "bufferView": 1,
      "byteOffset": 1776,
      "componentType": 5126,
      "count": 74,
      "type": "VEC2"
    },
    {
      "bufferView": 0,
      "componentType": 5125,
      "count": 120,
      "type": "SCALAR"
    },
    {
      "bufferView": 2,
      "byteOffset": 1776,
      "componentType": 5126,
      "count": 42,
      "max": [
        1.7999999523162842,
        1.899999976158142,
        0.10000000894069672
      ],
      "min": [
        0.40000009536743164,
        1.8000000715255737,
        -1.5099581673894136e-07
      ],
      "type": "VEC3"
    },
    {
      "bufferView": 2,
      "byteOffset": 2280,
      "componentType": 5126,
      "count": 42,
      "type": "VEC3"
    },
    {
      "bufferView": 3,
      "byteOffset": 1184,
      "componentType": 5126,
      "count": 42,
      "type": "VEC4"
    },
    {
      "bufferView": 1,
      "byteOffset": 2368,
      "componentType": 5126,
      "count": 42,
      "type": "VEC2"
    },
    {
      "bufferView": 1,
      "byteOffset": 2704,
      "componentType": 5126,
      "count": 42,
      "type": "VEC2"
    },
    {
      "bufferView": 1,
      "byteOffset": 3040,
      "componentType": 5126,
      "count": 42,
      "type": "VEC2"
    },
    {
      "bufferView": 1,
      "byteOffset": 3376,
      "componentType": 5126,
      "count": 42,
      "type": "VEC2"
    },
    {
      "bufferView": 0,
      "byteOffset": 480,
      "componentType": 5125,
      "count": 66,
      "type": "SCALAR"
    },
    {
      "bufferView": 2,
      "byteOffset": 2784,
      "componentType": 5126,
      "count": 248,
      "max": [
        1.7142856121063232,
        1.8000001907348633,
        0.015604838728904724
      ],
      "min": [
        0.5142855048179626,
        0.9000000953674316,
        -0.1500001847743988
      ],
      "type": "VEC3"
    },
    {
      "bufferView": 2,
      "byteOffset": 5760,
      "componentType": 5126,
      "count": 248,
      "type": "VEC3"
    },
    {
      "bufferView": 3,
      "byteOffset": 1856,
      "componentType": 5126,
      "count": 248,
      "type": "VEC4"
    },
    {
      "bufferView": 1,
      "byteOffset": 3712,
      "componentType": 5126,
      "count": 248,
      "type": "VEC2"
    },
    {
      "bufferView": 1,
      "byteOffset": 5696,
      "componentType": 5126,
      "count": 248,
      "type": "VEC2"
    },
    {
      "bufferView": 1,
      "byteOffset": 7680,
      "componentType": 5126,
      "count": 248,
      "type": "VEC2"
    },
    {
      "bufferView": 1,
      "byteOffset": 9664,
      "componentType": 5126,
      "count": 248,
      "type": "VEC2"
    },
    {
      "bufferView": 0,
      "byteOffset": 744,
      "componentType": 5125,
      "count": 372,
      "type": "SCALAR"
    },
    {
      "bufferView": 2,
      "byteOffset": 8736,
      "componentType": 5126,
      "count": 12,
      "max": [
        1.6697968244552612,
        1.7550004720687866,
        -0.008860588073730469
      ],
      "min": [
        0.558774471282959,
        0.9449998736381531,
        -0.14611788094043732
      ],
      "type": "VEC3"
    },
    {
      "bufferView": 2,
      "byteOffset": 8880,
      "componentType": 5126,
      "count": 12,
      "type": "VEC3"
    },
    {
      "bufferView": 1,
      "byteOffset": 11648,
      "componentType": 5126,
      "count": 12,
      "type": "VEC2"
    },
    {
      "bufferView": 1,
      "byteOffset": 11744,
      "componentType": 5126,
      "count": 12,
      "type": "VEC2"
    },
    {
      "bufferView": 0,
      "byteOffset": 2232,
      "componentType": 5125,
      "count": 18,
      "type": "SCALAR"
    },
    {
      "bufferView": 2,
      "byteOffset": 9024,
      "componentType": 5126,
      "count": 64,
      "max": [
        2.200000047683716,
        2.200000047683716,
        9.616505280973797e-08
      ],
      "min": [
        0.0,
        -9.616505280973797e-08,
        -0.09999993443489075
      ],
      "type": "VEC3"
    },
    {
      "bufferView": 2,
      "byteOffset": 9792,
      "componentType": 5126,
      "count": 64,
      "type": "VEC3"
    },
    {
      "bufferView": 3,
      "byteOffset": 5824,
      "componentType": 5126,
      "count": 64,
      "type": "VEC4"
    },
    {
      "bufferView": 1,
      "byteOffset": 11840,
      "componentType": 5126,
      "count": 64,
      "type": "VEC2"
    },
    {
      "bufferView": 1,
      "byteOffset": 12352,
      "componentType": 5126,
      "count": 64,
      "type": "VEC2"
    },
    {
      "bufferView": 1,
      "byteOffset": 12864,
      "componentType": 5126,
      "count": 64,
      "type": "VEC2"
    },
    {
      "bufferView": 1,
      "byteOffset": 13376,
      "componentType": 5126,
      "count": 64,
      "type": "VEC2"
    },
    {
      "bufferView": 0,
      "byteOffset": 2304,
      "componentType": 5125,
      "count": 96,
      "type": "SCALAR"
    },
    {
      "bufferView": 2,
      "byteOffset": 10560,
      "componentType": 5126,
      "count": 40,
      "max": [
        1.9000002145767212,
        1.850000023841858,
        0.050000082701444626
      ],
      "min": [
        1.25,
        0.7999998927116394,
        5.463923713477925e-08
      ],
      "type": "VEC3"
    },
    {
      "bufferView": 2,
      "byteOffset": 11040,
      "componentType": 5126,
      "count": 40,
      "type": "VEC3"
    },
    {
      "bufferView": 3,
      "byteOffset": 6848,
      "componentType": 5126,
      "count": 40,
      "type": "VEC4"
    },
    {
      "bufferView": 1,
      "byteOffset": 13888,
      "componentType": 5126,
      "count": 40,
      "type": "VEC2"
    },
    {
      "bufferView": 1,
      "byteOffset": 14208,
      "componentType": 5126,
      "count": 40,
      "type": "VEC2"
    },
    {
      "bufferView": 1,
      "byteOffset": 14528,
      "componentType": 5126,
      "count": 40,
      "type": "VEC2"
    },
    {
      "bufferView": 1,
      "byteOffset": 14848,
      "componentType": 5126,
      "count": 40,
      "type": "VEC2"
    },
    {
      "bufferView": 0,
      "byteOffset": 2688,
      "componentType": 5125,
      "count": 60,
      "type": "SCALAR"
    },
    {
      "bufferView": 2,
      "byteOffset": 11520,
      "componentType": 5126,
      "count": 240,
      "max": [
        1.9000003337860107,
        1.8000001907348633,
        0.009999863803386688
      ],
      "min": [
        1.250000238418579,
        0.9000000953674316,
        -0.1300000101327896
      ],
      "type": "VEC3"
    },
    {
      "bufferView": 2,
      "byteOffset": 14400,
      "componentType": 5126,
      "count": 240,
      "type": "VEC3"
    },
    {
      "bufferView": 3,
      "byteOffset": 7488,
      "componentType": 5126,
      "count": 240,
      "type": "VEC4"
    },
    {
      "bufferView": 1,
      "byteOffset": 15168,
      "componentType": 5126,
      "count": 240,
      "type": "VEC2"
    },
    {
      "bufferView": 1,
      "byteOffset": 17088,
      "componentType": 5126,
      "count": 240,
      "type": "VEC2"
    },
    {
      "bufferView": 1,
      "byteOffset": 19008,
      "componentType": 5126,
      "count": 240,
      "type": "VEC2"
    },
    {
      "bufferView": 1,
      "byteOffset": 20928,
      "componentType": 5126,
      "count": 240,
      "type": "VEC2"
    },
    {
      "bufferView": 0,
      "byteOffset": 2928,
      "componentType": 5125,
      "count": 360,
      "type": "SCALAR"
    },
    {
      "bufferView": 2,
      "byteOffset": 17280,
      "componentType": 5126,
      "count": 12,
      "max": [
        1.8550004959106445,
        1.7503349781036377,
        -0.014820590615272522
      ],
      "min": [
        1.2950003147125244,
        0.9450000524520874,
        -0.12999986112117767
      ],
      "type": "VEC3"
    },
    {
      "bufferView": 2,
      "byteOffset": 17424,
      "componentType": 5126,
      "count": 12,
      "type": "VEC3"
    },
    {
      "bufferView": 1,
      "byteOffset": 22848,
      "componentType": 5126,
      "count": 12,
      "type": "VEC2"
    },
    {
      "bufferView": 1,
      "byteOffset": 22944,
      "componentType": 5126,
      "count": 12,
      "type": "VEC2"
    },
    {
      "bufferView": 0,
      "byteOffset": 4368,
      "componentType": 5125,
      "count": 18,
      "type": "SCALAR"
    },
    {
      "bufferView": 2,
      "byteOffset": 17568,
      "componentType": 5126,
      "count": 4,
      "max": [
        0.0,
        0.0,
        1.1920928955078125e-07
      ],
      "min": [
        -2.200000047683716,
        0.0,
        -2.1999998092651367
      ],
      "type": "VEC3"
    },
    {
      "bufferView": 2,
      "byteOffset": 17616,
      "componentType": 5126,
      "count": 4,
      "type": "VEC3"
    },
    {
      "bufferView": 3,
      "byteOffset": 11328,
      "componentType": 5126,
      "count": 4,
      "type": "VEC4"
    },
    {
      "bufferView": 1,
      "byteOffset": 23040,
      "componentType": 5126,
      "count": 4,
      "type": "VEC2"
    },
    {
      "bufferView": 1,
      "byteOffset": 23072,
      "componentType": 5126,
      "count": 4,
      "type": "VEC2"
    },
    {
      "bufferView": 1,
      "byteOffset": 23104,
      "componentType": 5126,
      "count": 4,
      "type": "VEC2"
    },
    {
      "bufferView": 1,
      "byteOffset": 23136,
      "componentType": 5126,
      "count": 4,
      "type": "VEC2"
    },
    {
      "bufferView": 0,
      "byteOffset": 4440,
      "componentType": 5125,
      "count": 6,
      "type": "SCALAR"
    },
    {
      "bufferView": 2,
      "byteOffset": 17664,
      "componentType": 5126,
      "count": 320,
      "max": [
        2.200000047683716,
        2.200000286102295,
        0.9999999403953552
      ],
      "min": [
        8.493661880493164e-07,
        -3.3527612686157227e-08,
        -2.682209014892578e-07
      ],
      "type": "VEC3"
    },
    {
      "bufferView": 2,
      "byteOffset": 21504,
      "componentType": 5126,
      "count": 320,
      "type": "VEC3"
    },
    {
      "bufferView": 3,
      "byteOffset": 11392,
      "componentType": 5126,
      "count": 320,
      "type": "VEC4"
    },
    {
      "bufferView": 1,
      "byteOffset": 23168,
      "componentType": 5126,
      "count": 320,
      "type": "VEC2"
    },
    {
      "bufferView": 1,
      "byteOffset": 25728,
      "componentType": 5126,
      "count": 320,
      "type": "VEC2"
    },
    {
      "bufferView": 1,
      "byteOffset": 28288,
      "componentType": 5126,
      "count": 320,
      "type": "VEC2"
    },
    {
      "bufferView": 1,
      "byteOffset": 30848,
      "componentType": 5126,
      "count": 320,
      "type": "VEC2"
    },
    {
      "bufferView": 0,
      "byteOffset": 4464,
      "componentType": 5125,
      "count": 450,
      "type": "SCALAR"
    },
    {
      "bufferView": 2,
      "byteOffset": 25344,
      "componentType": 5126,
      "count": 15390,
      "max": [
        0.5664233565330505,
        1.771356225013733,
        0.11789534986019135
      ],
      "min": [
        -0.5380505919456482,
        0.011692111380398273,
        -0.15112335979938507
      ],
      "type": "VEC3"
    },
    {
      "bufferView": 2,
      "byteOffset": 210024,
      "componentType": 5126,
      "count": 15390,
      "type": "VEC3"
    },
    {
      "bufferView": 1,
      "byteOffset": 33408,
      "componentType": 5126,
      "count": 15390,
      "type": "VEC2"
    },
    {
      "bufferView": 1,
      "byteOffset": 156528,
      "componentType": 5126,
      "count": 15390,
      "type": "VEC2"
    },
    {
      "bufferView": 1,
      "byteOffset": 279648,
      "componentType": 5126,
      "count": 15390,
      "type": "VEC2"
    },
    {
      "bufferView": 0,
      "byteOffset": 6264,
      "componentType": 5125,
      "count": 23058,
      "type": "SCALAR"
    },
    {
      "bufferView": 2,
      "byteOffset": 394704,
      "componentType": 5126,
      "count": 16,
      "max": [
        1.0000003576278687,
        0.2000006139278412,
        0.9999998211860657
      ],
      "min": [
        2.2351741790771484e-07,
        -8.344650268554688e-07,
        -2.384185791015625e-07
      ],
      "type": "VEC3"
    },
    {
      "bufferView": 2,
      "byteOffset": 394896,
      "componentType": 5126,
      "count": 16,
      "type": "VEC3"
    },
    {
      "bufferView": 3,
      "byteOffset": 16512,
      "componentType": 5126,
      "count": 16,
      "type": "VEC4"
    },
    {
      "bufferView": 1,
      "byteOffset": 402768,
      "componentType": 5126,
      "count": 16,
      "type": "VEC2"
    },
    {
      "bufferView": 1,
      "byteOffset": 402896,
      "componentType": 5126,
      "count": 16,
      "type": "VEC2"
    },
    {
      "bufferView": 1,
      "byteOffset": 403024,
      "componentType": 5126,
      "count": 16,
      "type": "VEC2"
    },
    {
      "bufferView": 1,
      "byteOffset": 403152,
      "componentType": 5126,
      "count": 16,
      "type": "VEC2"
    },
    {
      "bufferView": 0,
      "byteOffset": 98496,
      "componentType": 5125,
      "count": 24,
      "type": "SCALAR"
    },
    {
      "bufferView": 2,
      "byteOffset": 395088,
      "componentType": 5126,
      "count": 16,
      "max": [
        2.200000286102295,
        0.2000006139278412,
        0.9999998211860657
      ],
      "min": [
        2.2351741790771484e-07,
        -8.344650268554688e-07,
        -2.384185791015625e-07
      ],
      "type": "VEC3"
    },
    {
      "bufferView": 2,
      "byteOffset": 395280,
      "componentType": 5126,
      "count": 16,
      "type": "VEC3"
    },
    {
      "bufferView": 3,
      "byteOffset": 16768,
      "componentType": 5126,
      "count": 16,
      "type": "VEC4"
    },
    {
      "bufferView": 1,
      "byteOffset": 403280,
      "componentType": 5126,
      "count": 16,
      "type": "VEC2"
    },
    {
      "bufferView": 1,
      "byteOffset": 403408,
      "componentType": 5126,
      "count": 16,
      "type": "VEC2"
    },
    {
      "bufferView": 1,
      "byteOffset": 403536,
      "componentType": 5126,
      "count": 16,
      "type": "VEC2"
    },
    {
      "bufferView": 1,
      "byteOffset": 403664,
      "componentType": 5126,
      "count": 16,
      "type": "VEC2"
    },
    {
      "bufferView": 0,
      "byteOffset": 98592,
      "componentType": 5125,
      "count": 24,
      "type": "SCALAR"
    },
    {
      "bufferView": 2,
      "byteOffset": 395472,
      "componentType": 5126,
      "count": 56,
      "max": [
        0.49999988079071045,
        2.200000047683716,
        0.09999998658895493
      ],
      "min": [
        -0.10000045597553253,
        -8.742300217079446e-09,
        -0.5
      ],
      "type": "VEC3"
    },
    {
      "bufferView": 2,
      "byteOffset": 396144,
      "componentType": 5126,
      "count": 56,
      "type": "VEC3"
    },
    {
      "bufferView": 3,
      "byteOffset": 17024,
      "componentType": 5126,
      "count": 56,
      "type": "VEC4"
    },
    {
      "bufferView": 1,
      "byteOffset": 403792,
      "componentType": 5126,
      "count": 56,
      "type": "VEC2"
    },
    {
      "bufferView": 1,
      "byteOffset": 404240,
      "componentType": 5126,
      "count": 56,
      "type": "VEC2"
    },
    {
      "bufferView": 1,
      "byteOffset": 404688,
      "componentType": 5126,
      "count": 56,
      "type": "VEC2"
    },
    {
      "bufferView": 1,
      "byteOffset": 405136,
      "componentType": 5126,
      "count": 56,
      "type": "VEC2"
    },
    {
      "bufferView": 0,
      "byteOffset": 98688,
      "componentType": 5125,
      "count": 96,
      "type": "SCALAR"
    },
    {
      "bufferView": 2,
      "byteOffset": 396816,
      "componentType": 5126,
      "count": 24,
      "max": [
        0.4999998211860657,
        0.30000022053718567,
        0.09999999403953552
      ],
      "min": [
        -0.10000040382146835,
        -9.059746730599727e-08,
        -0.5
      ],
      "type": "VEC3"
    },
    {
      "bufferView": 2,
      "byteOffset": 397104,
      "componentType": 5126,
      "count": 24,
      "type": "VEC3"
    },
    {
      "bufferView": 3,
      "byteOffset": 17920,
      "componentType": 5126,
      "count": 24,
      "type": "VEC4"
    },
    {
      "bufferView": 1,
      "byteOffset": 405584,
      "componentType": 5126,
      "count": 24,
      "type": "VEC2"
    },
    {
      "bufferView": 1,
      "byteOffset": 405776,
      "componentType": 5126,
      "count": 24,
      "type": "VEC2"
    },
    {
      "bufferView": 1,
      "byteOffset": 405968,
      "componentType": 5126,
      "count": 24,
      "type": "VEC2"
    },
    {
      "bufferView": 1,
      "byteOffset": 406160,
      "componentType": 5126,
      "count": 24,
      "type": "VEC2"
    },
    {
      "bufferView": 0,
      "byteOffset": 99072,
      "componentType": 5125,
      "count": 36,
      "type": "SCALAR"
    },
    {
      "bufferView": 2,
      "byteOffset": 397392,
      "componentType": 5126,
      "count": 52,
      "max": [
        2.200000047683716,
        0.0,
        2.0
      ],
      "min": [
        -1.1920928955078125e-07,
        -0.4000000059604645,
        -1.9233009140862123e-07
      ],
      "type": "VEC3"
    },
    {
      "bufferView": 2,
      "byteOffset": 398016,
      "componentType": 5126,
      "count": 52,
      "type": "VEC3"
    },
    {
      "bufferView": 3,
      "byteOffset": 18304,
      "componentType": 5126,
      "count": 52,
      "type": "VEC4"
    },
    {
      "bufferView": 1,
      "byteOffset": 406352,
      "componentType": 5126,
      "count": 52,
      "type": "VEC2"
    },
    {
      "bufferView": 1,
      "byteOffset": 406768,
      "componentType": 5126,
      "count": 52,
      "type": "VEC2"
    },
    {
      "bufferView": 1,
      "byteOffset": 407184,
      "componentType": 5126,
      "count": 52,
      "type": "VEC2"
    },
    {
      "bufferView": 1,
      "byteOffset": 407600,
      "componentType": 5126,
      "count": 52,
      "type": "VEC2"
    },
    {
      "bufferView": 0,
      "byteOffset": 99216,
      "componentType": 5125,
      "count": 102,
      "type": "SCALAR"
    },
    {
      "bufferView": 2,
      "byteOffset": 398640,
      "componentType": 5126,
      "count": 41,
      "max": [
        2.200000286102295,
        0.0,
        2.0
      ],
      "min": [
        3.178652008273275e-08,
        -0.4000000059604645,
        -2.8529677820188226e-07
      ],
      "type": "VEC3"
    },
    {
      "bufferView": 2,
      "byteOffset": 399132,
      "componentType": 5126,
      "count": 41,
      "type": "VEC3"
    },
    {
      "bufferView": 3,
      "byteOffset": 19136,
      "componentType": 5126,
      "count": 41,
      "type": "VEC4"
    },
    {
      "bufferView": 1,
      "byteOffset": 408016,
      "componentType": 5126,
      "count": 41,
      "type": "VEC2"
    },
    {
      "bufferView": 1,
      "byteOffset": 408344,
      "componentType": 5126,
      "count": 41,
      "type": "VEC2"
    },
    {
      "bufferView": 1,
      "byteOffset": 408672,
      "componentType": 5126,
      "count": 41,
      "type": "VEC2"
    },
    {
      "bufferView": 1,
      "byteOffset": 409000,
      "componentType": 5126,
      "count": 41,
      "type": "VEC2"
    },
    {
      "bufferView": 0,
      "byteOffset": 99624,
      "componentType": 5125,
      "count": 90,
      "type": "SCALAR"
    },
    {
      "bufferView": 2,
      "byteOffset": 399624,
      "componentType": 5126,
      "count": 32,
      "max": [
        0.5000001192092896,
        0.29999998211860657,
        0.40000027418136597
      ],
      "min": [
        -0.40000027418136597,
        -9.271394674215117e-08,
        -0.4999999403953552
      ],
      "type": "VEC3"
    },
    {
      "bufferView": 2,
      "byteOffset": 400008,
      "componentType": 5126,
      "count": 32,
      "type": "VEC3"
    },
    {
      "bufferView": 3,
      "byteOffset": 19792,
      "componentType": 5126,
      "count": 32,
      "type": "VEC4"
    },
    {
      "bufferView": 1,
      "byteOffset": 409328,
      "componentType": 5126,
      "count": 32,
      "type": "VEC2"
    },
    {
      "bufferView": 1,
      "byteOffset": 409584,
      "componentType": 5126,
      "count": 32,
      "type": "VEC2"
    },
    {
      "bufferView": 1,
      "byteOffset": 409840,
      "componentType": 5126,
      "count": 32,
      "type": "VEC2"
    },
    {
      "bufferView": 1,
      "byteOffset": 410096,
      "componentType": 5126,
      "count": 32,
      "type": "VEC2"
    },
    {
      "bufferView": 0,
      "byteOffset": 99984,
      "componentType": 5125,
      "count": 48,
      "type": "SCALAR"
    },
    {
      "bufferView": 2,
      "byteOffset": 400392,
      "componentType": 5126,
      "count": 8,
      "max": [
        2.200000047683716,
        2.200000047683716,
        -0.0
      ],
      "min": [
        0.0,
        0.0,
        -1.6609538988632266e-07
      ],
      "type": "VEC3"
    },
    {
      "bufferView": 2,
      "byteOffset": 400488,
      "componentType": 5126,
      "count": 8,
      "type": "VEC3"
    },
    {
      "bufferView": 3,
      "byteOffset": 20304,
      "componentType": 5126,
      "count": 8,
      "type": "VEC4"
    },
    {
      "bufferView": 1,
      "byteOffset": 410352,
      "componentType": 5126,
      "count": 8,
      "type": "VEC2"
    },
    {
      "bufferView": 1,
      "byteOffset": 410416,
      "componentType": 5126,
      "count": 8,
      "type": "VEC2"
    },
    {
      "bufferView": 1,
      "byteOffset": 410480,
      "componentType": 5126,
      "count": 8,
      "type": "VEC2"
    },
    {
      "bufferView": 1,
      "byteOffset": 410544,
      "componentType": 5126,
      "count": 8,
      "type": "VEC2"
    },
    {
      "bufferView": 0,
      "byteOffset": 100176,
      "componentType": 5125,
      "count": 12,
      "type": "SCALAR"
    },
    {
      "bufferView": 2,
      "byteOffset": 400584,
      "componentType": 5126,
      "count": 12,
      "max": [
        1.2999999523162842,
        2.200000047683716,
        0.10000007599592209
      ],
      "min": [
        0.9000000357627869,
        0.0,
        -1.6609538988632266e-07
      ],
      "type": "VEC3"
    },
    {
      "bufferView": 2,
      "byteOffset": 400728,
      "componentType": 5126,
      "count": 12,
      "type": "VEC3"
    },
    {
      "bufferView": 3,
      "byteOffset": 20432,
      "componentType": 5126,
      "count": 12,
      "type": "VEC4"
    },
    {
      "bufferView": 1,
      "byteOffset": 410608,
      "componentType": 5126,
      "count": 12,
      "type": "VEC2"
    },
    {
      "bufferView": 1,
      "byteOffset": 410704,
      "componentType": 5126,
      "count": 12,
      "type": "VEC2"
    },
    {
      "bufferView": 1,
      "byteOffset": 410800,
      "componentType": 5126,
      "count": 12,
      "type": "VEC2"
    },
    {
      "bufferView": 1,
      "byteOffset": 410896,
      "componentType": 5126,
      "count": 12,
      "type": "VEC2"
    },
    {
      "bufferView": 0,
      "byteOffset": 100224,
      "componentType": 5125,
      "count": 18,
      "type": "SCALAR"
    },
    {
      "bufferView": 2,
      "byteOffset": 400872,
      "componentType": 5126,
      "count": 22,
      "max": [
        0.0,
        0.0,
        2.000000238418579
      ],
      "min": [
        -2.000000238418579,
        -0.4000000059604645,
        -1.7881393432617188e-07
      ],
      "type": "VEC3"
    },
    {
      "bufferView": 2,
      "byteOffset": 401136,
      "componentType": 5126,
      "count": 22,
      "type": "VEC3"
    },
    {
      "bufferView": 3,
      "byteOffset": 20624,
      "componentType": 5126,
      "count": 22,
      "type": "VEC4"
    },
    {
      "bufferView": 1,
      "byteOffset": 410992,
      "componentType": 5126,
      "count": 22,
      "type": "VEC2"
    },
    {
      "bufferView": 1,
      "byteOffset": 411168,
      "componentType": 5126,
      "count": 22,
      "type": "VEC2"
    },
    {
      "bufferView": 1,
      "byteOffset": 411344,
      "componentType": 5126,
      "count": 22,
      "type": "VEC2"
    },
    {
      "bufferView": 1,
      "byteOffset": 411520,
      "componentType": 5126,
      "count": 22,
      "type": "VEC2"
    },
    {
      "bufferView": 0,
      "byteOffset": 100296,
      "componentType": 5125,
      "count": 54,
      "type": "SCALAR"
    },
    {
      "bufferView": 2,
      "byteOffset": 401400,
      "componentType": 5126,
      "count": 20,
      "max": [
        1.7000000476837158,
        0.9000000357627869,
        0.07499996572732925
      ],
      "min": [
        0.5,
        0.800000011920929,
        -6.794811469035267e-08
      ],
      "type": "VEC3"
    },
    {
      "bufferView": 2,
      "byteOffset": 401640,
      "componentType": 5126,
      "count": 20,
      "type": "VEC3"
    },
    {
      "bufferView": 3,
      "byteOffset": 20976,
      "componentType": 5126,
      "count": 20,
      "type": "VEC4"
    },
    {
      "bufferView": 1,
      "byteOffset": 411696,
      "componentType": 5126,
      "count": 20,
      "type": "VEC2"
    },
    {
      "bufferView": 1,
      "byteOffset": 411856,
      "componentType": 5126,
      "count": 20,
      "type": "VEC2"
    },
    {
      "bufferView": 1,
      "byteOffset": 412016,
      "componentType": 5126,
      "count": 20,
      "type": "VEC2"
    },
    {
      "bufferView": 1,
      "byteOffset": 412176,
      "componentType": 5126,
      "count": 20,
      "type": "VEC2"
    },
    {
      "bufferView": 0,
      "byteOffset": 100512,
      "componentType": 5125,
      "count": 30,
      "type": "SCALAR"
    },
    {
      "bufferView": 2,
      "byteOffset": 401880,
      "componentType": 5126,
      "count": 54,
      "max": [
        2.200000047683716,
        2.200000047683716,
        -0.0
      ],
      "min": [
        0.0,
        0.0,
        -0.10000012069940567
      ],
      "type": "VEC3"
    },
    {
      "bufferView": 2,
      "byteOffset": 402528,
      "componentType": 5126,
      "count": 54,
      "type": "VEC3"
    },
    {
      "bufferView": 3,
      "byteOffset": 21296,
      "componentType": 5126,
      "count": 54,
      "type": "VEC4"
    },
    {
      "bufferView": 1,
      "byteOffset": 412336,
      "componentType": 5126,
      "count": 54,
      "type": "VEC2"
    },
    {
      "bufferView": 1,
      "byteOffset": 412768,
      "componentType": 5126,
      "count": 54,
      "type": "VEC2"
    },
    {
      "bufferView": 1,
      "byteOffset": 413200,
      "componentType": 5126,
      "count": 54,
      "type": "VEC2"
    },
    {
      "bufferView": 1,
      "byteOffset": 413632,
      "componentType": 5126,
      "count": 54,
      "type": "VEC2"
    },
    {
      "bufferView": 0,
      "byteOffset": 100632,
      "componentType": 5125,
      "count": 84,
      "type": "SCALAR"
    },
    {
      "bufferView": 2,
      "byteOffset": 403176,
      "componentType": 5126,
      "count": 320,
      "max": [
        1.7000000476837158,
        1.8000003099441528,
        -0.02423403412103653
      ],
      "min": [
        0.49999985098838806,
        0.9000000953674316,
        -0.14999999105930328
      ],
      "type": "VEC3"
    },
    {
      "bufferView": 2,
      "byteOffset": 407016,
      "componentType": 5126,
      "count": 320,
      "type": "VEC3"
    },
    {
      "bufferView": 3,
      "byteOffset": 22160,
      "componentType": 5126,
      "count": 320,
      "type": "VEC4"
    },
    {
      "bufferView": 1,
      "byteOffset": 414064,
      "componentType": 5126,
      "count": 320,
      "type": "VEC2"
    },
    {
      "bufferView": 1,
      "byteOffset": 416624,
      "componentType": 5126,
      "count": 320,
      "type": "VEC2"
    },
    {
      "bufferView": 1,
      "byteOffset": 419184,
      "componentType": 5126,
      "count": 320,
      "type": "VEC2"
    },
    {
      "bufferView": 1,
      "byteOffset": 421744,
      "componentType": 5126,
      "count": 320,
      "type": "VEC2"
    },
    {
      "bufferView": 0,
      "byteOffset": 100968,
      "componentType": 5125,
      "count": 480,
      "type": "SCALAR"
    },
    {
      "bufferView": 2,
      "byteOffset": 410856,
      "componentType": 5126,
      "count": 16,
      "max": [
        1.6450001001358032,
        1.737917423248291,
        -0.0592651404440403
      ],
      "min": [
        0.5549997687339783,
        0.955000102519989,
        -0.14999999105930328
      ],
      "type": "VEC3"
    },
    {
      "bufferView": 2,
      "byteOffset": 411048,
      "componentType": 5126,
      "count": 16,
      "type": "VEC3"
    },
    {
      "bufferView": 1,
      "byteOffset": 424304,
      "componentType": 5126,
      "count": 16,
      "type": "VEC2"
    },
    {
      "bufferView": 1,
      "byteOffset": 424432,
      "componentType": 5126,
      "count": 16,
      "type": "VEC2"
    },
    {
      "bufferView": 0,
      "byteOffset": 102888,
      "componentType": 5125,
      "count": 24,
      "type": "SCALAR"
    },
    {
      "bufferView": 2,
      "byteOffset": 411240,
      "componentType": 5126,
      "count": 34,
      "max": [
        2.200000047683716,
        0.2999999523162842,
        0.10000016540288925
      ],
      "min": [
        -7.549790126404332e-09,
        -1.9233010561947594e-07,
        -0.0
      ],
      "type": "VEC3"
    },
    {
      "bufferView": 2,
      "byteOffset": 411648,
      "componentType": 5126,
      "count": 34,
      "type": "VEC3"
    },
    {
      "bufferView": 3,
      "byteOffset": 27280,
      "componentType": 5126,
      "count": 34,
      "type": "VEC4"
    },
    {
      "bufferView": 1,
      "byteOffset": 424560,
      "componentType": 5126,
      "count": 34,
      "type": "VEC2"
    },
    {
      "bufferView": 1,
      "byteOffset": 424832,
      "componentType": 5126,
      "count": 34,
      "type": "VEC2"
    },
    {
      "bufferView": 1,
      "byteOffset": 425104,
      "componentType": 5126,
      "count": 34,
      "type": "VEC2"
    },
    {
      "bufferView": 1,
      "byteOffset": 425376,
      "componentType": 5126,
      "count": 34,
      "type": "VEC2"
    },
    {
      "bufferView": 0,
      "byteOffset": 102984,
      "componentType": 5125,
      "count": 54,
      "type": "SCALAR"
    },
    {
      "bufferView": 2,
      "byteOffset": 412056,
      "componentType": 5126,
      "count": 48,
      "max": [
        2.200000286102295,
        0.2999999523162842,
        0.40000036358833313
      ],
      "min": [
        -3.0199174716472044e-08,
        -1.9233010561947594e-07,
        -0.0
      ],
      "type": "VEC3"
    },
    {
      "bufferView": 2,
      "byteOffset": 412632,
      "componentType": 5126,
      "count": 48,
      "type": "VEC3"
    },
    {
      "bufferView": 3,
      "byteOffset": 27824,
      "componentType": 5126,
      "count": 48,
      "type": "VEC4"
    },
    {
      "bufferView": 1,
      "byteOffset": 425648,
      "componentType": 5126,
      "count": 48,
      "type": "VEC2"
    },
    {
      "bufferView": 1,
      "byteOffset": 426032,
      "componentType": 5126,
      "count": 48,
      "type": "VEC2"
    },
    {
      "bufferView": 1,
      "byteOffset": 426416,
      "componentType": 5126,
      "count": 48,
      "type": "VEC2"
    },
    {
      "bufferView": 1,
      "byteOffset": 426800,
      "componentType": 5126,
      "count": 48,
      "type": "VEC2"
    },
    {
      "bufferView": 0,
      "byteOffset": 103200,
      "componentType": 5125,
      "count": 72,
      "type": "SCALAR"
    },
    {
      "bufferView": 2,
      "byteOffset": 413208,
      "componentType": 5126,
      "count": 74,
      "max": [
        2.200000047683716,
        2.200000047683716,
        1.0418712292903365e-07
      ],
      "min": [
        0.0,
        0.0,
        -0.10000012069940567
      ],
      "type": "VEC3"
    },
    {
      "bufferView": 2,
      "byteOffset": 414096,
      "componentType": 5126,
      "count": 74,
      "type": "VEC3"
    },
    {
      "bufferView": 3,
      "byteOffset": 28592,
      "componentType": 5126,
      "count": 74,
      "type": "VEC4"
    },
    {
      "bufferView": 1,
      "byteOffset": 427184,
      "componentType": 5126,
      "count": 74,
      "type": "VEC2"
    },
    {
      "bufferView": 1,
      "byteOffset": 427776,
      "componentType": 5126,
      "count": 74,
      "type": "VEC2"
    },
    {
      "bufferView": 1,
      "byteOffset": 428368,
      "componentType": 5126,
      "count": 74,
      "type": "VEC2"
    },
    {
      "bufferView": 1,
      "byteOffset": 428960,
      "componentType": 5126,
      "count": 74,
      "type": "VEC2"
    },
    {
      "bufferView": 0,
      "byteOffset": 103488,
      "componentType": 5125,
      "count": 120,
      "type": "SCALAR"
    },
    {
      "bufferView": 2,
      "byteOffset": 414984,
      "componentType": 5126,
      "count": 42,
      "max": [
        1.7999999523162842,
        1.899999976158142,
        0.10000000894069672
      ],
      "min": [
        0.40000009536743164,
        1.8000000715255737,
        -1.5099581673894136e-07
      ],
      "type": "VEC3"
    },
    {
      "bufferView": 2,
      "byteOffset": 415488,
      "componentType": 5126,
      "count": 42,
      "type": "VEC3"
    },
    {
      "bufferView": 3,
      "byteOffset": 29776,
      "componentType": 5126,
      "count": 42,
      "type": "VEC4"
    },
    {
      "bufferView": 1,
      "byteOffset": 429552,
      "componentType": 5126,
      "count": 42,
      "type": "VEC2"
    },
    {
      "bufferView": 1,
      "byteOffset": 429888,
      "componentType": 5126,
      "count": 42,
      "type": "VEC2"
    },
    {
      "bufferView": 1,
      "byteOffset": 430224,
      "componentType": 5126,
      "count": 42,
      "type": "VEC2"
    },
    {
      "bufferView": 1,
      "byteOffset": 430560,
      "componentType": 5126,
      "count": 42,
      "type": "VEC2"
    },
    {
      "bufferView": 0,
      "byteOffset": 103968,
      "componentType": 5125,
      "count": 66,
      "type": "SCALAR"
    },
    {
      "bufferView": 2,
      "byteOffset": 415992,
      "componentType": 5126,
      "count": 320,
      "max": [
        1.6999995708465576,
        1.8000003099441528,
        -0.02423403412103653
      ],
      "min": [
        0.49999937415122986,
        0.9000000953674316,
        -0.14999999105930328
      ],
      "type": "VEC3"
    },
    {
      "bufferView": 2,
      "byteOffset": 419832,
      "componentType": 5126,
      "count": 320,
      "type": "VEC3"
    },
    {
      "bufferView": 3,
      "byteOffset": 30448,
      "componentType": 5126,
      "count": 320,
      "type": "VEC4"
    },
    {
      "bufferView": 1,
      "byteOffset": 430896,
      "componentType": 5126,
      "count": 320,
      "type": "VEC2"
    },
    {
      "bufferView": 1,
      "byteOffset": 433456,
      "componentType": 5126,
      "count": 320,
      "type": "VEC2"
    },
    {
      "bufferView": 1,
      "byteOffset": 436016,
      "componentType": 5126,
      "count": 320,
      "type": "VEC2"
    },
    {
      "bufferView": 1,
      "byteOffset": 438576,
      "componentType": 5126,
      "count": 320,
      "type": "VEC2"
    },
    {
      "bufferView": 0,
      "byteOffset": 104232,
      "componentType": 5125,
      "count": 480,
      "type": "SCALAR"
    },
    {
      "bufferView": 2,
      "byteOffset": 423672,
      "componentType": 5126,
      "count": 16,
      "max": [
        1.644999623298645,
        1.737917423248291,
        -0.0592651404440403
      ],
      "min": [
        0.5549992918968201,
        0.955000102519989,
        -0.14999999105930328
      ],
      "type": "VEC3"
    },
    {
      "bufferView": 2,
      "byteOffset": 423864,
      "componentType": 5126,
      "count": 16,
      "type": "VEC3"
    },
    {
      "bufferView": 1,
      "byteOffset": 441136,
      "componentType": 5126,
      "count": 16,
      "type": "VEC2"
    },
    {
      "bufferView": 1,
      "byteOffset": 441264,
      "componentType": 5126,
      "count": 16,
      "type": "VEC2"
    },
    {
      "bufferView": 0,
      "byteOffset": 106152,
      "componentType": 5125,
      "count": 24,
      "type": "SCALAR"
    },
    {
      "bufferView": 2,
      "byteOffset": 424056,
      "componentType": 5126,
      "count": 8,
      "max": [
        3.934023240503848e-08,
        3.934023240503848e-08,
        -0.20000016689300537
      ],
      "min": [
        -0.10000008344650269,
        -0.20000001788139343,
        -1.0999996662139893
      ],
      "type": "VEC3"
    },
    {
      "bufferView": 2,
      "byteOffset": 424152,
      "componentType": 5126,
      "count": 8,
      "type": "VEC3"
    },
    {
      "bufferView": 3,
      "byteOffset": 35568,
      "componentType": 5126,
      "count": 8,
      "type": "VEC4"
    },
    {
      "bufferView": 1,
      "byteOffset": 441392,
      "componentType": 5126,
      "count": 8,
      "type": "VEC2"
    },
    {
      "bufferView": 1,
      "byteOffset": 441456,
      "componentType": 5126,
      "count": 8,
      "type": "VEC2"
    },
    {
      "bufferView": 1,
      "byteOffset": 441520,
      "componentType": 5126,
      "count": 8,
      "type": "VEC2"
    },
    {
      "bufferView": 1,
      "byteOffset": 441584,
      "componentType": 5126,
      "count": 8,
      "type": "VEC2"
    },
    {
      "bufferView": 0,
      "byteOffset": 106248,
      "componentType": 5125,
      "count": 12,
      "type": "SCALAR"
    },
    {
      "bufferView": 2,
      "byteOffset": 424248,
      "componentType": 5126,
      "count": 40,
      "max": [
        3.934023240503848e-08,
        3.934023240503848e-08,
        1.5417840870668442e-07
      ],
      "min": [
        -2.200000047683716,
        -0.20000004768371582,
        -2.1999998092651367
      ],
      "type": "VEC3"
    },
    {
      "bufferView": 2,
      "byteOffset": 424728,
      "componentType": 5126,
      "count": 40,
      "type": "VEC3"
    },
    {
      "bufferView": 3,
      "byteOffset": 35696,
      "componentType": 5126,
      "count": 40,
      "type": "VEC4"
    },
    {
      "bufferView": 1,
      "byteOffset": 441648,
      "componentType": 5126,
      "count": 40,
      "type": "VEC2"
    },
    {
      "bufferView": 1,
      "byteOffset": 441968,
      "componentType": 5126,
      "count": 40,
      "type": "VEC2"
    },
    {
      "bufferView": 1,
      "byteOffset": 442288,
      "componentType": 5126,
      "count": 40,
      "type": "VEC2"
    },
    {
      "bufferView": 1,
      "byteOffset": 442608,
      "componentType": 5126,
      "count": 40,
      "type": "VEC2"
    },
    {
      "bufferView": 0,
      "byteOffset": 106296,
      "componentType": 5125,
      "count": 60,
      "type": "SCALAR"
    },
    {
      "bufferView": 2,
      "byteOffset": 425208,
      "componentType": 5126,
      "count": 92,
      "max": [
        -0.10000026226043701,
        -0.10000015050172806,
        -0.19128498435020447
      ],
      "min": [
        -1.9000003337860107,
        -0.2780594825744629,
        -1.096575140953064
      ],
      "type": "VEC3"
    },
    {
      "bufferView": 2,
      "byteOffset": 426312,
      "componentType": 5126,
      "count": 92,
      "type": "VEC3"
    },
    {
      "bufferView": 3,
      "byteOffset": 36336,
      "componentType": 5126,
      "count": 92,
      "type": "VEC4"
    },
    {
      "bufferView": 1,
      "byteOffset": 442928,
      "componentType": 5126,
      "count": 92,
      "type": "VEC2"
    },
    {
      "bufferView": 1,
      "byteOffset": 443664,
      "componentType": 5126,
      "count": 92,
      "type": "VEC2"
    },
    {
      "bufferView": 1,
      "byteOffset": 444400,
      "componentType": 5126,
      "count": 92,
      "type": "VEC2"
    },
    {
      "bufferView": 1,
      "byteOffset": 445136,
      "componentType": 5126,
      "count": 92,
      "type": "VEC2"
    },
    {
      "bufferView": 0,
      "byteOffset": 106536,
      "componentType": 5125,
      "count": 138,
      "type": "SCALAR"
    },
    {
      "bufferView": 2,
      "byteOffset": 427416,
      "componentType": 5126,
      "count": 4,
      "max": [
        -1.4500000476837158,
        -0.13424375653266907,
        -0.24719560146331787
      ],
      "min": [
        -1.8500003814697266,
        -0.20396794378757477,
        -1.0441508293151855
      ],
      "type": "VEC3"
    },
    {
      "bufferView": 2,
      "byteOffset": 427464,
      "componentType": 5126,
      "count": 4,
      "type": "VEC3"
    },
    {
      "bufferView": 1,
      "byteOffset": 445872,
      "componentType": 5126,
      "count": 4,
      "type": "VEC2"
    },
    {
      "bufferView": 1,
      "byteOffset": 445904,
      "componentType": 5126,
      "count": 4,
      "type": "VEC2"
    },
    {
      "bufferView": 0,
      "byteOffset": 107088,
      "componentType": 5125,
      "count": 6,
      "type": "SCALAR"
    },
    {
      "bufferView": 2,
      "byteOffset": 427512,
      "componentType": 5126,
      "count": 12,
      "max": [
        0.10000007599592209,
        5.960464477539063e-08,
        7.54979545547485e-09
      ],
      "min": [
        0.0,
        -0.39999985694885254,
        -2.200000047683716
      ],
      "type": "VEC3"
    },
    {
      "bufferView": 2,
      "byteOffset": 427656,
      "componentType": 5126,
      "count": 12,
      "type": "VEC3"
    },
    {
      "bufferView": 3,
      "byteOffset": 37808,
      "componentType": 5126,
      "count": 12,
      "type": "VEC4"
    },
    {
      "bufferView": 1,
      "byteOffset": 445936,
      "componentType": 5126,
      "count": 12,
      "type": "VEC2"
    },
    {
      "bufferView": 1,
      "byteOffset": 446032,
      "componentType": 5126,
      "count": 12,
      "type": "VEC2"
    },
    {
      "bufferView": 1,
      "byteOffset": 446128,
      "componentType": 5126,
      "count": 12,
      "type": "VEC2"
    },
    {
      "bufferView": 1,
      "byteOffset": 446224,
      "componentType": 5126,
      "count": 12,
      "type": "VEC2"
    },
    {
      "bufferView": 0,
      "byteOffset": 107112,
      "componentType": 5125,
      "count": 18,
      "type": "SCALAR"
    },
    {
      "bufferView": 2,
      "byteOffset": 427800,
      "componentType": 5126,
      "count": 42,
      "max": [
        70.73296356201172,
        35.84036636352539,
        5.340190455171978e-06
      ],
      "min": [
        -70.73297119140625,
        0.0,
        -114.74583435058594
      ],
      "type": "VEC3"
    },
    {
      "bufferView": 2,
      "byteOffset": 428304,
      "componentType": 5126,
      "count": 42,
      "type": "VEC3"
    },
    {
      "bufferView": 1,
      "byteOffset": 446320,
      "componentType": 5126,
      "count": 42,
      "type": "VEC2"
    },
    {
      "bufferView": 1,
      "byteOffset": 446656,
      "componentType": 5126,
      "count": 42,
      "type": "VEC2"
    },
    {
      "bufferView": 0,
      "byteOffset": 107184,
      "componentType": 5125,
      "count": 156,
      "type": "SCALAR"
    },
    {
      "bufferView": 2,
      "byteOffset": 428808,
      "componentType": 5126,
      "count": 248,
      "max": [
        1.1999999284744263,
        0.11560480296611786,
        -0.0
      ],
      "min": [
        -1.1920928955078125e-07,
        -0.05000022053718567,
        -0.8999996185302734
      ],
      "type": "VEC3"
    },
    {
      "bufferView": 2,
      "byteOffset": 431784,
      "componentType": 5126,
      "count": 248,
      "type": "VEC3"
    },
    {
      "bufferView": 3,
      "byteOffset": 38000,
      "componentType": 5126,
      "count": 248,
      "type": "VEC4"
    },
    {
      "bufferView": 1,
      "byteOffset": 446992,
      "componentType": 5126,
      "count": 248,
      "type": "VEC2"
    },
    {
      "bufferView": 1,
      "byteOffset": 448976,
      "componentType": 5126,
      "count": 248,
      "type": "VEC2"
    },
    {
      "bufferView": 1,
      "byteOffset": 450960,
      "componentType": 5126,
      "count": 248,
      "type": "VEC2"
    },
    {
      "bufferView": 1,
      "byteOffset": 452944,
      "componentType": 5126,
      "count": 248,
      "type": "VEC2"
    },
    {
      "bufferView": 0,
      "byteOffset": 107808,
      "componentType": 5125,
      "count": 372,
      "type": "SCALAR"
    },
    {
      "bufferView": 2,
      "byteOffset": 434760,
      "componentType": 5126,
      "count": 12,
      "max": [
        1.1555111408233643,
        0.09113936871290207,
        -0.04499959945678711
      ],
      "min": [
        0.04448878765106201,
        -0.046117931604385376,
        -0.8550004959106445
      ],
      "type": "VEC3"
    },
    {
      "bufferView": 2,
      "byteOffset": 434904,
      "componentType": 5126,
      "count": 12,
      "type": "VEC3"
    },
    {
      "bufferView": 1,
      "byteOffset": 454928,
      "componentType": 5126,
      "count": 12,
      "type": "VEC2"
    },
    {
      "bufferView": 1,
      "byteOffset": 455024,
      "componentType": 5126,
      "count": 12,
      "type": "VEC2"
    },
    {
      "bufferView": 0,
      "byteOffset": 109296,
      "componentType": 5125,
      "count": 18,
      "type": "SCALAR"
    },
    {
      "bufferView": 2,
      "byteOffset": 435048,
      "componentType": 5126,
      "count": 320,
      "max": [
        0.0,
        0.07576574385166168,
        -8.940696716308594e-08
      ],
      "min": [
        -0.9000001549720764,
        -0.050000034272670746,
        -1.200000286102295
      ],
      "type": "VEC3"
    },
    {
      "bufferView": 2,
      "byteOffset": 438888,
      "componentType": 5126,
      "count": 320,
      "type": "VEC3"
    },
    {
      "bufferView": 3,
      "byteOffset": 41968,
      "componentType": 5126,
      "count": 320,
      "type": "VEC4"
    },
    {
      "bufferView": 1,
      "byteOffset": 455120,
      "componentType": 5126,
      "count": 320,
      "type": "VEC2"
    },
    {
      "bufferView": 1,
      "byteOffset": 457680,
      "componentType": 5126,
      "count": 320,
      "type": "VEC2"
    },
    {
      "bufferView": 1,
      "byteOffset": 460240,
      "componentType": 5126,
      "count": 320,
      "type": "VEC2"
    },
    {
      "bufferView": 1,
      "byteOffset": 462800,
      "componentType": 5126,
      "count": 320,
      "type": "VEC2"
    },
    {
      "bufferView": 0,
      "byteOffset": 109368,
      "componentType": 5125,
      "count": 480,
      "type": "SCALAR"
    },
    {
      "bufferView": 2,
      "byteOffset": 442728,
      "componentType": 5126,
      "count": 16,
      "max": [
        -0.0549999475479126,
        0.04073464125394821,
        -0.05500003695487976
      ],
      "min": [
        -0.8379172682762146,
        -0.050000034272670746,
        -1.1450003385543823
      ],
      "type": "VEC3"
    },
    {
      "bufferView": 2,
      "byteOffset": 442920,
      "componentType": 5126,
      "count": 16,
      "type": "VEC3"
    },
    {
      "bufferView": 1,
      "byteOffset": 465360,
      "componentType": 5126,
      "count": 16,
      "type": "VEC2"
    },
    {
      "bufferView": 1,
      "byteOffset": 465488,
      "componentType": 5126,
      "count": 16,
      "type": "VEC2"
    },
    {
      "bufferView": 0,
      "byteOffset": 111288,
      "componentType": 5125,
      "count": 24,
      "type": "SCALAR"
    },
    {
      "bufferView": 2,
      "byteOffset": 443112,
      "componentType": 5126,
      "count": 320,
      "max": [
        1.7000000476837158,
        4.4479079246521,
        -0.02423403412103653
      ],
      "min": [
        0.49999985098838806,
        3.547907829284668,
        -0.14999999105930328
      ],
      "type": "VEC3"
    },
    {
      "bufferView": 2,
      "byteOffset": 446952,
      "componentType": 5126,
      "count": 320,
      "type": "VEC3"
    },
    {
      "bufferView": 3,
      "byteOffset": 47088,
      "componentType": 5126,
      "count": 320,
      "type": "VEC4"
    },
    {
      "bufferView": 1,
      "byteOffset": 465616,
      "componentType": 5126,
      "count": 320,
      "type": "VEC2"
    },
    {
      "bufferView": 1,
      "byteOffset": 468176,
      "componentType": 5126,
      "count": 320,
      "type": "VEC2"
    },
    {
      "bufferView": 1,
      "byteOffset": 470736,
      "componentType": 5126,
      "count": 320,
      "type": "VEC2"
    },
    {
      "bufferView": 1,
      "byteOffset": 473296,
      "componentType": 5126,
      "count": 320,
      "type": "VEC2"
    },
    {
      "bufferView": 0,
      "byteOffset": 111384,
      "componentType": 5125,
      "count": 480,
      "type": "SCALAR"
    },
    {
      "bufferView": 2,
      "byteOffset": 450792,
      "componentType": 5126,
      "count": 16,
      "max": [
        1.6450001001358032,
        4.385825157165527,
        -0.0592651404440403
      ],
      "min": [
        0.5549997687339783,
        3.60290789604187,
        -0.14999999105930328
      ],
      "type": "VEC3"
    },
    {
      "bufferView": 2,
      "byteOffset": 450984,
      "componentType": 5126,
      "count": 16,
      "type": "VEC3"
    },
    {
      "bufferView": 1,
      "byteOffset": 475856,
      "componentType": 5126,
      "count": 16,
      "type": "VEC2"
    },
    {
      "bufferView": 1,
      "byteOffset": 475984,
      "componentType": 5126,
      "count": 16,
      "type": "VEC2"
    },
    {
      "bufferView": 0,
      "byteOffset": 113304,
      "componentType": 5125,
      "count": 24,
      "type": "SCALAR"
    },
    {
      "bufferView": 2,
      "byteOffset": 451176,
      "componentType": 5126,
      "count": 240,
      "max": [
        0.0,
        0.10999976843595505,
        -0.0
      ],
      "min": [
        -0.9000000953674316,
        -0.03000006079673767,
        -0.6500000953674316
      ],
      "type": "VEC3"
    },
    {
      "bufferView": 2,
      "byteOffset": 454056,
      "componentType": 5126,
      "count": 240,
      "type": "VEC3"
    },
    {
      "bufferView": 3,
      "byteOffset": 52208,
      "componentType": 5126,
      "count": 240,
      "type": "VEC4"
    },
    {
      "bufferView": 1,
      "byteOffset": 476112,
      "componentType": 5126,
      "count": 240,
      "type": "VEC2"
    },
    {
      "bufferView": 1,
      "byteOffset": 478032,
      "componentType": 5126,
      "count": 240,
      "type": "VEC2"
    },
    {
      "bufferView": 1,
      "byteOffset": 479952,
      "componentType": 5126,
      "count": 240,
      "type": "VEC2"
    },
    {
      "bufferView": 1,
      "byteOffset": 481872,
      "componentType": 5126,
      "count": 240,
      "type": "VEC2"
    },
    {
      "bufferView": 0,
      "byteOffset": 113400,
      "componentType": 5125,
      "count": 360,
      "type": "SCALAR"
    },
    {
      "bufferView": 2,
      "byteOffset": 456936,
      "componentType": 5126,
      "count": 12,
      "max": [
        -0.04499995708465576,
        0.08517931401729584,
        -0.04500007629394531
      ],
      "min": [
        -0.850334882736206,
        -0.02999989688396454,
        -0.6050002574920654
      ],
      "type": "VEC3"
    },
    {
      "bufferView": 2,
      "byteOffset": 457080,
      "componentType": 5126,
      "count": 12,
      "type": "VEC3"
    },
    {
      "bufferView": 1,
      "byteOffset": 483792,
      "componentType": 5126,
      "count": 12,
      "type": "VEC2"
    },
    {
      "bufferView": 1,
      "byteOffset": 483888,
      "componentType": 5126,
      "count": 12,
      "type": "VEC2"
    },
    {
      "bufferView": 0,
      "byteOffset": 114840,
      "componentType": 5125,
      "count": 18,
      "type": "SCALAR"
    }
  ],
  "asset": {
    "generator": "fab-model-conversion",
    "version": "2.0"
  },
  "bufferViews": [
    {
      "buffer": 0,
      "byteLength": 114912,
      "target": 34963
    },
    {
      "buffer": 0,
      "byteLength": 483984,
      "byteOffset": 114912,
      "byteStride": 8,
      "target": 34962
    },
    {
      "buffer": 0,
      "byteLength": 457224,
      "byteOffset": 598896,
      "byteStride": 12,
      "target": 34962
    },
    {
      "buffer": 0,
      "byteLength": 56048,
      "byteOffset": 1056120,
      "byteStride": 16,
      "target": 34962
    }
  ],
  "buffers": [
    {
      "byteLength": 1112168,
      "uri": "scene.bin"
    }
  ],
  "extensionsUsed": [
    "KHR_materials_specular"
  ],
  "images": [
    {
      "uri": "textures/Bricks_baseColor.jpeg"
    },
    {
      "uri": "textures/Bricks_metallicRoughness.png"
    },
    {
      "uri": "textures/Bricks_normal.jpeg"
    },
    {
      "uri": "textures/Concrete_baseColor.jpeg"
    },
    {
      "uri": "textures/Concrete_metallicRoughness.png"
    },
    {
      "uri": "textures/Concrete_normal.jpeg"
    },
    {
      "uri": "textures/Frame_baseColor.jpeg"
    },
    {
      "uri": "textures/Frame_metallicRoughness.png"
    },
    {
      "uri": "textures/Frame_normal.jpeg"
    },
    {
      "uri": "textures/Glass_metallicRoughness.png"
    }
  ],
  "materials": [
    {
      "doubleSided": true,
      "extensions": {
        "KHR_materials_specular": {
          "specularColorFactor": [
            1.0,
            1.0,
            1.0
          ],
          "specularFactor": 0.25
        }
      },
      "name": "Bricks",
      "normalTexture": {
        "index": 2
      },
      "occlusionTexture": {
        "index": 1
      },
      "pbrMetallicRoughness": {
        "baseColorTexture": {
          "index": 0
        },
        "metallicFactor": 0.0,
        "metallicRoughnessTexture": {
          "index": 1
        }
      }
    },
    {
      "doubleSided": true,
      "extensions": {
        "KHR_materials_specular": {
          "specularColorFactor": [
            1.0,
            1.0,
            1.0
          ],
          "specularFactor": 0.25
        }
      },
      "name": "Concrete",
      "normalTexture": {
        "index": 5,
        "texCoord": 2
      },
      "occlusionTexture": {
        "index": 4
      },
      "pbrMetallicRoughness": {
        "baseColorTexture": {
          "index": 3
        },
        "metallicFactor": 0.0,
        "metallicRoughnessTexture": {
          "index": 4,
          "texCoord": 1
        }
      }
    },
    {
      "doubleSided": true,
      "extensions": {
        "KHR_materials_specular": {
          "specularColorFactor": [
            1.0,
            1.0,
            1.0
          ],
          "specularFactor": 0.25
        }
      },
      "name": "Frame",
      "normalTexture": {
        "index": 8,
        "texCoord": 2
      },
      "occlusionTexture": {
        "index": 7
      },
      "pbrMetallicRoughness": {
        "baseColorTexture": {
          "index": 6
        },
        "metallicFactor": 0.0,
        "metallicRoughnessTexture": {
          "index": 7,
          "texCoord": 1
        }
      }
    },
    {
      "doubleSided": true,
      "name": "Glass",
      "pbrMetallicRoughness": {
        "baseColorFactor": [
          0.01,
          0.01,
          0.01,
          1.0
        ],
        "metallicFactor": 0.0,
        "metallicRoughnessTexture": {
          "index": 9
        }
      }
    },
    {
      "doubleSided": true,
      "name": "Metal",
      "pbrMetallicRoughness": {
        "baseColorFactor": [
          0.3353,
          0.3353,
          0.3353,
          1.0
        ],
        "metallicRoughnessTexture": {
          "index": 9
        }
      }
    }
  ],
  "meshes": [
    {
      "name": "Object_0",
      "primitives": [
        {
          "attributes": {
            "NORMAL": 1,
            "POSITION": 0,
            "TANGENT": 2,
            "TEXCOORD_0": 3,
            "TEXCOORD_1": 4,
            "TEXCOORD_2": 5,
            "TEXCOORD_3": 6
          },
          "indices": 7,
          "material": 0,
          "mode": 4
        }
      ]
    },
    {
      "name": "Object_1",
      "primitives": [
        {
          "attributes": {
            "NORMAL": 9,
            "POSITION": 8,
            "TANGENT": 10,
            "TEXCOORD_0": 11,
            "TEXCOORD_1": 12,
            "TEXCOORD_2": 13,
            "TEXCOORD_3": 14
          },
          "indices": 15,
          "material": 1,
          "mode": 4
        }
      ]
    },
    {
      "name": "Object_2",
      "primitives": [
        {
          "attributes": {
            "NORMAL": 17,
            "POSITION": 16,
            "TANGENT": 18,
            "TEXCOORD_0": 19,
            "TEXCOORD_1": 20,
            "TEXCOORD_2": 21,
            "TEXCOORD_3": 22
          },
          "indices": 23,
          "material": 2,
          "mode": 4
        }
      ]
    },
    {
      "name": "Object_3",
      "primitives": [
        {
          "attributes": {
            "NORMAL": 25,
            "POSITION": 24,
            "TEXCOORD_0": 26,
            "TEXCOORD_1": 27
          },
          "indices": 28,
          "material": 3,
          "mode": 4
        }
      ]
    },
    {
      "name": "Object_4",
      "primitives": [
        {
          "attributes": {
            "NORMAL": 30,
            "POSITION": 29,
            "TANGENT": 31,
            "TEXCOORD_0": 32,
            "TEXCOORD_1": 33,
            "TEXCOORD_2": 34,
            "TEXCOORD_3": 35
          },
          "indices": 36,
          "material": 0,
          "mode": 4
        }
      ]
    },
    {
      "name": "Object_5",
      "primitives": [
        {
          "attributes": {
            "NORMAL": 38,
            "POSITION": 37,
            "TANGENT": 39,
            "TEXCOORD_0": 40,
            "TEXCOORD_1": 41,
            "TEXCOORD_2": 42,
            "TEXCOORD_3": 43
          },
          "indices": 44,
          "material": 1,
          "mode": 4
        }
      ]
    },
    {
      "name": "Object_6",
      "primitives": [
        {
          "attributes": {
            "NORMAL": 46,
            "POSITION": 45,
            "TANGENT": 47,
            "TEXCOORD_0": 48,
            "TEXCOORD_1": 49,
            "TEXCOORD_2": 50,
            "TEXCOORD_3": 51
          },
          "indices": 52,
          "material": 2,
          "mode": 4
        }
      ]
    },
    {
      "name": "Object_7",
      "primitives": [
        {
          "attributes": {
            "NORMAL": 54,
            "POSITION": 53,
            "TEXCOORD_0": 55,
            "TEXCOORD_1": 56
          },
          "indices": 57,
          "material": 3,
          "mode": 4
        }
      ]
    },
    {
      "name": "Object_8",
      "primitives": [
        {
          "attributes": {
            "NORMAL": 59,
            "POSITION": 58,
            "TANGENT": 60,
            "TEXCOORD_0": 61,
            "TEXCOORD_1": 62,
            "TEXCOORD_2": 63,
            "TEXCOORD_3": 64
          },
          "indices": 65,
          "material": 0,
          "mode": 4
        }
      ]
    },
    {
      "name": "Object_9",
      "primitives": [
        {
          "attributes": {
            "NORMAL": 67,
            "POSITION": 66,
            "TANGENT": 68,
            "TEXCOORD_0": 69,
            "TEXCOORD_1": 70,
            "TEXCOORD_2": 71,
            "TEXCOORD_3": 72
          },
          "indices": 73,
          "material": 1,
          "mode": 4
        }
      ]
    },
    {
      "name": "Object_10",
      "primitives": [
        {
          "attributes": {
            "NORMAL": 75,
            "POSITION": 74,
            "TEXCOORD_0": 76,
            "TEXCOORD_1": 77,
            "TEXCOORD_2": 78
          },
          "indices": 79,
          "material": 4,
          "mode": 4
        }
      ]
    },
    {
      "name": "Object_11",
      "primitives": [
        {
          "attributes": {
            "NORMAL": 81,
            "POSITION": 80,
            "TANGENT": 82,
            "TEXCOORD_0": 83,
            "TEXCOORD_1": 84,
            "TEXCOORD_2": 85,
            "TEXCOORD_3": 86
          },
          "indices": 87,
          "material": 1,
          "mode": 4
        }
      ]
    },
    {
      "name": "Object_12",
      "primitives": [
        {
          "attributes": {
            "NORMAL": 89,
            "POSITION": 88,
            "TANGENT": 90,
            "TEXCOORD_0": 91,
            "TEXCOORD_1": 92,
            "TEXCOORD_2": 93,
            "TEXCOORD_3": 94
          },
          "indices": 95,
          "material": 1,
          "mode": 4
        }
      ]
    },
    {
      "name": "Object_13",
      "primitives": [
        {
          "attributes": {
            "NORMAL": 97,
            "POSITION": 96,
            "TANGENT": 98,
            "TEXCOORD_0": 99,
            "TEXCOORD_1": 100,
            "TEXCOORD_2": 101,
            "TEXCOORD_3": 102
          },
          "indices": 103,
          "material": 1,
          "mode": 4
        }
      ]
    },
    {
      "name": "Object_14",
      "primitives": [
        {
          "attributes": {
            "NORMAL": 105,
            "POSITION": 104,
            "TANGENT": 106,
            "TEXCOORD_0": 107,
            "TEXCOORD_1": 108,
            "TEXCOORD_2": 109,
            "TEXCOORD_3": 110
          },
          "indices": 111,
          "material": 1,
          "mode": 4
        }
      ]
    },
    {
      "name": "Object_15",
      "primitives": [
        {
          "attributes": {
            "NORMAL": 113,
            "POSITION": 112,
            "TANGENT": 114,
            "TEXCOORD_0": 115,
            "TEXCOORD_1": 116,
            "TEXCOORD_2": 117,
            "TEXCOORD_3": 118
          },
          "indices": 119,
          "material": 1,
          "mode": 4
        }
      ]
    },
    {
      "name": "Object_16",
      "primitives": [
        {
          "attributes": {
            "NORMAL": 121,
            "POSITION": 120,
            "TANGENT": 122,
            "TEXCOORD_0": 123,
            "TEXCOORD_1": 124,
            "TEXCOORD_2": 125,
            "TEXCOORD_3": 126
          },
          "indices": 127,
          "material": 1,
          "mode": 4
        }
      ]
    },
    {
      "name": "Object_17",
      "primitives": [
        {
          "attributes": {
            "NORMAL": 129,
            "POSITION": 128,
            "TANGENT": 130,
            "TEXCOORD_0": 131,
            "TEXCOORD_1": 132,
            "TEXCOORD_2": 133,
            "TEXCOORD_3": 134
          },
          "indices": 135,
          "material": 1,
          "mode": 4
        }
      ]
    },
    {
      "name": "Object_18",
      "primitives": [
        {
          "attributes": {
            "NORMAL": 137,
            "POSITION": 136,
            "TANGENT": 138,
            "TEXCOORD_0": 139,
            "TEXCOORD_1": 140,
            "TEXCOORD_2": 141,
            "TEXCOORD_3": 142
          },
          "indices": 143,
          "material": 0,
          "mode": 4
        }
      ]
    },
    {
      "name": "Object_19",
      "primitives": [
        {
          "attributes": {
            "NORMAL": 145,
            "POSITION": 144,
            "TANGENT": 146,
            "TEXCOORD_0": 147,
            "TEXCOORD_1": 148,
            "TEXCOORD_2": 149,
            "TEXCOORD_3": 150
          },
          "indices": 151,
          "material": 1,
          "mode": 4
        }
      ]
    },
    {
      "name": "Object_20",
      "primitives": [
        {
          "attributes": {
            "NORMAL": 153,
            "POSITION": 152,
            "TANGENT": 154,
            "TEXCOORD_0": 155,
            "TEXCOORD_1": 156,
            "TEXCOORD_2": 157,
            "TEXCOORD_3": 158
          },
          "indices": 159,
          "material": 1,
          "mode": 4
        }
      ]
    },
    {
      "name": "Object_21",
      "primitives": [
        {
          "attributes": {
            "NORMAL": 161,
            "POSITION": 160,
            "TANGENT": 162,
            "TEXCOORD_0": 163,
            "TEXCOORD_1": 164,
            "TEXCOORD_2": 165,
            "TEXCOORD_3": 166
          },
          "indices": 167,
          "material": 1,
          "mode": 4
        }
      ]
    },
    {
      "name": "Object_22",
      "primitives": [
        {
          "attributes": {
            "NORMAL": 169,
            "POSITION": 168,
            "TANGENT": 170,
            "TEXCOORD_0": 171,
            "TEXCOORD_1": 172,
            "TEXCOORD_2": 173,
            "TEXCOORD_3": 174
          },
          "indices": 175,
          "material": 0,
          "mode": 4
        }
      ]
    },
    {
      "name": "Object_23",
      "primitives": [
        {
          "attributes": {
            "NORMAL": 177,
            "POSITION": 176,
            "TANGENT": 178,
            "TEXCOORD_0": 179,
            "TEXCOORD_1": 180,
            "TEXCOORD_2": 181,
            "TEXCOORD_3": 182
          },
          "indices": 183,
          "material": 2,
          "mode": 4
        }
      ]
    },
    {
      "name": "Object_24",
      "primitives": [
        {
          "attributes": {
            "NORMAL": 185,
            "POSITION": 184,
            "TEXCOORD_0": 186,
            "TEXCOORD_1": 187
          },
          "indices": 188,
          "material": 3,
          "mode": 4
        }
      ]
    },
    {
      "name": "Object_25",
      "primitives": [
        {
          "attributes": {
            "NORMAL": 190,
            "POSITION": 189,
            "TANGENT": 191,
            "TEXCOORD_0": 192,
            "TEXCOORD_1": 193,
            "TEXCOORD_2": 194,
            "TEXCOORD_3": 195
          },
          "indices": 196,
          "material": 1,
          "mode": 4
        }
      ]
    },
    {
      "name": "Object_26",
      "primitives": [
        {
          "attributes": {
            "NORMAL": 198,
            "POSITION": 197,
            "TANGENT": 199,
            "TEXCOORD_0": 200,
            "TEXCOORD_1": 201,
            "TEXCOORD_2": 202,
            "TEXCOORD_3": 203
          },
          "indices": 204,
          "material": 1,
          "mode": 4
        }
      ]
    },
    {
      "name": "Object_27",
      "primitives": [
        {
          "attributes": {
            "NORMAL": 206,
            "POSITION": 205,
            "TANGENT": 207,
            "TEXCOORD_0": 208,
            "TEXCOORD_1": 209,
            "TEXCOORD_2": 210,
            "TEXCOORD_3": 211
          },
          "indices": 212,
          "material": 0,
          "mode": 4
        }
      ]
    },
    {
      "name": "Object_28",
      "primitives": [
        {
          "attributes": {
            "NORMAL": 214,
            "POSITION": 213,
            "TANGENT": 215,
            "TEXCOORD_0": 216,
            "TEXCOORD_1": 217,
            "TEXCOORD_2": 218,
            "TEXCOORD_3": 219
          },
          "indices": 220,
          "material": 1,
          "mode": 4
        }
      ]
    },
    {
      "name": "Object_29",
      "primitives": [
        {
          "attributes": {
            "NORMAL": 222,
            "POSITION": 221,
            "TANGENT": 223,
            "TEXCOORD_0": 224,
            "TEXCOORD_1": 225,
            "TEXCOORD_2": 226,
            "TEXCOORD_3": 227
          },
          "indices": 228,
          "material": 2,
          "mode": 4
        }
      ]
    },
    {
      "name": "Object_30",
      "primitives": [
        {
          "attributes": {
            "NORMAL": 230,
            "POSITION": 229,
            "TEXCOORD_0": 231,
            "TEXCOORD_1": 232
          },
          "indices": 233,
          "material": 3,
          "mode": 4
        }
      ]
    },
    {
      "name": "Object_31",
      "primitives": [
        {
          "attributes": {
            "NORMAL": 235,
            "POSITION": 234,
            "TANGENT": 236,
            "TEXCOORD_0": 237,
            "TEXCOORD_1": 238,
            "TEXCOORD_2": 239,
            "TEXCOORD_3": 240
          },
          "indices": 241,
          "material": 1,
          "mode": 4
        }
      ]
    },
    {
      "name": "Object_32",
      "primitives": [
        {
          "attributes": {
            "NORMAL": 243,
            "POSITION": 242,
            "TANGENT": 244,
            "TEXCOORD_0": 245,
            "TEXCOORD_1": 246,
            "TEXCOORD_2": 247,
            "TEXCOORD_3": 248
          },
          "indices": 249,
          "material": 0,
          "mode": 4
        }
      ]
    },
    {
      "name": "Object_33",
      "primitives": [
        {
          "attributes": {
            "NORMAL": 251,
            "POSITION": 250,
            "TANGENT": 252,
            "TEXCOORD_0": 253,
            "TEXCOORD_1": 254,
            "TEXCOORD_2": 255,
            "TEXCOORD_3": 256
          },
          "indices": 257,
          "material": 2,
          "mode": 4
        }
      ]
    },
    {
      "name": "Object_34",
      "primitives": [
        {
          "attributes": {
            "NORMAL": 259,
            "POSITION": 258,
            "TEXCOORD_0": 260,
            "TEXCOORD_1": 261
          },
          "indices": 262,
          "material": 3,
          "mode": 4
        }
      ]
    },
    {
      "name": "Object_35",
      "primitives": [
        {
          "attributes": {
            "NORMAL": 264,
            "POSITION": 263,
            "TANGENT": 265,
            "TEXCOORD_0": 266,
            "TEXCOORD_1": 267,
            "TEXCOORD_2": 268,
            "TEXCOORD_3": 269
          },
          "indices": 270,
          "material": 1,
          "mode": 4
        }
      ]
    },
    {
      "name": "Object_36",
      "primitives": [
        {
          "attributes": {
            "NORMAL": 272,
            "POSITION": 271,
            "TEXCOORD_0": 273,
            "TEXCOORD_1": 274
          },
          "indices": 275,
          "material": 3,
          "mode": 4
        }
      ]
    },
    {
      "name": "Object_37",
      "primitives": [
        {
          "attributes": {
            "NORMAL": 277,
            "POSITION": 276,
            "TANGENT": 278,
            "TEXCOORD_0": 279,
            "TEXCOORD_1": 280,
            "TEXCOORD_2": 281,
            "TEXCOORD_3": 282
          },
          "indices": 283,
          "material": 2,
          "mode": 4
        }
      ]
    },
    {
      "name": "Object_38",
      "primitives": [
        {
          "attributes": {
            "NORMAL": 285,
            "POSITION": 284,
            "TEXCOORD_0": 286,
            "TEXCOORD_1": 287
          },
          "indices": 288,
          "material": 3,
          "mode": 4
        }
      ]
    },
    {
      "name": "Object_39",
      "primitives": [
        {
          "attributes": {
            "NORMAL": 290,
            "POSITION": 289,
            "TANGENT": 291,
            "TEXCOORD_0": 292,
            "TEXCOORD_1": 293,
            "TEXCOORD_2": 294,
            "TEXCOORD_3": 295
          },
          "indices": 296,
          "material": 2,
          "mode": 4
        }
      ]
    },
    {
      "name": "Object_40",
      "primitives": [
        {
          "attributes": {
            "NORMAL": 298,
            "POSITION": 297,
            "TEXCOORD_0": 299,
            "TEXCOORD_1": 300
          },
          "indices": 301,
          "material": 3,
          "mode": 4
        }
      ]
    },
    {
      "name": "Object_41",
      "primitives": [
        {
          "attributes": {
            "NORMAL": 303,
            "POSITION": 302,
            "TANGENT": 304,
            "TEXCOORD_0": 305,
            "TEXCOORD_1": 306,
            "TEXCOORD_2": 307,
            "TEXCOORD_3": 308
          },
          "indices": 309,
          "material": 2,
          "mode": 4
        }
      ]
    },
    {
      "name": "Object_42",
      "primitives": [
        {
          "attributes": {
            "NORMAL": 311,
            "POSITION": 310,
            "TEXCOORD_0": 312,
            "TEXCOORD_1": 313
          },
          "indices": 314,
          "material": 3,
          "mode": 4
        }
      ]
    },
    {
      "name": "Object_43",
      "primitives": [
        {
          "attributes": {
            "NORMAL": 316,
            "POSITION": 315,
            "TANGENT": 317,
            "TEXCOORD_0": 318,
            "TEXCOORD_1": 319,
            "TEXCOORD_2": 320,
            "TEXCOORD_3": 321
          },
          "indices": 322,
          "material": 2,
          "mode": 4
        }
      ]
    },
    {
      "name": "Object_44",
      "primitives": [
        {
          "attributes": {
            "NORMAL": 324,
            "POSITION": 323,
            "TEXCOORD_0": 325,
            "TEXCOORD_1": 326
          },
          "indices": 327,
          "material": 3,
          "mode": 4
        }
      ]
    }
  ],
  "nodes": [
    {
      "children": [
        1
      ],
      "matrix": [
        1.0,
        0.0,
        0.0,
        0.0,
        0.0,
        2.220446049250313e-16,
        -1.0,
        0.0,
        0.0,
        1.0,
        2.220446049250313e-16,
        0.0,
        0.0,
        0.0,
        0.0,
        1.0
      ],
      "name": "Sketchfab_model"
    },
    {
      "children": [
        2
      ],
      "name": "root"
    },
    {
      "children": [
        3,
        8,
        13,
        15,
        17,
        19,
        21,
        23,
        25,
        27,
        29,
        31,
        33,
        36,
        38,
        43,
        45,
        47,
        52,
        57,
        59,
        61,
        64,
        67,
        70
      ],
      "matrix": [
        1.0,
        0.0,
        0.0,
        0.0,
        0.0,
        2.220446049250313e-16,
        1.0,
        0.0,
        0.0,
        -1.0,
        2.220446049250313e-16,
        0.0,
        0.0,
        0.0,
        0.0,
        1.0
      ],
      "name": "GLTF_SceneRootNode"
    },
    {
      "children": [
        4,
        5,
        6,
        7
      ],
      "matrix": [
        1.0,
        0.0,
        0.0,
        0.0,
        0.0,
        1.0,
        0.0,
        0.0,
        0.0,
        0.0,
        1.0,
        0.0,
        -5.199999809265137,
        0.0,
        0.0,
        1.0
      ],
      "name": "Window_002_0"
    },
    {
      "mesh": 0,
      "name": "Object_4"
    },
    {
      "mesh": 1,
      "name": "Object_5"
    },
    {
      "mesh": 2,
      "name": "Object_6"
    },
    {
      "mesh": 3,
      "name": "Object_7"
    },
    {
      "children": [
        9,
        10,
        11,
        12
      ],
      "matrix": [
        1.0,
        0.0,
        0.0,
        0.0,
        0.0,
        1.0,
        0.0,
        0.0,
        0.0,
        0.0,
        1.0,
        0.0,
        0.5,
        0.0,
        0.0,
        1.0
      ],
      "name": "Window_001_1"
    },
    {
      "mesh": 4,
      "name": "Object_9"
    },
    {
      "mesh": 5,
      "name": "Object_10"
    },
    {
      "mesh": 6,
      "name": "Object_11"
    },
    {
      "mesh": 7,
      "name": "Object_12"
    },
    {
      "children": [
        14
      ],
      "matrix": [
        -2.9802322387695313e-08,
        -0.9999999999999991,
        -2.980232327587373e-08,
        0.0,
        -2.980232327587373e-08,
        -2.9802322387695313e-08,
        0.9999999999999991,
        0.0,
        -0.9999999999999991,
        2.980232327587373e-08,
        -2.9802322387695313e-08,
        0.0,
        6.291332721710205,
        0.0,
        0.0,
        1.0
      ],
      "name": "Door_001.001_2"
    },
    {
      "mesh": 8,
      "name": "Object_14"
    },
    {
      "children": [
        16
      ],
      "matrix": [
        1.0,
        0.0,
        0.0,
        0.0,
        0.0,
        1.0,
        0.0,
        0.0,
        0.0,
        0.0,
        1.0,
        0.0,
        6.291333198547363,
        0.0,
        0.0,
        1.0
      ],
      "name": "Stairs_001_3"
    },
    {
      "mesh": 9,
      "name": "Object_16"
    },
    {
      "children": [
        18
      ],
      "matrix": [
        0.9396926315659384,
        0.0,
        0.34202011370777824,
        0.0,
        0.0,
        1.0,
        0.0,
        0.0,
        -0.34202011370777824,
        0.0,
        0.9396926315659384,
        0.0,
        2.9558374881744385,
        0.3901771903038025,
        2.006807327270508,
        1.0
      ],
      "name": "LP_MaleBase_4"
    },
    {
      "mesh": 10,
      "name": "Object_18"
    },
    {
      "children": [
        20
      ],
      "matrix": [
        1.0,
        0.0,
        0.0,
        0.0,
        0.0,
        1.0,
        0.0,
        0.0,
        0.0,
        0.0,
        1.0,
        0.0,
        8.4913330078125,
        2.0,
        0.0,
        1.0
      ],
      "name": "Stairs_001.001_5"
    },
    {
      "mesh": 11,
      "name": "Object_20"
    },
    {
      "children": [
        22
      ],
      "matrix": [
        8.429369480200677e-08,
        0.0,
        -0.9999999999999966,
        0.0,
        0.0,
        1.0,
        0.0,
        0.0,
        0.9999999999999966,
        0.0,
        8.429369480200677e-08,
        0.0,
        8.4913330078125,
        2.0,
        0.0,
        1.0
      ],
      "name": "Stairs_001.002_6"
    },
    {
      "mesh": 12,
      "name": "Object_22"
    },
    {
      "children": [
        24
      ],
      "matrix": [
        1.0,
        0.0,
        0.0,
        0.0,
        0.0,
        1.0,
        0.0,
        0.0,
        0.0,
        0.0,
        1.0,
        0.0,
        -9.5,
        0.0,
        0.0,
        1.0
      ],
      "name": "Window_002.001_7"
    },
    {
      "mesh": 13,
      "name": "Object_24"
    },
    {
      "children": [
        26
      ],
      "matrix": [
        1.0,
        0.0,
        0.0,
        0.0,
        0.0,
        1.0,
        0.0,
        0.0,
        0.0,
        0.0,
        1.0,
        0.0,
        -9.5,
        2.4786336421966553,
        0.0,
        1.0
      ],
      "name": "Window_002.003_8"
    },
    {
      "mesh": 14,
      "name": "Object_26"
    },
    {
      "children": [
        28
      ],
      "matrix": [
        1.0,
        0.0,
        0.0,
        0.0,
        0.0,
        1.0,
        0.0,
        0.0,
        0.0,
        0.0,
        1.0,
        0.0,
        -3.2112374305725098,
        0.39765411615371704,
        1.2701046466827393,
        1.0
      ],
      "name": "Door_001.002_9"
    },
    {
      "mesh": 15,
      "name": "Object_28"
    },
    {
      "children": [
        30
      ],
      "matrix": [
        1.0,
        0.0,
        0.0,
        0.0,
        0.0,
        1.0,
        0.0,
        0.0,
        0.0,
        0.0,
        1.0,
        0.0,
        2.483426094055176,
        0.3980783522129059,
        1.2701046466827393,
        1.0
      ],
      "name": "Door_001.003_10"
    },
    {
      "mesh": 16,
      "name": "Object_30"
    },
    {
      "children": [
        32
      ],
      "matrix": [
        1.0,
        0.0,
        0.0,
        0.0,
        0.0,
        1.0,
        0.0,
        0.0,
        0.0,
        0.0,
        1.0,
        0.0,
        -9.5,
        3.366957187652588,
        0.0,
        1.0
      ],
      "name": "Window_002.006_11"
    },
    {
      "mesh": 17,
      "name": "Object_32"
    },
    {
      "children": [
        34,
        35
      ],
      "matrix": [
        1.0,
        0.0,
        0.0,
        0.0,
        0.0,
        1.0,
        0.0,
        0.0,
        0.0,
        0.0,
        1.0,
        0.0,
        -2.299999952316284,
        0.0,
        0.0,
        1.0
      ],
      "name": "Window_002.007_12"
    },
    {
      "mesh": 18,
      "name": "Object_34"
    },
    {
      "mesh": 19,
      "name": "Object_35"
    },
    {
      "children": [
        37
      ],
      "matrix": [
        1.0,
        0.0,
        0.0,
        0.0,
        0.0,
        1.0,
        0.0,
        0.0,
        0.0,
        0.0,
        1.0,
        0.0,
        1.899999976158142,
        0.39765411615371704,
        1.2701046466827393,
        1.0
      ],
      "name": "Door_001.004_13"
    },
    {
      "mesh": 20,
      "name": "Object_37"
    },
    {
      "children": [
        39,
        40,
        41,
        42
      ],
      "matrix": [
        1.0,
        0.0,
        0.0,
        0.0,
        0.0,
        1.0,
        0.0,
        0.0,
        0.0,
        0.0,
        1.0,
        0.0,
        -8.0,
        0.0,
        0.0,
        1.0
      ],
      "name": "Window_002.015_14"
    },
    {
      "mesh": 21,
      "name": "Object_39"
    },
    {
      "mesh": 22,
      "name": "Object_40"
    },
    {
      "mesh": 23,
      "name": "Object_41"
    },
    {
      "mesh": 24,
      "name": "Object_42"
    },
    {
      "children": [
        44
      ],
      "matrix": [
        1.0,
        0.0,
        0.0,
        0.0,
        0.0,
        1.0,
        0.0,
        0.0,
        0.0,
        0.0,
        1.0,
        0.0,
        -8.0,
        2.4786336421966553,
        0.0,
        1.0
      ],
      "name": "Window_002.016_15"
    },
    {
      "mesh": 25,
      "name": "Object_44"
    },
    {
      "children": [
        46
      ],
      "matrix": [
        1.0,
        0.0,
        0.0,
        0.0,
        0.0,
        1.0,
        0.0,
        0.0,
        0.0,
        0.0,
        1.0,
        0.0,
        -8.0,
        3.366957187652588,
        0.0,
        1.0
      ],
      "name": "Window_002.017_16"
    },
    {
      "mesh": 26,
      "name": "Object_46"
    },
    {
      "children": [
        48,
        49,
        50,
        51
      ],
      "matrix": [
        1.0,
        0.0,
        0.0,
        0.0,
        0.0,
        1.0,
        0.0,
        0.0,
        0.0,
        0.0,
        1.0,
        0.0,
        -5.199999809265137,
        3.0,
        0.0,
        1.0
      ],
      "name": "Window_002.002_19"
    },
    {
      "mesh": 27,
      "name": "Object_48"
    },
    {
      "mesh": 28,
      "name": "Object_49"
    },
    {
      "mesh": 29,
      "name": "Object_50"
    },
    {
      "mesh": 30,
      "name": "Object_51"
    },
    {
      "children": [
        53,
        54,
        55,
        56
      ],
      "matrix": [
        -2.9802322387695313e-08,
        -0.9999999999999991,
        -2.980232327587373e-08,
        0.0,
        -2.980232327587373e-08,
        -2.9802322387695313e-08,
        0.9999999999999991,
        0.0,
        -0.9999999999999991,
        2.980232327587373e-08,
        -2.9802322387695313e-08,
        0.0,
        3.376386880874634,
        0.0,
        0.0,
        1.0
      ],
      "name": "Door_001.005_20"
    },
    {
      "mesh": 31,
      "name": "Object_53"
    },
    {
      "mesh": 32,
      "name": "Object_54"
    },
    {
      "mesh": 33,
      "name": "Object_55"
    },
    {
      "mesh": 34,
      "name": "Object_56"
    },
    {
      "children": [
        58
      ],
      "matrix": [
        -1.788139449843129e-07,
        1.192092735635697e-07,
        0.9999999999999769,
        0.0,
        -0.999999999999968,
        -1.788139449843129e-07,
        -1.7881392366803084e-07,
        0.0,
        1.7881392366803084e-07,
        -0.9999999999999769,
        1.192093055379928e-07,
        0.0,
        -2.799999952316284,
        0.0,
        0.0,
        1.0
      ],
      "name": "Window_002.011_21"
    },
    {
      "mesh": 35,
      "name": "Object_58"
    },
    {
      "children": [
        60
      ],
      "matrix": [
        1.0,
        0.0,
        0.0,
        0.0,
        0.0,
        1.0,
        0.0,
        0.0,
        0.0,
        0.0,
        1.0,
        0.0,
        0.0,
        0.013458788394927979,
        59.957332611083984,
        1.0
      ],
      "name": "Plane.001_22"
    },
    {
      "mesh": 36,
      "name": "Object_60"
    },
    {
      "children": [
        62,
        63
      ],
      "matrix": [
        1.0,
        0.0,
        0.0,
        0.0,
        0.0,
        8.429369480200677e-08,
        0.9999999999999966,
        0.0,
        0.0,
        -0.9999999999999966,
        8.429369480200677e-08,
        0.0,
        -4.685714244842529,
        5.566265106201172,
        -0.1000000536441803,
        1.0
      ],
      "name": "Window_002.004_23"
    },
    {
      "mesh": 37,
      "name": "Object_62"
    },
    {
      "mesh": 38,
      "name": "Object_63"
    },
    {
      "children": [
        65,
        66
      ],
      "matrix": [
        2.9802315282267955e-08,
        -0.9999999999999991,
        2.980232327587373e-08,
        0.0,
        -2.682208739557268e-07,
        2.9802315282267955e-08,
        0.9999999999999636,
        0.0,
        -0.9999999999999636,
        -2.980232327587373e-08,
        -2.682208730675484e-07,
        0.0,
        -4.700000286102295,
        6.700000286102295,
        -0.10000000149011612,
        1.0
      ],
      "name": "Window_002.005_24"
    },
    {
      "mesh": 39,
      "name": "Object_65"
    },
    {
      "mesh": 40,
      "name": "Object_66"
    },
    {
      "children": [
        68,
        69
      ],
      "matrix": [
        1.0,
        0.0,
        0.0,
        0.0,
        0.0,
        1.0,
        0.0,
        0.0,
        0.0,
        0.0,
        1.0,
        0.0,
        -8.0,
        2.0,
        0.0,
        1.0
      ],
      "name": "Window_002.008_25"
    },
    {
      "mesh": 41,
      "name": "Object_68"
    },
    {
      "mesh": 42,
      "name": "Object_69"
    },
    {
      "children": [
        71,
        72
      ],
      "matrix": [
        5.960464477539063e-08,
        -0.9999999999999964,
        -5.960463411724959e-08,
        0.0,
        -1.7881391656260348e-07,
        -5.960464477539063e-08,
        0.9999999999999822,
        0.0,
        -0.9999999999999822,
        -5.960463411724959e-08,
        -1.7881392011531716e-07,
        0.0,
        1.750000238418579,
        3.200000047683716,
        -0.09999994933605194,
        1.0
      ],
      "name": "Window_001.001_26"
    },
    {
      "mesh": 43,
      "name": "Object_71"
    },
    {
      "mesh": 44,
      "name": "Object_72"
    }
  ],
  "samplers": [
    {
      "magFilter": 9729,
      "minFilter": 9987,
      "wrapS": 10497,
      "wrapT": 10497
    }
  ],
  "scene": 0,
  "scenes": [
    {
      "name": "Sketchfab_Scene",
      "nodes": [
        0
      ]
    }
  ],
  "textures": [
    {
      "sampler": 0,
      "source": 0
    },
    {
      "sampler": 0,
      "source": 1
    },
    {
      "sampler": 0,
      "source": 2
    },
    {
      "sampler": 0,
      "source": 3
    },
    {
      "sampler": 0,
      "source": 4
    },
    {
      "sampler": 0,
      "source": 5
    },
    {
      "sampler": 0,
      "source": 6
    },
    {
      "sampler": 0,
      "source": 7
    },
    {
      "sampler": 0,
      "source": 8
    },
    {
      "sampler": 0,
      "source": 9
    }
  ]
}
