{
  "accessors": [
    {
      "bufferView": 2,
      "componentType": 5126,
      "count": 974,
      "max": [
        30.337814331054688,
        30.337814331054688,
        35.77571487426758
      ],
      "min": [
        -30.337814331054688,
        -30.337814331054688,
        0.0
      ],
      "type": "VEC3"
    },
    {
      "bufferView": 2,
      "byteOffset": 11688,
      "componentType": 5126,
      "count": 974,
      "max": [
        0.996945321559906,
        0.9969452619552612,
        1.0
      ],
      "min": [
        -0.9969452619552612,
        -0.9969452619552612,
        -1.0
      ],
      "type": "VEC3"
    },
    {
      "bufferView": 1,
      "componentType": 5126,
      "count": 974,
      "max": [
        0.999500036239624,
        0.5977078676223755
      ],
      "min": [
        0.0005000000237487257,
        0.0005000000237487257
      ],
      "type": "VEC2"
    },
    {
      "bufferView": 0,
      "componentType": 5125,
      "count": 3312,
      "type": "SCALAR"
    },
    {
      "bufferView": 2,
      "byteOffset": 23376,
      "componentType": 5126,
      "count": 145,
      "max": [
        12.92884349822998,
        12.92884349822998,
        36.61378479003906
      ],
      "min": [
        -12.928841590881348,
        -12.928841590881348,
        35.77571487426758
      ],
      "type": "VEC3"
    },
    {
      "bufferView": 2,
      "byteOffset": 25116,
      "componentType": 5126,
      "count": 145,
      "max": [
        1.0,
        1.0,
        0.0
      ],
      "min": [
        -1.0,
        -1.0,
        -1.0
      ],
      "type": "VEC3"
    },
    {
      "bufferView": 1,
      "byteOffset": 7792,
      "componentType": 5126,
      "count": 145,
      "max": [
        0.88800048828125,
        0.3473426401615143
      ],
      "min": [
        0.7451184391975403,
        0.20446069538593292
      ],
      "type": "VEC2"
    },
    {
      "bufferView": 0,
      "byteOffset": 13248,
      "componentType": 5125,
      "count": 432,
      "type": "SCALAR"
    },
    {
      "bufferView": 2,
      "byteOffset": 26856,
      "componentType": 5126,
      "count": 192,
      "max": [
        3.1009750366210938,
        3.1009557247161865,
        66.8246841430664
      ],
      "min": [
        -3.100961446762085,
        -3.1009674072265625,
        0.896230936050415
      ],
      "type": "VEC3"
    },
    {
      "bufferView": 2,
      "byteOffset": 29160,
      "componentType": 5126,
      "count": 192,
      "max": [
        1.0,
        1.0,
        1.0
      ],
      "min": [
        -1.0,
        -1.0,
        -1.0
      ],
      "type": "VEC3"
    },
    {
      "bufferView": 1,
      "byteOffset": 8952,
      "componentType": 5126,
      "count": 192,
      "max": [
        0.9284244179725647,
        0.7036306858062744
      ],
      "min": [
        0.0005000000237487257,
        0.20769816637039185
      ],
      "type": "VEC2"
    },
    {
      "bufferView": 0,
      "byteOffset": 14976,
      "componentType": 5125,
      "count": 576,
      "type": "SCALAR"
    },
    {
      "bufferView": 2,
      "byteOffset": 31464,
      "componentType": 5126,
      "count": 563,
      "max": [
        4.012198448181152,
        4.012196063995361,
        9.728277206420898
      ],
      "min": [
        -4.012197494506836,
        -4.012197017669678,
        -4.173976421356201
      ],
      "type": "VEC3"
    },
    {
      "bufferView": 2,
      "byteOffset": 38220,
      "componentType": 5126,
      "count": 563,
      "max": [
        0.9999994039535522,
        0.9999994039535522,
        1.0
      ],
      "min": [
        -0.9999994039535522,
        -0.9999994039535522,
        -1.0
      ],
      "type": "VEC3"
    },
    {
      "bufferView": 1,
      "byteOffset": 10488,
      "componentType": 5126,
      "count": 563,
      "max": [
        0.07551106065511703,
        0.9914113283157349
      ],
      "min": [
        0.0005000000237487257,
        0.6220945119857788
      ],
      "type": "VEC2"
    },
    {
      "bufferView": 0,
      "byteOffset": 17280,
      "componentType": 5125,
      "count": 3072,
      "type": "SCALAR"
    }
  ],
  "asset": {
    "extras": {
      "author": "BILAL-NAV (https://sketchfab.com/BILAL-NAV)",
      "license": "CC-BY-4.0 (http://creativecommons.org/licenses/by/4.0/)",
      "source": "https://sketchfab.com/3d-models/broken-ceiling-lamp-bdeb86e145874e27922e662267e6887f",
      "title": "Broken-ceiling-lamp"
    },
    "generator": "Sketchfab-17.15.0",
    "version": "2.0"
  },
  "bufferViews": [
    {
      "buffer": 0,
      "byteLength": 29568,
      "name": "floatBufferViews",
      "target": 34963
    },
    {
      "buffer": 0,
      "byteLength": 14992,
      "byteOffset": 29568,
      "byteStride": 8,
      "name": "floatBufferViews",
      "target": 34962
    },
    {
      "buffer": 0,
      "byteLength": 44976,
      "byteOffset": 44560,
      "byteStride": 12,
      "name": "floatBufferViews",
      "target": 34962
    }
  ],
  "buffers": [
    {
      "byteLength": 89536,
      "uri": "scene.bin"
    }
  ],
  "materials": [
    {
      "doubleSided": true,
      "name": "Scene_-_Root",
      "pbrMetallicRoughness": {
        "metallicFactor": 0.0,
        "roughnessFactor": 0.6
      }
    }
  ],
  "meshes": [
    {
      "name": "Cylinder001__0",
      "primitives": [
        {
          "attributes": {
            "NORMAL": 1,
            "POSITION": 0,
            "TEXCOORD_0": 2
          },
          "indices": 3,
          "material": 0,
          "mode": 4
        }
      ]
    },
    {
      "name": "Object001__0",
      "primitives": [
        {
          "attributes": {
            "NORMAL": 5,
            "POSITION": 4,
            "TEXCOORD_0": 6
          },
          "indices": 7,
          "material": 0,
          "mode": 4
        }
      ]
    },
    {
      "name": "Cylinder002__0",
      "primitives": [
        {
          "attributes": {
            "NORMAL": 9,
            "POSITION": 8,
            "TEXCOORD_0": 10
          },
          "indices": 11,
          "material": 0,
          "mode": 4
        }
      ]
    },
    {
      "name": "Sphere001__0",
      "primitives": [
        {
          "attributes": {
            "NORMAL": 13,
            "POSITION": 12,
            "TEXCOORD_0": 14
          },
          "indices": 15,
          "material": 0,
          "mode": 4
        }
      ]
    }
  ],
  "nodes": [
    {
      "children": [
        1
      ],
      "matrix": [
        1.0,
        0.0,
        0.0,
        0.0,
        0.0,
        2.220446049250313e-16,
        -1.0,
        0.0,
        0.0,
        1.0,
        2.220446049250313e-16,
        0.0,
        0.0,
        0.0,
        0.0,
        1.0
      ],
      "name": "Sketchfab_model"
    },
    {
      "children": [
        2
      ],
      "matrix": [
        0.009999999776482582,
        0.0,
        0.0,
        0.0,
        0.0,
        0.0,
        0.009999999776482582,
        0.0,
        0.0,
        -0.009999999776482582,
        0.0,
        0.0,
        0.0,
        0.0,
        0.0,
        1.0
      ],
      "name": "Lampara.fbx"
    },
    {
      "children": [
        3,
        5,
        8,
        10
      ],
      "name": "RootNode"
    },
    {
      "children": [
        4
      ],
      "matrix": [
        1.0,
        0.0,
        0.0,
        0.0,
        0.0,
        0.18606765978872553,
        -0.9825369336471516,
        0.0,
        0.0,
        0.9825369336471516,
        0.18606765978872553,
        0.0,
        0.16151897609233856,
        9.582263946533203,
        -5.130095481872559,
        1.0
      ],
      "name": "Cylinder001"
    },
    {
      "mesh": 0,
      "name": "Cylinder001__0"
    },
    {
      "children": [
        6
      ],
      "matrix": [
        1.0,
        0.0,
        0.0,
        0.0,
        0.0,
        -0.18606770294452235,
        0.9825369254745336,
        0.0,
        0.0,
        -0.9825369254745336,
        -0.18606770294452235,
        0.0,
        0.16151897609233856,
        45.50421142578125,
        1.6726136207580566,
        1.0
      ],
      "name": "Object001"
    },
    {
      "children": [
        7
      ],
      "matrix": [
        1.0,
        0.0,
        -0.0,
        0.0,
        0.0,
        1.0,
        0.0,
        0.0,
        0.0,
        0.0,
        1.0,
        0.0,
        0.0,
        0.0,
        -36.30809783935547,
        1.0
      ],
      "name": "Object_6"
    },
    {
      "mesh": 1,
      "name": "Object001__0"
    },
    {
      "children": [
        9
      ],
      "matrix": [
        1.0,
        0.0,
        0.0,
        0.0,
        0.0,
        2.220446049250313e-16,
        -1.0,
        0.0,
        0.0,
        1.0,
        2.220446049250313e-16,
        0.0,
        0.16151809692382813,
        44.9349479675293,
        1.6726131439208984,
        1.0
      ],
      "name": "Cylinder002"
    },
    {
      "mesh": 2,
      "name": "Cylinder002__0"
    },
    {
      "children": [
        11
      ],
      "matrix": [
        1.0,
        0.0,
        0.0,
        0.0,
        0.0,
        2.220446049250313e-16,
        -1.0,
        0.0,
        0.0,
        1.0,
        2.220446049250313e-16,
        0.0,
        0.16151905059814453,
        29.48626708984375,
        1.6726131439208984,
        1.0
      ],
      "name": "Sphere001"
    },
    {
      "mesh": 3,
      "name": "Sphere001__0"
    }
  ],
  "scene": 0,
  "scenes": [
    {
      "name": "Sketchfab_Scene",
      "nodes": [
        0
      ]
    }
  ]
}
